<?xml version="1.0" encoding="UTF-8"?>
<svg id="Layer_2" data-name="Layer 2" xmlns="http://www.w3.org/2000/svg" xmlns:xlink="http://www.w3.org/1999/xlink" viewBox="0 0 1514 572">
  <defs>
    <style>
      .cls-1 {
        fill: none;
      }

      .cls-2 {
        fill: #f9e7e2;
      }

      .cls-3, .cls-4 {
        fill: #00364a;
      }

      .cls-5 {
        fill: #fff;
      }

      .cls-6 {
        fill: #ffd1bd;
      }

      .cls-7 {
        fill: #e2cce2;
      }

      .cls-8 {
        filter: url(#drop-shadow-1);
      }

      .cls-4 {
        font-family: VersatyloRoundedRegular, 'Versatylo Rounded';
        font-size: 190px;
      }
    </style>
    <filter id="drop-shadow-1" filterUnits="userSpaceOnUse">
      <feOffset dx="3" dy="3"/>
      <feGaussianBlur result="blur" stdDeviation="5"/>
      <feFlood flood-color="#000" flood-opacity=".3"/>
      <feComposite in2="blur" operator="in"/>
      <feComposite in="SourceGraphic"/>
    </filter>
  </defs>
  <g id="Layer_5" data-name="Layer 5">
    <rect class="cls-5" width="1514" height="572"/>
    <line class="cls-1" x1="311.14" y1="526.71" x2="311.13" y2="526.72"/>
    <g class="cls-8">
      <g>
        <g>
          <path class="cls-3" d="M461.84,346.41c-6.21-12.28-14.75-22.19-26.11-30.31l-21.3-15.21,19.87-17.03c9.47-8.13,16.57-17.52,21.7-28.73,5.14-11.23,7.64-22.75,7.64-35.21,0-11.3-2.16-21.82-6.59-32.18-4.42-10.29-10.57-19.45-18.28-27.2-7.54-7.26-16.2-13.01-25.76-17.11l13.13-16.52c-2.37-1.17-4.78-2.24-7.25-3.24-12.84-5.16-26.25-7.58-40.25-7.25H205.14c-6.34,0-11.67,2.25-16,6.75-4.34,4.5-6.5,9.75-6.5,15.75l.5,326.5c0,6.34,2.16,11.75,6.5,16.25,4.33,4.5,9.66,6.75,16,6.75h181c3.62,.09,7.2-.01,10.73-.3l-13.53-20.2h3.29c7.73,.19,15.05-.64,22.17-2.52,3.24-.85,6.43-1.92,9.59-3.21,10.19-4.15,19.44-10.21,27.5-18.01,8.06-7.79,14.07-16.53,18.36-26.72,4.24-10.08,6.39-20.86,6.39-32.04,0-13.86-3.04-26.62-9.3-39.01Zm-33.2,80.51c-5.67,5.34-12.17,9.42-19.5,12.25-7.34,2.84-14.84,4.09-22.5,3.75H228.14l-20.5,20.5v-159h179c8.15,0,16.02,1.17,23.47,3.48l-12.59,17.98c4.3,.79,8.42,2.05,12.37,3.79,7.16,3.17,13.5,7.5,19,13s9.83,11.92,13,19.25c3.16,7.34,4.75,15.17,4.75,23.5,0,16.34-6,30.17-18,41.5Zm-50.4-285.5c10.25-.37,20.47,1.33,30.38,5.07,.5,.19,1,.38,1.49,.58l-13.52,17.01c1.6,.46,3.2,.99,4.8,1.59,7.5,2.84,14.08,6.92,19.75,12.25,5.66,5.67,10.08,12.09,13.25,19.25,3.16,7.17,4.75,14.75,4.75,22.75s-1.59,16.09-4.75,23.25c-3.17,7.17-7.5,13.5-13,19s-11.84,9.84-19,13c-7.17,3.17-14.92,4.75-23.25,4.75H228.14l-20.41,20.5-.68-159h171.19Z"/>
          <path class="cls-3" d="M453.14,188.87c-4.19-9.44-10.07-18-17.49-25.44l-.47-.45c-7.25-6.8-15.67-12.15-25.07-15.91l-13.52,17.01-14.55,18.31c4.05,.11,8.04,.92,12.1,2.45,4.89,1.85,9.05,4.4,12.73,7.8,3.78,3.84,6.66,8.04,8.76,12.8,2.03,4.59,3.01,9.32,3.01,14.48,0,5.5-.98,10.39-3,14.96-2.16,4.88-5.02,9.07-8.75,12.79-3.73,3.73-7.91,6.6-12.79,8.75-4.56,2.02-9.46,3-14.96,3H248.55l-20.41,20.5-20.41,20.5h171.41c11.18,0,21.79-2.19,31.53-6.5,9.46-4.17,17.94-9.98,25.22-17.25,7.26-7.27,13.06-15.75,17.25-25.22,4.31-9.76,6.5-20.37,6.5-31.53s-2.18-21.26-6.5-31.05Zm7.56,164.91c-4.19-9.7-10.02-18.31-17.31-25.61-7.26-7.25-15.74-13.06-25.23-17.26-2.62-1.16-5.31-2.16-8.05-3.01l-12.59,17.98-13.68,19.54h2.8c5.49,0,10.39,.98,14.95,2.99,4.9,2.17,9.08,5.03,12.8,8.76,3.68,3.67,6.52,7.89,8.68,12.87,2.06,4.79,3.07,9.82,3.07,15.38,0,10.69-3.68,19.14-11.55,26.57-3.76,3.54-7.96,6.17-12.84,8.06-4.71,1.82-9.35,2.6-14.21,2.39l-.45-.02H248.64l-41,41h178.59c.94,.03,1.88,.05,2.82,.05,9.35,0,18.57-1.74,27.47-5.18,9.77-3.77,18.58-9.3,26.19-16.46,16.21-15.3,24.43-34.28,24.43-56.41,0-11.1-2.16-21.73-6.44-31.64Zm0,0c-4.19-9.7-10.02-18.31-17.31-25.61-7.26-7.25-15.74-13.06-25.23-17.26-2.62-1.16-5.31-2.16-8.05-3.01l-12.59,17.98-13.68,19.54h2.8c5.49,0,10.39,.98,14.95,2.99,4.9,2.17,9.08,5.03,12.8,8.76,3.68,3.67,6.52,7.89,8.68,12.87,2.06,4.79,3.07,9.82,3.07,15.38,0,10.69-3.68,19.14-11.55,26.57-3.76,3.54-7.96,6.17-12.84,8.06-4.71,1.82-9.35,2.6-14.21,2.39l-.45-.02H248.64l-41,41h178.59c.94,.03,1.88,.05,2.82,.05,9.35,0,18.57-1.74,27.47-5.18,9.77-3.77,18.58-9.3,26.19-16.46,16.21-15.3,24.43-34.28,24.43-56.41,0-11.1-2.16-21.73-6.44-31.64Zm-7.56-164.91c-4.19-9.44-10.07-18-17.49-25.44l-.47-.45c-7.25-6.8-15.67-12.15-25.07-15.91l-13.52,17.01-14.55,18.31c4.05,.11,8.04,.92,12.1,2.45,4.89,1.85,9.05,4.4,12.73,7.8,3.78,3.84,6.66,8.04,8.76,12.8,2.03,4.59,3.01,9.32,3.01,14.48,0,5.5-.98,10.39-3,14.96-2.16,4.88-5.02,9.07-8.75,12.79-3.73,3.73-7.91,6.6-12.79,8.75-4.56,2.02-9.46,3-14.96,3H248.55l-20.41,20.5-20.41,20.5h171.41c11.18,0,21.79-2.19,31.53-6.5,9.46-4.17,17.94-9.98,25.22-17.25,7.26-7.27,13.06-15.75,17.25-25.22,4.31-9.76,6.5-20.37,6.5-31.53s-2.18-21.26-6.5-31.05Zm0,0c-4.19-9.44-10.07-18-17.49-25.44l-.47-.45c-7.25-6.8-15.67-12.15-25.07-15.91l-13.52,17.01-14.55,18.31c4.05,.11,8.04,.92,12.1,2.45,4.89,1.85,9.05,4.4,12.73,7.8,3.78,3.84,6.66,8.04,8.76,12.8,2.03,4.59,3.01,9.32,3.01,14.48,0,5.5-.98,10.39-3,14.96-2.16,4.88-5.02,9.07-8.75,12.79-3.73,3.73-7.91,6.6-12.79,8.75-4.56,2.02-9.46,3-14.96,3H248.55l-20.41,20.5-20.41,20.5h171.41c11.18,0,21.79-2.19,31.53-6.5,9.46-4.17,17.94-9.98,25.22-17.25,7.26-7.27,13.06-15.75,17.25-25.22,4.31-9.76,6.5-20.37,6.5-31.53s-2.18-21.26-6.5-31.05Zm7.56,164.91c-4.19-9.7-10.02-18.31-17.31-25.61-7.26-7.25-15.74-13.06-25.23-17.26-2.62-1.16-5.31-2.16-8.05-3.01l-12.59,17.98-13.68,19.54h2.8c5.49,0,10.39,.98,14.95,2.99,4.9,2.17,9.08,5.03,12.8,8.76,3.68,3.67,6.52,7.89,8.68,12.87,2.06,4.79,3.07,9.82,3.07,15.38,0,10.69-3.68,19.14-11.55,26.57-3.76,3.54-7.96,6.17-12.84,8.06-4.71,1.82-9.35,2.6-14.21,2.39l-.45-.02H248.64l-41,41h178.59c.94,.03,1.88,.05,2.82,.05,9.35,0,18.57-1.74,27.47-5.18,9.77-3.77,18.58-9.3,26.19-16.46,16.21-15.3,24.43-34.28,24.43-56.41,0-11.1-2.16-21.73-6.44-31.64Zm0,0c-4.19-9.7-10.02-18.31-17.31-25.61-7.26-7.25-15.74-13.06-25.23-17.26-2.62-1.16-5.31-2.16-8.05-3.01l-12.59,17.98-13.68,19.54h2.8c5.49,0,10.39,.98,14.95,2.99,4.9,2.17,9.08,5.03,12.8,8.76,3.68,3.67,6.52,7.89,8.68,12.87,2.06,4.79,3.07,9.82,3.07,15.38,0,10.69-3.68,19.14-11.55,26.57-3.76,3.54-7.96,6.17-12.84,8.06-4.71,1.82-9.35,2.6-14.21,2.39l-.45-.02H248.64l-41,41h178.59c.94,.03,1.88,.05,2.82,.05,9.35,0,18.57-1.74,27.47-5.18,9.77-3.77,18.58-9.3,26.19-16.46,16.21-15.3,24.43-34.28,24.43-56.41,0-11.1-2.16-21.73-6.44-31.64Zm-7.56-164.91c-4.19-9.44-10.07-18-17.49-25.44l-.47-.45c-7.25-6.8-15.67-12.15-25.07-15.91l-13.52,17.01-14.55,18.31c4.05,.11,8.04,.92,12.1,2.45,4.89,1.85,9.05,4.4,12.73,7.8,3.78,3.84,6.66,8.04,8.76,12.8,2.03,4.59,3.01,9.32,3.01,14.48,0,5.5-.98,10.39-3,14.96-2.16,4.88-5.02,9.07-8.75,12.79-3.73,3.73-7.91,6.6-12.79,8.75-4.56,2.02-9.46,3-14.96,3H248.55l-20.41,20.5-20.41,20.5h171.41c11.18,0,21.79-2.19,31.53-6.5,9.46-4.17,17.94-9.98,25.22-17.25,7.26-7.27,13.06-15.75,17.25-25.22,4.31-9.76,6.5-20.37,6.5-31.53s-2.18-21.26-6.5-31.05Zm7.56,164.91c-4.19-9.7-10.02-18.31-17.31-25.61-7.26-7.25-15.74-13.06-25.23-17.26-2.62-1.16-5.31-2.16-8.05-3.01l-12.59,17.98-13.68,19.54h2.8c5.49,0,10.39,.98,14.95,2.99,4.9,2.17,9.08,5.03,12.8,8.76,3.68,3.67,6.52,7.89,8.68,12.87,2.06,4.79,3.07,9.82,3.07,15.38,0,10.69-3.68,19.14-11.55,26.57-3.76,3.54-7.96,6.17-12.84,8.06-4.71,1.82-9.35,2.6-14.21,2.39l-.45-.02H248.64l-41,41h178.59c.94,.03,1.88,.05,2.82,.05,9.35,0,18.57-1.74,27.47-5.18,9.77-3.77,18.58-9.3,26.19-16.46,16.21-15.3,24.43-34.28,24.43-56.41,0-11.1-2.16-21.73-6.44-31.64Zm-7.56-164.91c-4.19-9.44-10.07-18-17.49-25.44l-.47-.45c-7.25-6.8-15.67-12.15-25.07-15.91l-13.52,17.01-14.55,18.31c4.05,.11,8.04,.92,12.1,2.45,4.89,1.85,9.05,4.4,12.73,7.8,3.78,3.84,6.66,8.04,8.76,12.8,2.03,4.59,3.01,9.32,3.01,14.48,0,5.5-.98,10.39-3,14.96-2.16,4.88-5.02,9.07-8.75,12.79-3.73,3.73-7.91,6.6-12.79,8.75-4.56,2.02-9.46,3-14.96,3H248.55l-20.41,20.5-20.41,20.5h171.41c11.18,0,21.79-2.19,31.53-6.5,9.46-4.17,17.94-9.98,25.22-17.25,7.26-7.27,13.06-15.75,17.25-25.22,4.31-9.76,6.5-20.37,6.5-31.53s-2.18-21.26-6.5-31.05Zm-26.6-84.22c-15.29-6.15-31.5-9.08-48.13-8.73H205.14c-11.93,0-22.57,4.51-30.76,13.03-8.01,8.3-12.24,18.67-12.24,30l.5,326.47c0,11.63,4.23,22.16,12.22,30.46,8.21,8.53,18.85,13.04,30.78,13.04h180.77c.92,.02,1.84,.03,2.76,.03,7.09,0,14.08-.6,20.94-1.81l-12.74-19.02-13.53-20.2H205.64c-.56,0-.78-.07-.78-.07,0-.01-.16-.09-.46-.4-.57-.6-.76-.89-.76-2.06l-.5-326.47c0-.52,0-.73,.78-1.54,.28-.3,.43-.38,.43-.38,.01-.01,.23-.08,.79-.08h173.98c11.3-.25,21.8,1.62,32.11,5.76,.6,.24,1.19,.49,1.78,.75l13.13-16.52,13-16.36c-4.07-2.19-8.27-4.16-12.6-5.9Zm26.6,84.22c-4.19-9.44-10.07-18-17.49-25.44l-.47-.45c-7.25-6.8-15.67-12.15-25.07-15.91l-13.52,17.01-14.55,18.31c4.05,.11,8.04,.92,12.1,2.45,4.89,1.85,9.05,4.4,12.73,7.8,3.78,3.84,6.66,8.04,8.76,12.8,2.03,4.59,3.01,9.32,3.01,14.48,0,5.5-.98,10.39-3,14.96-2.16,4.88-5.02,9.07-8.75,12.79-3.73,3.73-7.91,6.6-12.79,8.75-4.56,2.02-9.46,3-14.96,3H248.55l-20.41,20.5-20.41,20.5h171.41c11.18,0,21.79-2.19,31.53-6.5,9.46-4.17,17.94-9.98,25.22-17.25,7.26-7.27,13.06-15.75,17.25-25.22,4.31-9.76,6.5-20.37,6.5-31.53s-2.18-21.26-6.5-31.05Zm7.56,164.91c-4.19-9.7-10.02-18.31-17.31-25.61-7.26-7.25-15.74-13.06-25.23-17.26-2.62-1.16-5.31-2.16-8.05-3.01l-12.59,17.98-13.68,19.54h2.8c5.49,0,10.39,.98,14.95,2.99,4.9,2.17,9.08,5.03,12.8,8.76,3.68,3.67,6.52,7.89,8.68,12.87,2.06,4.79,3.07,9.82,3.07,15.38,0,10.69-3.68,19.14-11.55,26.57-3.76,3.54-7.96,6.17-12.84,8.06-4.71,1.82-9.35,2.6-14.21,2.39l-.45-.02H248.64l-41,41h178.59c.94,.03,1.88,.05,2.82,.05,9.35,0,18.57-1.74,27.47-5.18,9.77-3.77,18.58-9.3,26.19-16.46,16.21-15.3,24.43-34.28,24.43-56.41,0-11.1-2.16-21.73-6.44-31.64Zm0,0c-4.19-9.7-10.02-18.31-17.31-25.61-7.26-7.25-15.74-13.06-25.23-17.26-2.62-1.16-5.31-2.16-8.05-3.01l-12.59,17.98-13.68,19.54h2.8c5.49,0,10.39,.98,14.95,2.99,4.9,2.17,9.08,5.03,12.8,8.76,3.68,3.67,6.52,7.89,8.68,12.87,2.06,4.79,3.07,9.82,3.07,15.38,0,10.69-3.68,19.14-11.55,26.57-3.76,3.54-7.96,6.17-12.84,8.06-4.71,1.82-9.35,2.6-14.21,2.39l-.45-.02H248.64l-41,41h178.59c.94,.03,1.88,.05,2.82,.05,9.35,0,18.57-1.74,27.47-5.18,9.77-3.77,18.58-9.3,26.19-16.46,16.21-15.3,24.43-34.28,24.43-56.41,0-11.1-2.16-21.73-6.44-31.64Zm-7.56-164.91c-4.19-9.44-10.07-18-17.49-25.44l-.47-.45c-7.25-6.8-15.67-12.15-25.07-15.91l-13.52,17.01-14.55,18.31c4.05,.11,8.04,.92,12.1,2.45,4.89,1.85,9.05,4.4,12.73,7.8,3.78,3.84,6.66,8.04,8.76,12.8,2.03,4.59,3.01,9.32,3.01,14.48,0,5.5-.98,10.39-3,14.96-2.16,4.88-5.02,9.07-8.75,12.79-3.73,3.73-7.91,6.6-12.79,8.75-4.56,2.02-9.46,3-14.96,3H248.55l-20.41,20.5-20.41,20.5h171.41c11.18,0,21.79-2.19,31.53-6.5,9.46-4.17,17.94-9.98,25.22-17.25,7.26-7.27,13.06-15.75,17.25-25.22,4.31-9.76,6.5-20.37,6.5-31.53s-2.18-21.26-6.5-31.05Zm0,0c-4.19-9.44-10.07-18-17.49-25.44l-.47-.45c-7.25-6.8-15.67-12.15-25.07-15.91l-13.52,17.01-14.55,18.31c4.05,.11,8.04,.92,12.1,2.45,4.89,1.85,9.05,4.4,12.73,7.8,3.78,3.84,6.66,8.04,8.76,12.8,2.03,4.59,3.01,9.32,3.01,14.48,0,5.5-.98,10.39-3,14.96-2.16,4.88-5.02,9.07-8.75,12.79-3.73,3.73-7.91,6.6-12.79,8.75-4.56,2.02-9.46,3-14.96,3H248.55l-20.41,20.5-20.41,20.5h171.41c11.18,0,21.79-2.19,31.53-6.5,9.46-4.17,17.94-9.98,25.22-17.25,7.26-7.27,13.06-15.75,17.25-25.22,4.31-9.76,6.5-20.37,6.5-31.53s-2.18-21.26-6.5-31.05Zm7.56,164.91c-4.19-9.7-10.02-18.31-17.31-25.61-7.26-7.25-15.74-13.06-25.23-17.26-2.62-1.16-5.31-2.16-8.05-3.01l-12.59,17.98-13.68,19.54h2.8c5.49,0,10.39,.98,14.95,2.99,4.9,2.17,9.08,5.03,12.8,8.76,3.68,3.67,6.52,7.89,8.68,12.87,2.06,4.79,3.07,9.82,3.07,15.38,0,10.69-3.68,19.14-11.55,26.57-3.76,3.54-7.96,6.17-12.84,8.06-4.71,1.82-9.35,2.6-14.21,2.39l-.45-.02H248.64l-41,41h178.59c.94,.03,1.88,.05,2.82,.05,9.35,0,18.57-1.74,27.47-5.18,9.77-3.77,18.58-9.3,26.19-16.46,16.21-15.3,24.43-34.28,24.43-56.41,0-11.1-2.16-21.73-6.44-31.64Zm0,0c-4.19-9.7-10.02-18.31-17.31-25.61-7.26-7.25-15.74-13.06-25.23-17.26-2.62-1.16-5.31-2.16-8.05-3.01l-12.59,17.98-13.68,19.54h2.8c5.49,0,10.39,.98,14.95,2.99,4.9,2.17,9.08,5.03,12.8,8.76,3.68,3.67,6.52,7.89,8.68,12.87,2.06,4.79,3.07,9.82,3.07,15.38,0,10.69-3.68,19.14-11.55,26.57-3.76,3.54-7.96,6.17-12.84,8.06-4.71,1.82-9.35,2.6-14.21,2.39l-.45-.02H248.64l-41,41h178.59c.94,.03,1.88,.05,2.82,.05,9.35,0,18.57-1.74,27.47-5.18,9.77-3.77,18.58-9.3,26.19-16.46,16.21-15.3,24.43-34.28,24.43-56.41,0-11.1-2.16-21.73-6.44-31.64Zm-7.56-164.91c-4.19-9.44-10.07-18-17.49-25.44l-.47-.45c-7.25-6.8-15.67-12.15-25.07-15.91l-13.52,17.01-14.55,18.31c4.05,.11,8.04,.92,12.1,2.45,4.89,1.85,9.05,4.4,12.73,7.8,3.78,3.84,6.66,8.04,8.76,12.8,2.03,4.59,3.01,9.32,3.01,14.48,0,5.5-.98,10.39-3,14.96-2.16,4.88-5.02,9.07-8.75,12.79-3.73,3.73-7.91,6.6-12.79,8.75-4.56,2.02-9.46,3-14.96,3H248.55l-20.41,20.5-20.41,20.5h171.41c11.18,0,21.79-2.19,31.53-6.5,9.46-4.17,17.94-9.98,25.22-17.25,7.26-7.27,13.06-15.75,17.25-25.22,4.31-9.76,6.5-20.37,6.5-31.53s-2.18-21.26-6.5-31.05Z"/>
          <path class="cls-3" d="M410.11,307.9l-12.59,17.98-13.68,19.54H248.64l-41-41h179c8.15,0,16.02,1.17,23.47,3.48Z"/>
          <path class="cls-3" d="M512.14,385.42c0,16.67-3.23,32.8-9.6,47.95-6.4,15.18-15.7,28.74-27.65,40.29-10.57,10.22-22.58,18.43-35.75,24.43-1.57,.72-3.16,1.41-4.76,2.06-7.84,3.2-15.96,5.54-24.27,6.99l-12.74-19.02-13.53-20.2h3.29c7.73,.19,15.05-.64,22.17-2.52,3.24-.85,6.43-1.92,9.59-3.21,10.19-4.15,19.44-10.21,27.5-18.01,8.06-7.79,14.07-16.53,18.36-26.72,4.24-10.08,6.39-20.86,6.39-32.04,0-13.86-3.04-26.62-9.3-39.01-6.21-12.28-14.75-22.19-26.11-30.31l-21.3-15.21,19.87-17.03c9.47-8.13,16.57-17.52,21.7-28.73,5.14-11.23,7.64-22.75,7.64-35.21,0-11.3-2.16-21.82-6.59-32.18-4.42-10.29-10.57-19.45-18.28-27.2-7.54-7.26-16.2-13.01-25.76-17.11l13.13-16.52,13-16.36c10.29,5.51,19.75,12.42,28.25,20.63l.25,.25c11.47,11.48,20.59,24.99,27.09,40.16,6.58,15.35,9.91,31.61,9.91,48.33,0,18.22-3.82,35.81-11.36,52.28-4.27,9.33-9.6,17.98-15.94,25.89,8.44,8.8,15.5,18.77,21.09,29.82,9.1,18.02,13.71,37.36,13.71,57.51Z"/>
          <path class="cls-3" d="M410.11,147.07l-13.52,17.01-14.55,18.31c-.83-.03-1.68-.03-2.52,.01l-.88,.02H248.23l-20.59-20.5-20.59-20.5h171.19c10.25-.37,20.47,1.33,30.38,5.07,.5,.19,1,.38,1.49,.58Z"/>
          <polygon class="cls-3" points="248.64 345.42 248.64 422.42 207.64 463.42 207.64 304.42 248.64 345.42"/>
          <polygon class="cls-3" points="248.55 259.42 228.14 279.92 207.73 300.42 207.05 141.42 227.64 161.92 248.23 182.42 248.55 259.42"/>
          <line class="cls-3" x1="413.01" y1="143.43" x2="410.11" y2="147.07"/>
        </g>
        <g>
          <path class="cls-3" d="M436.84,323.41c-6.21-12.28-14.75-22.19-26.11-30.31l-21.3-15.21,19.87-17.03c9.47-8.13,16.57-17.52,21.7-28.73,5.14-11.23,7.64-22.75,7.64-35.21,0-11.3-2.16-21.82-6.59-32.18-4.42-10.29-10.57-19.45-18.28-27.2-7.54-7.26-16.2-13.01-25.76-17.11l13.13-16.52c-2.37-1.17-4.78-2.24-7.25-3.24-12.84-5.16-26.25-7.58-40.25-7.25H180.14c-6.34,0-11.67,2.25-16,6.75-4.34,4.5-6.5,9.75-6.5,15.75l.5,326.5c0,6.34,2.16,11.75,6.5,16.25,4.33,4.5,9.66,6.75,16,6.75h181c3.62,.09,7.2-.01,10.73-.3l-13.53-20.2h3.29c7.73,.19,15.05-.64,22.17-2.52,3.24-.85,6.43-1.92,9.59-3.21,10.19-4.15,19.44-10.21,27.5-18.01,8.06-7.79,14.07-16.53,18.36-26.72,4.24-10.08,6.39-20.86,6.39-32.04,0-13.86-3.04-26.62-9.3-39.01Zm-33.2,80.51c-5.67,5.34-12.17,9.42-19.5,12.25-7.34,2.84-14.84,4.09-22.5,3.75H203.14l-20.5,20.5v-159h179c8.15,0,16.02,1.17,23.47,3.48l-12.59,17.98c4.3,.79,8.42,2.05,12.37,3.79,7.16,3.17,13.5,7.5,19,13s9.83,11.92,13,19.25c3.16,7.34,4.75,15.17,4.75,23.5,0,16.34-6,30.17-18,41.5Zm-50.4-285.5c10.25-.37,20.47,1.33,30.38,5.07,.5,.19,1,.38,1.49,.58l-13.52,17.01c1.6,.46,3.2,.99,4.8,1.59,7.5,2.84,14.08,6.92,19.75,12.25,5.66,5.67,10.08,12.09,13.25,19.25,3.16,7.17,4.75,14.75,4.75,22.75s-1.59,16.09-4.75,23.25c-3.17,7.17-7.5,13.5-13,19s-11.84,9.84-19,13c-7.17,3.17-14.92,4.75-23.25,4.75H203.14l-20.41,20.5-.68-159h171.19Z"/>
          <path class="cls-3" d="M428.14,165.87c-4.19-9.44-10.07-18-17.49-25.44l-.47-.45c-7.25-6.8-15.67-12.15-25.07-15.91l-13.52,17.01-14.55,18.31c4.05,.11,8.04,.92,12.1,2.45,4.89,1.85,9.05,4.4,12.73,7.8,3.78,3.84,6.66,8.04,8.76,12.8,2.03,4.59,3.01,9.32,3.01,14.48,0,5.5-.98,10.39-3,14.96-2.16,4.88-5.02,9.07-8.75,12.79-3.73,3.73-7.91,6.6-12.79,8.75-4.56,2.02-9.46,3-14.96,3H223.55l-20.41,20.5-20.41,20.5h171.41c11.18,0,21.79-2.19,31.53-6.5,9.46-4.17,17.94-9.98,25.22-17.25,7.26-7.27,13.06-15.75,17.25-25.22,4.31-9.76,6.5-20.37,6.5-31.53s-2.18-21.26-6.5-31.05Zm7.56,164.91c-4.19-9.7-10.02-18.31-17.31-25.61-7.26-7.25-15.74-13.06-25.23-17.26-2.62-1.16-5.31-2.16-8.05-3.01l-12.59,17.98-13.68,19.54h2.8c5.49,0,10.39,.98,14.95,2.99,4.9,2.17,9.08,5.03,12.8,8.76,3.68,3.67,6.52,7.89,8.68,12.87,2.06,4.79,3.07,9.82,3.07,15.38,0,10.69-3.68,19.14-11.55,26.57-3.76,3.54-7.96,6.17-12.84,8.06-4.71,1.82-9.35,2.6-14.21,2.39l-.45-.02H223.64l-41,41h178.59c.94,.03,1.88,.05,2.82,.05,9.35,0,18.57-1.74,27.47-5.18,9.77-3.77,18.58-9.3,26.19-16.46,16.21-15.3,24.43-34.28,24.43-56.41,0-11.1-2.16-21.73-6.44-31.64Zm0,0c-4.19-9.7-10.02-18.31-17.31-25.61-7.26-7.25-15.74-13.06-25.23-17.26-2.62-1.16-5.31-2.16-8.05-3.01l-12.59,17.98-13.68,19.54h2.8c5.49,0,10.39,.98,14.95,2.99,4.9,2.17,9.08,5.03,12.8,8.76,3.68,3.67,6.52,7.89,8.68,12.87,2.06,4.79,3.07,9.82,3.07,15.38,0,10.69-3.68,19.14-11.55,26.57-3.76,3.54-7.96,6.17-12.84,8.06-4.71,1.82-9.35,2.6-14.21,2.39l-.45-.02H223.64l-41,41h178.59c.94,.03,1.88,.05,2.82,.05,9.35,0,18.57-1.74,27.47-5.18,9.77-3.77,18.58-9.3,26.19-16.46,16.21-15.3,24.43-34.28,24.43-56.41,0-11.1-2.16-21.73-6.44-31.64Zm-7.56-164.91c-4.19-9.44-10.07-18-17.49-25.44l-.47-.45c-7.25-6.8-15.67-12.15-25.07-15.91l-13.52,17.01-14.55,18.31c4.05,.11,8.04,.92,12.1,2.45,4.89,1.85,9.05,4.4,12.73,7.8,3.78,3.84,6.66,8.04,8.76,12.8,2.03,4.59,3.01,9.32,3.01,14.48,0,5.5-.98,10.39-3,14.96-2.16,4.88-5.02,9.07-8.75,12.79-3.73,3.73-7.91,6.6-12.79,8.75-4.56,2.02-9.46,3-14.96,3H223.55l-20.41,20.5-20.41,20.5h171.41c11.18,0,21.79-2.19,31.53-6.5,9.46-4.17,17.94-9.98,25.22-17.25,7.26-7.27,13.06-15.75,17.25-25.22,4.31-9.76,6.5-20.37,6.5-31.53s-2.18-21.26-6.5-31.05Zm0,0c-4.19-9.44-10.07-18-17.49-25.44l-.47-.45c-7.25-6.8-15.67-12.15-25.07-15.91l-13.52,17.01-14.55,18.31c4.05,.11,8.04,.92,12.1,2.45,4.89,1.85,9.05,4.4,12.73,7.8,3.78,3.84,6.66,8.04,8.76,12.8,2.03,4.59,3.01,9.32,3.01,14.48,0,5.5-.98,10.39-3,14.96-2.16,4.88-5.02,9.07-8.75,12.79-3.73,3.73-7.91,6.6-12.79,8.75-4.56,2.02-9.46,3-14.96,3H223.55l-20.41,20.5-20.41,20.5h171.41c11.18,0,21.79-2.19,31.53-6.5,9.46-4.17,17.94-9.98,25.22-17.25,7.26-7.27,13.06-15.75,17.25-25.22,4.31-9.76,6.5-20.37,6.5-31.53s-2.18-21.26-6.5-31.05Zm7.56,164.91c-4.19-9.7-10.02-18.31-17.31-25.61-7.26-7.25-15.74-13.06-25.23-17.26-2.62-1.16-5.31-2.16-8.05-3.01l-12.59,17.98-13.68,19.54h2.8c5.49,0,10.39,.98,14.95,2.99,4.9,2.17,9.08,5.03,12.8,8.76,3.68,3.67,6.52,7.89,8.68,12.87,2.06,4.79,3.07,9.82,3.07,15.38,0,10.69-3.68,19.14-11.55,26.57-3.76,3.54-7.96,6.17-12.84,8.06-4.71,1.82-9.35,2.6-14.21,2.39l-.45-.02H223.64l-41,41h178.59c.94,.03,1.88,.05,2.82,.05,9.35,0,18.57-1.74,27.47-5.18,9.77-3.77,18.58-9.3,26.19-16.46,16.21-15.3,24.43-34.28,24.43-56.41,0-11.1-2.16-21.73-6.44-31.64Zm0,0c-4.19-9.7-10.02-18.31-17.31-25.61-7.26-7.25-15.74-13.06-25.23-17.26-2.62-1.16-5.31-2.16-8.05-3.01l-12.59,17.98-13.68,19.54h2.8c5.49,0,10.39,.98,14.95,2.99,4.9,2.17,9.08,5.03,12.8,8.76,3.68,3.67,6.52,7.89,8.68,12.87,2.06,4.79,3.07,9.82,3.07,15.38,0,10.69-3.68,19.14-11.55,26.57-3.76,3.54-7.96,6.17-12.84,8.06-4.71,1.82-9.35,2.6-14.21,2.39l-.45-.02H223.64l-41,41h178.59c.94,.03,1.88,.05,2.82,.05,9.35,0,18.57-1.74,27.47-5.18,9.77-3.77,18.58-9.3,26.19-16.46,16.21-15.3,24.43-34.28,24.43-56.41,0-11.1-2.16-21.73-6.44-31.64Zm-7.56-164.91c-4.19-9.44-10.07-18-17.49-25.44l-.47-.45c-7.25-6.8-15.67-12.15-25.07-15.91l-13.52,17.01-14.55,18.31c4.05,.11,8.04,.92,12.1,2.45,4.89,1.85,9.05,4.4,12.73,7.8,3.78,3.84,6.66,8.04,8.76,12.8,2.03,4.59,3.01,9.32,3.01,14.48,0,5.5-.98,10.39-3,14.96-2.16,4.88-5.02,9.07-8.75,12.79-3.73,3.73-7.91,6.6-12.79,8.75-4.56,2.02-9.46,3-14.96,3H223.55l-20.41,20.5-20.41,20.5h171.41c11.18,0,21.79-2.19,31.53-6.5,9.46-4.17,17.94-9.98,25.22-17.25,7.26-7.27,13.06-15.75,17.25-25.22,4.31-9.76,6.5-20.37,6.5-31.53s-2.18-21.26-6.5-31.05Zm7.56,164.91c-4.19-9.7-10.02-18.31-17.31-25.61-7.26-7.25-15.74-13.06-25.23-17.26-2.62-1.16-5.31-2.16-8.05-3.01l-12.59,17.98-13.68,19.54h2.8c5.49,0,10.39,.98,14.95,2.99,4.9,2.17,9.08,5.03,12.8,8.76,3.68,3.67,6.52,7.89,8.68,12.87,2.06,4.79,3.07,9.82,3.07,15.38,0,10.69-3.68,19.14-11.55,26.57-3.76,3.54-7.96,6.17-12.84,8.06-4.71,1.82-9.35,2.6-14.21,2.39l-.45-.02H223.64l-41,41h178.59c.94,.03,1.88,.05,2.82,.05,9.35,0,18.57-1.74,27.47-5.18,9.77-3.77,18.58-9.3,26.19-16.46,16.21-15.3,24.43-34.28,24.43-56.41,0-11.1-2.16-21.73-6.44-31.64Zm-7.56-164.91c-4.19-9.44-10.07-18-17.49-25.44l-.47-.45c-7.25-6.8-15.67-12.15-25.07-15.91l-13.52,17.01-14.55,18.31c4.05,.11,8.04,.92,12.1,2.45,4.89,1.85,9.05,4.4,12.73,7.8,3.78,3.84,6.66,8.04,8.76,12.8,2.03,4.59,3.01,9.32,3.01,14.48,0,5.5-.98,10.39-3,14.96-2.16,4.88-5.02,9.07-8.75,12.79-3.73,3.73-7.91,6.6-12.79,8.75-4.56,2.02-9.46,3-14.96,3H223.55l-20.41,20.5-20.41,20.5h171.41c11.18,0,21.79-2.19,31.53-6.5,9.46-4.17,17.94-9.98,25.22-17.25,7.26-7.27,13.06-15.75,17.25-25.22,4.31-9.76,6.5-20.37,6.5-31.53s-2.18-21.26-6.5-31.05Zm-26.6-84.22c-15.29-6.15-31.5-9.08-48.13-8.73H180.14c-11.93,0-22.57,4.51-30.76,13.03-8.01,8.3-12.24,18.67-12.24,30l.5,326.47c0,11.63,4.23,22.16,12.22,30.46,8.21,8.53,18.85,13.04,30.78,13.04h180.77c.92,.02,1.84,.03,2.76,.03,7.09,0,14.08-.6,20.94-1.81l-12.74-19.02-13.53-20.2H180.64c-.56,0-.78-.07-.78-.07,0-.01-.16-.09-.46-.4-.57-.6-.76-.89-.76-2.06l-.5-326.47c0-.52,0-.73,.78-1.54,.28-.3,.43-.38,.43-.38,.01-.01,.23-.08,.79-.08h173.98c11.3-.25,21.8,1.62,32.11,5.76,.6,.24,1.19,.49,1.78,.75l13.13-16.52,13-16.36c-4.07-2.19-8.27-4.16-12.6-5.9Zm26.6,84.22c-4.19-9.44-10.07-18-17.49-25.44l-.47-.45c-7.25-6.8-15.67-12.15-25.07-15.91l-13.52,17.01-14.55,18.31c4.05,.11,8.04,.92,12.1,2.45,4.89,1.85,9.05,4.4,12.73,7.8,3.78,3.84,6.66,8.04,8.76,12.8,2.03,4.59,3.01,9.32,3.01,14.48,0,5.5-.98,10.39-3,14.96-2.16,4.88-5.02,9.07-8.75,12.79-3.73,3.73-7.91,6.6-12.79,8.75-4.56,2.02-9.46,3-14.96,3H223.55l-20.41,20.5-20.41,20.5h171.41c11.18,0,21.79-2.19,31.53-6.5,9.46-4.17,17.94-9.98,25.22-17.25,7.26-7.27,13.06-15.75,17.25-25.22,4.31-9.76,6.5-20.37,6.5-31.53s-2.18-21.26-6.5-31.05Zm7.56,164.91c-4.19-9.7-10.02-18.31-17.31-25.61-7.26-7.25-15.74-13.06-25.23-17.26-2.62-1.16-5.31-2.16-8.05-3.01l-12.59,17.98-13.68,19.54h2.8c5.49,0,10.39,.98,14.95,2.99,4.9,2.17,9.08,5.03,12.8,8.76,3.68,3.67,6.52,7.89,8.68,12.87,2.06,4.79,3.07,9.82,3.07,15.38,0,10.69-3.68,19.14-11.55,26.57-3.76,3.54-7.96,6.17-12.84,8.06-4.71,1.82-9.35,2.6-14.21,2.39l-.45-.02H223.64l-41,41h178.59c.94,.03,1.88,.05,2.82,.05,9.35,0,18.57-1.74,27.47-5.18,9.77-3.77,18.58-9.3,26.19-16.46,16.21-15.3,24.43-34.28,24.43-56.41,0-11.1-2.16-21.73-6.44-31.64Zm0,0c-4.19-9.7-10.02-18.31-17.31-25.61-7.26-7.25-15.74-13.06-25.23-17.26-2.62-1.16-5.31-2.16-8.05-3.01l-12.59,17.98-13.68,19.54h2.8c5.49,0,10.39,.98,14.95,2.99,4.9,2.17,9.08,5.03,12.8,8.76,3.68,3.67,6.52,7.89,8.68,12.87,2.06,4.79,3.07,9.82,3.07,15.38,0,10.69-3.68,19.14-11.55,26.57-3.76,3.54-7.96,6.17-12.84,8.06-4.71,1.82-9.35,2.6-14.21,2.39l-.45-.02H223.64l-41,41h178.59c.94,.03,1.88,.05,2.82,.05,9.35,0,18.57-1.74,27.47-5.18,9.77-3.77,18.58-9.3,26.19-16.46,16.21-15.3,24.43-34.28,24.43-56.41,0-11.1-2.16-21.73-6.44-31.64Zm-7.56-164.91c-4.19-9.44-10.07-18-17.49-25.44l-.47-.45c-7.25-6.8-15.67-12.15-25.07-15.91l-13.52,17.01-14.55,18.31c4.05,.11,8.04,.92,12.1,2.45,4.89,1.85,9.05,4.4,12.73,7.8,3.78,3.84,6.66,8.04,8.76,12.8,2.03,4.59,3.01,9.32,3.01,14.48,0,5.5-.98,10.39-3,14.96-2.16,4.88-5.02,9.07-8.75,12.79-3.73,3.73-7.91,6.6-12.79,8.75-4.56,2.02-9.46,3-14.96,3H223.55l-20.41,20.5-20.41,20.5h171.41c11.18,0,21.79-2.19,31.53-6.5,9.46-4.17,17.94-9.98,25.22-17.25,7.26-7.27,13.06-15.75,17.25-25.22,4.31-9.76,6.5-20.37,6.5-31.53s-2.18-21.26-6.5-31.05Zm0,0c-4.19-9.44-10.07-18-17.49-25.44l-.47-.45c-7.25-6.8-15.67-12.15-25.07-15.91l-13.52,17.01-14.55,18.31c4.05,.11,8.04,.92,12.1,2.45,4.89,1.85,9.05,4.4,12.73,7.8,3.78,3.84,6.66,8.04,8.76,12.8,2.03,4.59,3.01,9.32,3.01,14.48,0,5.5-.98,10.39-3,14.96-2.16,4.88-5.02,9.07-8.75,12.79-3.73,3.73-7.91,6.6-12.79,8.75-4.56,2.02-9.46,3-14.96,3H223.55l-20.41,20.5-20.41,20.5h171.41c11.18,0,21.79-2.19,31.53-6.5,9.46-4.17,17.94-9.98,25.22-17.25,7.26-7.27,13.06-15.75,17.25-25.22,4.31-9.76,6.5-20.37,6.5-31.53s-2.18-21.26-6.5-31.05Zm7.56,164.91c-4.19-9.7-10.02-18.31-17.31-25.61-7.26-7.25-15.74-13.06-25.23-17.26-2.62-1.16-5.31-2.16-8.05-3.01l-12.59,17.98-13.68,19.54h2.8c5.49,0,10.39,.98,14.95,2.99,4.9,2.17,9.08,5.03,12.8,8.76,3.68,3.67,6.52,7.89,8.68,12.87,2.06,4.79,3.07,9.82,3.07,15.38,0,10.69-3.68,19.14-11.55,26.57-3.76,3.54-7.96,6.17-12.84,8.06-4.71,1.82-9.35,2.6-14.21,2.39l-.45-.02H223.64l-41,41h178.59c.94,.03,1.88,.05,2.82,.05,9.35,0,18.57-1.74,27.47-5.18,9.77-3.77,18.58-9.3,26.19-16.46,16.21-15.3,24.43-34.28,24.43-56.41,0-11.1-2.16-21.73-6.44-31.64Zm0,0c-4.19-9.7-10.02-18.31-17.31-25.61-7.26-7.25-15.74-13.06-25.23-17.26-2.62-1.16-5.31-2.16-8.05-3.01l-12.59,17.98-13.68,19.54h2.8c5.49,0,10.39,.98,14.95,2.99,4.9,2.17,9.08,5.03,12.8,8.76,3.68,3.67,6.52,7.89,8.68,12.87,2.06,4.79,3.07,9.82,3.07,15.38,0,10.69-3.68,19.14-11.55,26.57-3.76,3.54-7.96,6.17-12.84,8.06-4.71,1.82-9.35,2.6-14.21,2.39l-.45-.02H223.64l-41,41h178.59c.94,.03,1.88,.05,2.82,.05,9.35,0,18.57-1.74,27.47-5.18,9.77-3.77,18.58-9.3,26.19-16.46,16.21-15.3,24.43-34.28,24.43-56.41,0-11.1-2.16-21.73-6.44-31.64Zm-7.56-164.91c-4.19-9.44-10.07-18-17.49-25.44l-.47-.45c-7.25-6.8-15.67-12.15-25.07-15.91l-13.52,17.01-14.55,18.31c4.05,.11,8.04,.92,12.1,2.45,4.89,1.85,9.05,4.4,12.73,7.8,3.78,3.84,6.66,8.04,8.76,12.8,2.03,4.59,3.01,9.32,3.01,14.48,0,5.5-.98,10.39-3,14.96-2.16,4.88-5.02,9.07-8.75,12.79-3.73,3.73-7.91,6.6-12.79,8.75-4.56,2.02-9.46,3-14.96,3H223.55l-20.41,20.5-20.41,20.5h171.41c11.18,0,21.79-2.19,31.53-6.5,9.46-4.17,17.94-9.98,25.22-17.25,7.26-7.27,13.06-15.75,17.25-25.22,4.31-9.76,6.5-20.37,6.5-31.53s-2.18-21.26-6.5-31.05Z"/>
          <path class="cls-3" d="M385.11,284.9l-12.59,17.98-13.68,19.54H223.64l-41-41h179c8.15,0,16.02,1.17,23.47,3.48Z"/>
          <path class="cls-3" d="M487.14,362.42c0,16.67-3.23,32.8-9.6,47.95-6.4,15.18-15.7,28.74-27.65,40.29-10.57,10.22-22.58,18.43-35.75,24.43-1.57,.72-3.16,1.41-4.76,2.06-7.84,3.2-15.96,5.54-24.27,6.99l-12.74-19.02-13.53-20.2h3.29c7.73,.19,15.05-.64,22.17-2.52,3.24-.85,6.43-1.92,9.59-3.21,10.19-4.15,19.44-10.21,27.5-18.01,8.06-7.79,14.07-16.53,18.36-26.72,4.24-10.08,6.39-20.86,6.39-32.04,0-13.86-3.04-26.62-9.3-39.01-6.21-12.28-14.75-22.19-26.11-30.31l-21.3-15.21,19.87-17.03c9.47-8.13,16.57-17.52,21.7-28.73,5.14-11.23,7.64-22.75,7.64-35.21,0-11.3-2.16-21.82-6.59-32.18-4.42-10.29-10.57-19.45-18.28-27.2-7.54-7.26-16.2-13.01-25.76-17.11l13.13-16.52,13-16.36c10.29,5.51,19.75,12.42,28.25,20.63l.25,.25c11.47,11.48,20.59,24.99,27.09,40.16,6.58,15.35,9.91,31.61,9.91,48.33,0,18.22-3.82,35.81-11.36,52.28-4.27,9.33-9.6,17.98-15.94,25.89,8.44,8.8,15.5,18.77,21.09,29.82,9.1,18.02,13.71,37.36,13.71,57.51Z"/>
          <path class="cls-3" d="M385.11,124.07l-13.52,17.01-14.55,18.31c-.83-.03-1.68-.03-2.52,.01l-.88,.02H223.23l-20.59-20.5-20.59-20.5h171.19c10.25-.37,20.47,1.33,30.38,5.07,.5,.19,1,.38,1.49,.58Z"/>
          <polygon class="cls-3" points="223.64 322.42 223.64 399.42 182.64 440.42 182.64 281.42 223.64 322.42"/>
          <polygon class="cls-3" points="223.55 236.42 203.14 256.92 182.73 277.42 182.05 118.42 202.64 138.92 223.23 159.42 223.55 236.42"/>
          <line class="cls-3" x1="388.01" y1="120.43" x2="385.11" y2="124.07"/>
        </g>
      </g>
      <path class="cls-5" d="M434.84,321.41c-6.21-12.28-14.75-22.19-26.11-30.31l-21.3-15.21,19.87-17.03c9.47-8.13,16.57-17.52,21.7-28.73,5.14-11.23,7.64-22.75,7.64-35.21,0-11.3-2.16-21.82-6.59-32.18-4.42-10.29-10.57-19.45-18.28-27.2-7.54-7.26-16.2-13.01-25.76-17.11l13.13-16.52c-2.37-1.17-4.78-2.24-7.25-3.24-12.84-5.16-26.25-7.58-40.25-7.25H178.14c-6.34,0-11.67,2.25-16,6.75-4.34,4.5-6.5,9.75-6.5,15.75l.5,326.5c0,6.34,2.16,11.75,6.5,16.25,4.33,4.5,9.66,6.75,16,6.75h181c3.62,.09,7.2-.01,10.73-.3l-13.53-20.2h3.29c7.73,.19,15.05-.64,22.17-2.52,3.24-.85,6.43-1.92,9.59-3.21,10.19-4.15,19.44-10.21,27.5-18.01,8.06-7.79,14.07-16.53,18.36-26.72,4.24-10.08,6.39-20.86,6.39-32.04,0-13.86-3.04-26.62-9.3-39.01Zm-33.2,80.51c-5.67,5.34-12.17,9.42-19.5,12.25-7.34,2.84-14.84,4.09-22.5,3.75H201.14l-20.5,20.5v-159h179c8.15,0,16.02,1.17,23.47,3.48l-12.59,17.98c4.3,.79,8.42,2.05,12.37,3.79,7.16,3.17,13.5,7.5,19,13s9.83,11.92,13,19.25c3.16,7.34,4.75,15.17,4.75,23.5,0,16.34-6,30.17-18,41.5Zm-50.4-285.5c10.25-.37,20.47,1.33,30.38,5.07,.5,.19,1,.38,1.49,.58l-13.52,17.01c1.6,.46,3.2,.99,4.8,1.59,7.5,2.84,14.08,6.92,19.75,12.25,5.66,5.67,10.08,12.09,13.25,19.25,3.16,7.17,4.75,14.75,4.75,22.75s-1.59,16.09-4.75,23.25c-3.17,7.17-7.5,13.5-13,19s-11.84,9.84-19,13c-7.17,3.17-14.92,4.75-23.25,4.75H201.14l-20.41,20.5-.68-159h171.19Z"/>
      <path class="cls-2" d="M426.14,163.87c-4.19-9.44-10.07-18-17.49-25.44l-.47-.45c-7.25-6.8-15.67-12.15-25.07-15.91l-13.52,17.01-14.55,18.31c4.05,.11,8.04,.92,12.1,2.45,4.89,1.85,9.05,4.4,12.73,7.8,3.78,3.84,6.66,8.04,8.76,12.8,2.03,4.59,3.01,9.32,3.01,14.48,0,5.5-.98,10.39-3,14.96-2.16,4.88-5.02,9.07-8.75,12.79-3.73,3.73-7.91,6.6-12.79,8.75-4.56,2.02-9.46,3-14.96,3H221.55l-20.41,20.5-20.41,20.5h171.41c11.18,0,21.79-2.19,31.53-6.5,9.46-4.17,17.94-9.98,25.22-17.25,7.26-7.27,13.06-15.75,17.25-25.22,4.31-9.76,6.5-20.37,6.5-31.53s-2.18-21.26-6.5-31.05Zm7.56,164.91c-4.19-9.7-10.02-18.31-17.31-25.61-7.26-7.25-15.74-13.06-25.23-17.26-2.62-1.16-5.31-2.16-8.05-3.01l-12.59,17.98-13.68,19.54h2.8c5.49,0,10.39,.98,14.95,2.99,4.9,2.17,9.08,5.03,12.8,8.76,3.68,3.67,6.52,7.89,8.68,12.87,2.06,4.79,3.07,9.82,3.07,15.38,0,10.69-3.68,19.14-11.55,26.57-3.76,3.54-7.96,6.17-12.84,8.06-4.71,1.82-9.35,2.6-14.21,2.39l-.45-.02H221.64l-41,41h178.59c.94,.03,1.88,.05,2.82,.05,9.35,0,18.57-1.74,27.47-5.18,9.77-3.77,18.58-9.3,26.19-16.46,16.21-15.3,24.43-34.28,24.43-56.41,0-11.1-2.16-21.73-6.44-31.64Zm0,0c-4.19-9.7-10.02-18.31-17.31-25.61-7.26-7.25-15.74-13.06-25.23-17.26-2.62-1.16-5.31-2.16-8.05-3.01l-12.59,17.98-13.68,19.54h2.8c5.49,0,10.39,.98,14.95,2.99,4.9,2.17,9.08,5.03,12.8,8.76,3.68,3.67,6.52,7.89,8.68,12.87,2.06,4.79,3.07,9.82,3.07,15.38,0,10.69-3.68,19.14-11.55,26.57-3.76,3.54-7.96,6.17-12.84,8.06-4.71,1.82-9.35,2.6-14.21,2.39l-.45-.02H221.64l-41,41h178.59c.94,.03,1.88,.05,2.82,.05,9.35,0,18.57-1.74,27.47-5.18,9.77-3.77,18.58-9.3,26.19-16.46,16.21-15.3,24.43-34.28,24.43-56.41,0-11.1-2.16-21.73-6.44-31.64Zm-7.56-164.91c-4.19-9.44-10.07-18-17.49-25.44l-.47-.45c-7.25-6.8-15.67-12.15-25.07-15.91l-13.52,17.01-14.55,18.31c4.05,.11,8.04,.92,12.1,2.45,4.89,1.85,9.05,4.4,12.73,7.8,3.78,3.84,6.66,8.04,8.76,12.8,2.03,4.59,3.01,9.32,3.01,14.48,0,5.5-.98,10.39-3,14.96-2.16,4.88-5.02,9.07-8.75,12.79-3.73,3.73-7.91,6.6-12.79,8.75-4.56,2.02-9.46,3-14.96,3H221.55l-20.41,20.5-20.41,20.5h171.41c11.18,0,21.79-2.19,31.53-6.5,9.46-4.17,17.94-9.98,25.22-17.25,7.26-7.27,13.06-15.75,17.25-25.22,4.31-9.76,6.5-20.37,6.5-31.53s-2.18-21.26-6.5-31.05Zm0,0c-4.19-9.44-10.07-18-17.49-25.44l-.47-.45c-7.25-6.8-15.67-12.15-25.07-15.91l-13.52,17.01-14.55,18.31c4.05,.11,8.04,.92,12.1,2.45,4.89,1.85,9.05,4.4,12.73,7.8,3.78,3.84,6.66,8.04,8.76,12.8,2.03,4.59,3.01,9.32,3.01,14.48,0,5.5-.98,10.39-3,14.96-2.16,4.88-5.02,9.07-8.75,12.79-3.73,3.73-7.91,6.6-12.79,8.75-4.56,2.02-9.46,3-14.96,3H221.55l-20.41,20.5-20.41,20.5h171.41c11.18,0,21.79-2.19,31.53-6.5,9.46-4.17,17.94-9.98,25.22-17.25,7.26-7.27,13.06-15.75,17.25-25.22,4.31-9.76,6.5-20.37,6.5-31.53s-2.18-21.26-6.5-31.05Zm7.56,164.91c-4.19-9.7-10.02-18.31-17.31-25.61-7.26-7.25-15.74-13.06-25.23-17.26-2.62-1.16-5.31-2.16-8.05-3.01l-12.59,17.98-13.68,19.54h2.8c5.49,0,10.39,.98,14.95,2.99,4.9,2.17,9.08,5.03,12.8,8.76,3.68,3.67,6.52,7.89,8.68,12.87,2.06,4.79,3.07,9.82,3.07,15.38,0,10.69-3.68,19.14-11.55,26.57-3.76,3.54-7.96,6.17-12.84,8.06-4.71,1.82-9.35,2.6-14.21,2.39l-.45-.02H221.64l-41,41h178.59c.94,.03,1.88,.05,2.82,.05,9.35,0,18.57-1.74,27.47-5.18,9.77-3.77,18.58-9.3,26.19-16.46,16.21-15.3,24.43-34.28,24.43-56.41,0-11.1-2.16-21.73-6.44-31.64Zm0,0c-4.19-9.7-10.02-18.31-17.31-25.61-7.26-7.25-15.74-13.06-25.23-17.26-2.62-1.16-5.31-2.16-8.05-3.01l-12.59,17.98-13.68,19.54h2.8c5.49,0,10.39,.98,14.95,2.99,4.9,2.17,9.08,5.03,12.8,8.76,3.68,3.67,6.52,7.89,8.68,12.87,2.06,4.79,3.07,9.82,3.07,15.38,0,10.69-3.68,19.14-11.55,26.57-3.76,3.54-7.96,6.17-12.84,8.06-4.71,1.82-9.35,2.6-14.21,2.39l-.45-.02H221.64l-41,41h178.59c.94,.03,1.88,.05,2.82,.05,9.35,0,18.57-1.74,27.47-5.18,9.77-3.77,18.58-9.3,26.19-16.46,16.21-15.3,24.43-34.28,24.43-56.41,0-11.1-2.16-21.73-6.44-31.64Zm-7.56-164.91c-4.19-9.44-10.07-18-17.49-25.44l-.47-.45c-7.25-6.8-15.67-12.15-25.07-15.91l-13.52,17.01-14.55,18.31c4.05,.11,8.04,.92,12.1,2.45,4.89,1.85,9.05,4.4,12.73,7.8,3.78,3.84,6.66,8.04,8.76,12.8,2.03,4.59,3.01,9.32,3.01,14.48,0,5.5-.98,10.39-3,14.96-2.16,4.88-5.02,9.07-8.75,12.79-3.73,3.73-7.91,6.6-12.79,8.75-4.56,2.02-9.46,3-14.96,3H221.55l-20.41,20.5-20.41,20.5h171.41c11.18,0,21.79-2.19,31.53-6.5,9.46-4.17,17.94-9.98,25.22-17.25,7.26-7.27,13.06-15.75,17.25-25.22,4.31-9.76,6.5-20.37,6.5-31.53s-2.18-21.26-6.5-31.05Zm7.56,164.91c-4.19-9.7-10.02-18.31-17.31-25.61-7.26-7.25-15.74-13.06-25.23-17.26-2.62-1.16-5.31-2.16-8.05-3.01l-12.59,17.98-13.68,19.54h2.8c5.49,0,10.39,.98,14.95,2.99,4.9,2.17,9.08,5.03,12.8,8.76,3.68,3.67,6.52,7.89,8.68,12.87,2.06,4.79,3.07,9.82,3.07,15.38,0,10.69-3.68,19.14-11.55,26.57-3.76,3.54-7.96,6.17-12.84,8.06-4.71,1.82-9.35,2.6-14.21,2.39l-.45-.02H221.64l-41,41h178.59c.94,.03,1.88,.05,2.82,.05,9.35,0,18.57-1.74,27.47-5.18,9.77-3.77,18.58-9.3,26.19-16.46,16.21-15.3,24.43-34.28,24.43-56.41,0-11.1-2.16-21.73-6.44-31.64Zm-7.56-164.91c-4.19-9.44-10.07-18-17.49-25.44l-.47-.45c-7.25-6.8-15.67-12.15-25.07-15.91l-13.52,17.01-14.55,18.31c4.05,.11,8.04,.92,12.1,2.45,4.89,1.85,9.05,4.4,12.73,7.8,3.78,3.84,6.66,8.04,8.76,12.8,2.03,4.59,3.01,9.32,3.01,14.48,0,5.5-.98,10.39-3,14.96-2.16,4.88-5.02,9.07-8.75,12.79-3.73,3.73-7.91,6.6-12.79,8.75-4.56,2.02-9.46,3-14.96,3H221.55l-20.41,20.5-20.41,20.5h171.41c11.18,0,21.79-2.19,31.53-6.5,9.46-4.17,17.94-9.98,25.22-17.25,7.26-7.27,13.06-15.75,17.25-25.22,4.31-9.76,6.5-20.37,6.5-31.53s-2.18-21.26-6.5-31.05Zm-26.6-84.22c-15.29-6.15-31.5-9.08-48.13-8.73H178.14c-11.93,0-22.57,4.51-30.76,13.03-8.01,8.3-12.24,18.67-12.24,30l.5,326.47c0,11.63,4.23,22.16,12.22,30.46,8.21,8.53,18.85,13.04,30.78,13.04h180.77c.92,.02,1.84,.03,2.76,.03,7.09,0,14.08-.6,20.94-1.81l-12.74-19.02-13.53-20.2H178.64c-.56,0-.78-.07-.78-.07,0-.01-.16-.09-.46-.4-.57-.6-.76-.89-.76-2.06l-.5-326.47c0-.52,0-.73,.78-1.54,.28-.3,.43-.38,.43-.38,.01-.01,.23-.08,.79-.08h173.98c11.3-.25,21.8,1.62,32.11,5.76,.6,.24,1.19,.49,1.78,.75l13.13-16.52,13-16.36c-4.07-2.19-8.27-4.16-12.6-5.9Zm26.6,84.22c-4.19-9.44-10.07-18-17.49-25.44l-.47-.45c-7.25-6.8-15.67-12.15-25.07-15.91l-13.52,17.01-14.55,18.31c4.05,.11,8.04,.92,12.1,2.45,4.89,1.85,9.05,4.4,12.73,7.8,3.78,3.84,6.66,8.04,8.76,12.8,2.03,4.59,3.01,9.32,3.01,14.48,0,5.5-.98,10.39-3,14.96-2.16,4.88-5.02,9.07-8.75,12.79-3.73,3.73-7.91,6.6-12.79,8.75-4.56,2.02-9.46,3-14.96,3H221.55l-20.41,20.5-20.41,20.5h171.41c11.18,0,21.79-2.19,31.53-6.5,9.46-4.17,17.94-9.98,25.22-17.25,7.26-7.27,13.06-15.75,17.25-25.22,4.31-9.76,6.5-20.37,6.5-31.53s-2.18-21.26-6.5-31.05Zm7.56,164.91c-4.19-9.7-10.02-18.31-17.31-25.61-7.26-7.25-15.74-13.06-25.23-17.26-2.62-1.16-5.31-2.16-8.05-3.01l-12.59,17.98-13.68,19.54h2.8c5.49,0,10.39,.98,14.95,2.99,4.9,2.17,9.08,5.03,12.8,8.76,3.68,3.67,6.52,7.89,8.68,12.87,2.06,4.79,3.07,9.82,3.07,15.38,0,10.69-3.68,19.14-11.55,26.57-3.76,3.54-7.96,6.17-12.84,8.06-4.71,1.82-9.35,2.6-14.21,2.39l-.45-.02H221.64l-41,41h178.59c.94,.03,1.88,.05,2.82,.05,9.35,0,18.57-1.74,27.47-5.18,9.77-3.77,18.58-9.3,26.19-16.46,16.21-15.3,24.43-34.28,24.43-56.41,0-11.1-2.16-21.73-6.44-31.64Zm0,0c-4.19-9.7-10.02-18.31-17.31-25.61-7.26-7.25-15.74-13.06-25.23-17.26-2.62-1.16-5.31-2.16-8.05-3.01l-12.59,17.98-13.68,19.54h2.8c5.49,0,10.39,.98,14.95,2.99,4.9,2.17,9.08,5.03,12.8,8.76,3.68,3.67,6.52,7.89,8.68,12.87,2.06,4.79,3.07,9.82,3.07,15.38,0,10.69-3.68,19.14-11.55,26.57-3.76,3.54-7.96,6.17-12.84,8.06-4.71,1.82-9.35,2.6-14.21,2.39l-.45-.02H221.64l-41,41h178.59c.94,.03,1.88,.05,2.82,.05,9.35,0,18.57-1.74,27.47-5.18,9.77-3.77,18.58-9.3,26.19-16.46,16.21-15.3,24.43-34.28,24.43-56.41,0-11.1-2.16-21.73-6.44-31.64Zm-7.56-164.91c-4.19-9.44-10.07-18-17.49-25.44l-.47-.45c-7.25-6.8-15.67-12.15-25.07-15.91l-13.52,17.01-14.55,18.31c4.05,.11,8.04,.92,12.1,2.45,4.89,1.85,9.05,4.4,12.73,7.8,3.78,3.84,6.66,8.04,8.76,12.8,2.03,4.59,3.01,9.32,3.01,14.48,0,5.5-.98,10.39-3,14.96-2.16,4.88-5.02,9.07-8.75,12.79-3.73,3.73-7.91,6.6-12.79,8.75-4.56,2.02-9.46,3-14.96,3H221.55l-20.41,20.5-20.41,20.5h171.41c11.18,0,21.79-2.19,31.53-6.5,9.46-4.17,17.94-9.98,25.22-17.25,7.26-7.27,13.06-15.75,17.25-25.22,4.31-9.76,6.5-20.37,6.5-31.53s-2.18-21.26-6.5-31.05Zm0,0c-4.19-9.44-10.07-18-17.49-25.44l-.47-.45c-7.25-6.8-15.67-12.15-25.07-15.91l-13.52,17.01-14.55,18.31c4.05,.11,8.04,.92,12.1,2.45,4.89,1.85,9.05,4.4,12.73,7.8,3.78,3.84,6.66,8.04,8.76,12.8,2.03,4.59,3.01,9.32,3.01,14.48,0,5.5-.98,10.39-3,14.96-2.16,4.88-5.02,9.07-8.75,12.79-3.73,3.73-7.91,6.6-12.79,8.75-4.56,2.02-9.46,3-14.96,3H221.55l-20.41,20.5-20.41,20.5h171.41c11.18,0,21.79-2.19,31.53-6.5,9.46-4.17,17.94-9.98,25.22-17.25,7.26-7.27,13.06-15.75,17.25-25.22,4.31-9.76,6.5-20.37,6.5-31.53s-2.18-21.26-6.5-31.05Zm7.56,164.91c-4.19-9.7-10.02-18.31-17.31-25.61-7.26-7.25-15.74-13.06-25.23-17.26-2.62-1.16-5.31-2.16-8.05-3.01l-12.59,17.98-13.68,19.54h2.8c5.49,0,10.39,.98,14.95,2.99,4.9,2.17,9.08,5.03,12.8,8.76,3.68,3.67,6.52,7.89,8.68,12.87,2.06,4.79,3.07,9.82,3.07,15.38,0,10.69-3.68,19.14-11.55,26.57-3.76,3.54-7.96,6.17-12.84,8.06-4.71,1.82-9.35,2.6-14.21,2.39l-.45-.02H221.64l-41,41h178.59c.94,.03,1.88,.05,2.82,.05,9.35,0,18.57-1.74,27.47-5.18,9.77-3.77,18.58-9.3,26.19-16.46,16.21-15.3,24.43-34.28,24.43-56.41,0-11.1-2.16-21.73-6.44-31.64Zm0,0c-4.19-9.7-10.02-18.31-17.31-25.61-7.26-7.25-15.74-13.06-25.23-17.26-2.62-1.16-5.31-2.16-8.05-3.01l-12.59,17.98-13.68,19.54h2.8c5.49,0,10.39,.98,14.95,2.99,4.9,2.17,9.08,5.03,12.8,8.76,3.68,3.67,6.52,7.89,8.68,12.87,2.06,4.79,3.07,9.82,3.07,15.38,0,10.69-3.68,19.14-11.55,26.57-3.76,3.54-7.96,6.17-12.84,8.06-4.71,1.82-9.35,2.6-14.21,2.39l-.45-.02H221.64l-41,41h178.59c.94,.03,1.88,.05,2.82,.05,9.35,0,18.57-1.74,27.47-5.18,9.77-3.77,18.58-9.3,26.19-16.46,16.21-15.3,24.43-34.28,24.43-56.41,0-11.1-2.16-21.73-6.44-31.64Zm-7.56-164.91c-4.19-9.44-10.07-18-17.49-25.44l-.47-.45c-7.25-6.8-15.67-12.15-25.07-15.91l-13.52,17.01-14.55,18.31c4.05,.11,8.04,.92,12.1,2.45,4.89,1.85,9.05,4.4,12.73,7.8,3.78,3.84,6.66,8.04,8.76,12.8,2.03,4.59,3.01,9.32,3.01,14.48,0,5.5-.98,10.39-3,14.96-2.16,4.88-5.02,9.07-8.75,12.79-3.73,3.73-7.91,6.6-12.79,8.75-4.56,2.02-9.46,3-14.96,3H221.55l-20.41,20.5-20.41,20.5h171.41c11.18,0,21.79-2.19,31.53-6.5,9.46-4.17,17.94-9.98,25.22-17.25,7.26-7.27,13.06-15.75,17.25-25.22,4.31-9.76,6.5-20.37,6.5-31.53s-2.18-21.26-6.5-31.05Z"/>
      <path class="cls-7" d="M383.11,282.9l-12.59,17.98-13.68,19.54H221.64l-41-41h179c8.15,0,16.02,1.17,23.47,3.48Z"/>
      <path class="cls-6" d="M485.14,360.42c0,16.67-3.23,32.8-9.6,47.95-6.4,15.18-15.7,28.74-27.65,40.29-10.57,10.22-22.58,18.43-35.75,24.43-1.57,.72-3.16,1.41-4.76,2.06-7.84,3.2-15.96,5.54-24.27,6.99l-12.74-19.02-13.53-20.2h3.29c7.73,.19,15.05-.64,22.17-2.52,3.24-.85,6.43-1.92,9.59-3.21,10.19-4.15,19.44-10.21,27.5-18.01,8.06-7.79,14.07-16.53,18.36-26.72,4.24-10.08,6.39-20.86,6.39-32.04,0-13.86-3.04-26.62-9.3-39.01-6.21-12.28-14.75-22.19-26.11-30.31l-21.3-15.21,19.87-17.03c9.47-8.13,16.57-17.52,21.7-28.73,5.14-11.23,7.64-22.75,7.64-35.21,0-11.3-2.16-21.82-6.59-32.18-4.42-10.29-10.57-19.45-18.28-27.2-7.54-7.26-16.2-13.01-25.76-17.11l13.13-16.52,13-16.36c10.29,5.51,19.75,12.42,28.25,20.63l.25,.25c11.47,11.48,20.59,24.99,27.09,40.16,6.58,15.35,9.91,31.61,9.91,48.33,0,18.22-3.82,35.81-11.36,52.28-4.27,9.33-9.6,17.98-15.94,25.89,8.44,8.8,15.5,18.77,21.09,29.82,9.1,18.02,13.71,37.36,13.71,57.51Z"/>
      <path class="cls-7" d="M383.11,122.07l-13.52,17.01-14.55,18.31c-.83-.03-1.68-.03-2.52,.01l-.88,.02H221.23l-20.59-20.5-20.59-20.5h171.19c10.25-.37,20.47,1.33,30.38,5.07,.5,.19,1,.38,1.49,.58Z"/>
      <polygon class="cls-6" points="221.64 320.42 221.64 397.42 180.64 438.42 180.64 279.42 221.64 320.42"/>
      <polygon class="cls-6" points="221.55 234.42 201.14 254.92 180.73 275.42 180.05 116.42 200.64 136.92 221.23 157.42 221.55 234.42"/>
      <line class="cls-1" x1="386.01" y1="118.43" x2="383.11" y2="122.07"/>
    </g>
    <text class="cls-4" transform="translate(628.06 383.72)"><tspan x="0" y="0">bonpello</tspan></text>
    <circle class="cls-3" cx="777.29" cy="251" r="10.29"/>
    <circle class="cls-3" cx="806.71" cy="251" r="10.29"/>
  </g>
</svg>