<?xml version="1.0" standalone="no"?>
<!DOCTYPE svg PUBLIC "-//W3C//DTD SVG 20010904//EN"
 "http://www.w3.org/TR/2001/REC-SVG-20010904/DTD/svg10.dtd">
<svg version="1.0" xmlns="http://www.w3.org/2000/svg"
 width="501.000000pt" height="501.000000pt" viewBox="0 0 501.000000 501.000000"
 preserveAspectRatio="xMidYMid meet">
<metadata>
Created by potrace 1.14, written by Peter Selinger 2001-2017
</metadata>
<g transform="translate(0.000000,501.000000) scale(0.100000,-0.100000)"
fill="#000000" stroke="none">
<path d="M1088 4575 c-3 -3 -16 -8 -29 -10 -41 -8 -122 -51 -167 -90 -52 -45
-94 -105 -123 -176 -22 -53 -23 -65 -24 -436 0 -210 -4 -385 -8 -389 -3 -4 -3
-14 1 -23 9 -20 9 -1082 -1 -1097 -3 -6 -4 -14 0 -18 12 -12 12 -56 0 -56 -9
0 -9 -2 -1 -8 15 -10 15 -624 0 -634 -8 -5 -8 -8 0 -8 7 0 11 -124 11 -404 0
-396 6 -478 34 -511 5 -5 9 -17 9 -26 0 -10 10 -30 23 -45 31 -39 160 -170
164 -166 8 6 24 1 19 -7 -3 -5 0 -9 7 -8 36 1 47 -7 73 -50 15 -27 36 -55 46
-64 9 -9 15 -19 11 -23 -3 -3 -1 -6 6 -6 6 0 22 -10 35 -23 43 -41 61 -52 103
-66 23 -8 40 -18 37 -22 -3 -5 3 -8 13 -7 53 4 94 -3 87 -14 -6 -10 -5 -10 7
-1 12 10 18 10 29 0 10 -9 11 -9 6 1 -5 7 -1 12 9 12 10 0 14 -5 9 -12 -6 -10
-4 -10 7 -1 17 17 32 17 23 1 -5 -9 -2 -9 9 1 13 10 17 10 17 1 0 -9 4 -9 13
-2 17 15 53 8 49 -9 -2 -9 3 -8 16 4 20 19 37 23 27 7 -3 -5 -1 -10 4 -10 6 0
11 4 11 8 0 4 18 8 40 8 34 0 38 -2 27 -15 -11 -14 -10 -14 7 -1 28 22 331 23
313 1 -10 -12 -7 -12 13 1 34 21 187 19 182 -2 -3 -11 1 -10 16 3 20 19 37 23
27 7 -3 -5 -1 -10 4 -10 6 0 11 4 11 8 0 4 18 8 40 8 34 0 38 -2 27 -15 -11
-14 -10 -14 7 -1 28 22 331 23 313 1 -10 -12 -7 -12 13 1 34 21 187 19 182 -2
-3 -11 1 -10 16 3 20 19 37 23 27 7 -3 -5 -1 -10 4 -10 6 0 11 4 11 8 0 4 18
8 40 8 34 0 38 -2 27 -15 -11 -14 -10 -14 7 -1 15 12 58 15 217 16 139 0 196
-3 193 -10 -3 -6 0 -4 8 5 16 19 66 30 74 17 4 -6 9 -6 13 -1 5 8 26 14 126
38 33 8 178 67 199 81 15 10 23 11 33 2 10 -8 12 -8 8 3 -3 9 8 21 31 34 19
10 45 27 57 37 11 10 28 16 36 13 9 -3 12 -3 8 1 -11 11 13 33 29 27 10 -4 12
0 8 13 -4 11 -4 16 0 13 4 -4 23 9 43 28 20 18 42 32 49 29 8 -3 16 0 20 6 5
7 2 8 -6 3 -8 -5 -11 -3 -8 6 3 8 11 13 17 11 7 -1 10 2 7 7 -8 12 18 33 29
23 5 -4 5 -2 1 5 -3 6 3 18 14 26 11 7 17 17 13 20 -3 4 -2 7 3 7 6 0 15 -5
21 -11 8 -8 13 -8 18 0 3 6 1 10 -6 9 -25 -6 -18 19 15 55 19 21 36 41 38 45
2 4 11 6 20 6 10 -1 15 3 12 7 -3 5 -10 7 -15 4 -16 -11 -10 7 20 54 16 25 39
69 52 98 13 28 26 50 30 47 4 -2 7 2 6 9 -1 41 5 57 21 58 9 0 12 3 6 5 -9 4
-6 23 7 67 10 34 19 72 19 85 0 12 3 22 8 22 4 0 8 25 9 56 2 31 7 62 13 69 5
6 7 15 3 19 -10 10 -10 156 0 156 5 0 5 6 0 13 -9 15 -11 26 -17 97 -2 30 -7
62 -10 70 -4 9 -8 29 -9 45 -1 17 -5 33 -9 36 -5 3 -9 17 -10 32 -1 15 -6 27
-10 27 -4 0 -8 10 -8 23 0 13 -4 27 -9 33 -9 9 -31 73 -31 87 1 4 -6 15 -15
23 -8 9 -13 19 -10 24 3 5 1 10 -4 12 -5 1 -11 10 -13 18 -2 8 -11 23 -21 34
-10 11 -15 26 -12 34 2 7 1 11 -4 8 -5 -3 -24 18 -42 47 -19 28 -49 68 -66 87
-18 19 -33 40 -33 48 0 7 -4 10 -10 7 -6 -3 -7 1 -4 10 4 9 13 14 21 11 8 -3
11 -1 8 4 -8 13 25 61 38 53 6 -4 7 -1 2 6 -4 8 1 24 12 39 11 15 30 48 42 75
13 26 27 45 31 42 5 -3 12 0 16 6 4 7 3 9 -4 5 -6 -3 -13 -2 -17 4 -3 5 -1 10
4 10 6 0 11 4 11 9 0 5 5 22 12 38 6 15 12 31 12 35 1 3 4 10 9 14 4 4 7 16 7
26 0 12 4 16 12 12 6 -4 8 -3 5 3 -8 12 29 199 44 227 6 10 7 16 2 13 -7 -5
-9 54 -3 73 4 10 0 138 -5 205 -9 106 -9 110 -17 115 -4 3 -9 27 -10 52 -2 25
-6 44 -9 42 -10 -6 -21 45 -13 58 5 7 2 8 -6 3 -10 -6 -12 -4 -7 8 3 10 2 17
-4 17 -6 0 -7 5 -4 10 3 6 1 10 -4 10 -6 0 -11 4 -11 10 0 20 -97 209 -114
221 -5 4 -5 12 -1 19 5 8 4 11 -3 6 -6 -3 -16 3 -22 14 -6 12 -36 50 -66 85
-30 36 -54 69 -54 75 0 5 -3 9 -7 8 -7 -2 -40 22 -83 62 -8 8 -34 28 -55 45
-22 16 -49 41 -60 54 -11 14 -30 34 -42 45 -12 10 -20 23 -17 28 3 4 1 8 -5 8
-5 0 -25 14 -43 31 -18 17 -52 44 -75 61 -24 17 -43 35 -43 40 0 4 -5 8 -10 8
-19 0 -91 50 -85 59 3 5 -5 7 -17 3 -12 -3 -19 -1 -15 4 3 6 -4 11 -15 11 -12
1 -25 8 -29 15 -5 7 -9 9 -9 4 0 -4 -11 -1 -24 7 -32 21 -210 83 -266 92 -25
4 -54 10 -65 13 -25 8 -2029 14 -2037 7z m1168 -1115 c154 0 210 -3 222 -12
12 -10 14 -10 8 0 -6 9 18 12 106 12 77 0 118 -4 127 -12 11 -10 13 -10 7 0
-10 17 532 17 554 -1 33 -26 32 -203 -1 -243 -6 -8 -8 -14 -4 -14 12 0 -37
-73 -80 -119 -44 -47 -97 -82 -165 -107 -51 -19 -341 -27 -374 -11 -10 5 -16
5 -13 0 3 -4 -44 -8 -104 -8 -60 0 -109 4 -109 8 0 5 -6 5 -12 0 -18 -11 -219
-11 -242 0 -10 5 -16 5 -13 0 3 -4 -53 -8 -124 -8 -71 0 -129 3 -129 7 0 4 -6
5 -14 2 -11 -4 -14 7 -15 53 -1 32 -1 69 -2 83 0 30 0 110 1 163 0 20 0 45 0
55 0 29 2 96 4 117 1 11 -3 23 -9 27 -5 4 25 7 68 7 43 -1 81 2 84 5 3 3 10 3
15 0 4 -3 101 -5 214 -4z m29 -1635 c39 0 73 5 77 10 5 7 8 7 8 0 0 -6 32 -10
75 -10 43 0 75 4 75 10 0 7 3 7 8 0 4 -5 39 -10 77 -10 39 0 73 5 77 10 5 7 8
7 8 0 0 -6 32 -10 75 -10 43 0 75 4 75 10 0 7 3 7 8 0 4 -5 39 -10 77 -10 39
0 73 5 77 10 5 7 8 7 8 0 0 -6 31 -10 72 -10 40 0 76 5 80 10 5 6 8 5 8 -3 0
-9 5 -10 19 -3 10 6 21 7 25 4 3 -3 25 -5 48 -5 53 3 100 -7 93 -18 -3 -5 1
-10 7 -12 9 -3 13 -34 13 -109 0 -93 -3 -110 -27 -159 -26 -53 -111 -150 -132
-150 -5 0 -17 -6 -25 -13 -9 -8 -36 -22 -61 -32 -42 -17 -90 -18 -630 -19
-508 -1 -587 1 -598 14 -8 8 -11 10 -8 3 4 -6 2 -14 -3 -17 -5 -4 -9 98 -8
254 l1 259 158 -2 c100 -1 158 2 158 8 0 7 3 7 8 0 4 -5 39 -10 77 -10z"/>
<path d="M1935 3441 c-3 -5 -2 -12 3 -15 5 -3 9 1 9 9 0 17 -3 19 -12 6z"/>
<path d="M2033 1805 c0 -8 4 -12 9 -9 5 3 6 10 3 15 -9 13 -12 11 -12 -6z"/>
<path d="M2110 1811 c0 -6 4 -13 10 -16 6 -3 7 1 4 9 -7 18 -14 21 -14 7z"/>
<path d="M2270 1811 c0 -6 4 -13 10 -16 6 -3 7 1 4 9 -7 18 -14 21 -14 7z"/>
<path d="M2430 1811 c0 -6 4 -13 10 -16 6 -3 7 1 4 9 -7 18 -14 21 -14 7z"/>
<path d="M2590 1811 c0 -6 4 -13 10 -16 6 -3 7 1 4 9 -7 18 -14 21 -14 7z"/>
<path d="M2750 1811 c0 -6 4 -13 10 -16 6 -3 7 1 4 9 -7 18 -14 21 -14 7z"/>
<path d="M2910 1811 c0 -6 4 -13 10 -16 6 -3 7 1 4 9 -7 18 -14 21 -14 7z"/>
<path d="M3070 1811 c0 -6 4 -13 10 -16 6 -3 7 1 4 9 -7 18 -14 21 -14 7z"/>
<path d="M1896 1672 c-3 -4 4 -9 15 -9 23 -2 25 3 4 10 -8 4 -16 3 -19 -1z"/>
<path d="M1896 1552 c-3 -5 1 -9 9 -9 8 0 12 4 9 9 -3 4 -7 8 -9 8 -2 0 -6 -4
-9 -8z"/>
<path d="M4450 3115 c0 -5 5 -17 10 -25 5 -8 10 -10 10 -5 0 6 -5 17 -10 25
-5 8 -10 11 -10 5z"/>
<path d="M4433 2855 c0 -8 4 -12 9 -9 5 3 6 10 3 15 -9 13 -12 11 -12 -6z"/>
<path d="M4410 2711 c0 -6 4 -13 10 -16 6 -3 7 1 4 9 -7 18 -14 21 -14 7z"/>
<path d="M4495 1110 c3 -5 8 -10 11 -10 2 0 4 5 4 10 0 6 -5 10 -11 10 -5 0
-7 -4 -4 -10z"/>
<path d="M4370 810 c0 -5 5 -10 11 -10 5 0 7 5 4 10 -3 6 -8 10 -11 10 -2 0
-4 -4 -4 -10z"/>
<path d="M4315 670 c-3 -5 -1 -10 4 -10 6 0 11 5 11 10 0 6 -2 10 -4 10 -3 0
-8 -4 -11 -10z"/>
<path d="M4276 657 c3 -10 9 -15 12 -12 3 3 0 11 -7 18 -10 9 -11 8 -5 -6z"/>
<path d="M3970 389 c0 -5 5 -7 10 -4 6 3 10 8 10 11 0 2 -4 4 -10 4 -5 0 -10
-5 -10 -11z"/>
<path d="M3655 230 c3 -5 8 -10 11 -10 2 0 4 5 4 10 0 6 -5 10 -11 10 -5 0 -7
-4 -4 -10z"/>
<path d="M3450 189 c0 -5 5 -7 10 -4 6 3 10 8 10 11 0 2 -4 4 -10 4 -5 0 -10
-5 -10 -11z"/>
<path d="M1753 175 c0 -8 4 -12 9 -9 5 3 6 10 3 15 -9 13 -12 11 -12 -6z"/>
<path d="M1829 173 c-13 -16 -12 -17 4 -4 16 13 21 21 13 21 -2 0 -10 -8 -17
-17z"/>
<path d="M2149 173 c-13 -16 -12 -17 4 -4 16 13 21 21 13 21 -2 0 -10 -8 -17
-17z"/>
<path d="M2393 175 c0 -8 4 -12 9 -9 5 3 6 10 3 15 -9 13 -12 11 -12 -6z"/>
<path d="M2469 173 c-13 -16 -12 -17 4 -4 16 13 21 21 13 21 -2 0 -10 -8 -17
-17z"/>
<path d="M2789 173 c-13 -16 -12 -17 4 -4 9 7 17 15 17 17 0 8 -8 3 -21 -13z"/>
<path d="M3033 175 c0 -8 4 -12 9 -9 5 3 6 10 3 15 -9 13 -12 11 -12 -6z"/>
<path d="M3109 173 c-13 -16 -12 -17 4 -4 16 13 21 21 13 21 -2 0 -10 -8 -17
-17z"/>
</g>
</svg>
