<?xml version="1.0" encoding="UTF-8"?><svg xmlns="http://www.w3.org/2000/svg" viewBox="0 0 750 750"><defs><style>.d{fill:#1e5369;}.e{fill:#fee1de;}.f{fill:#fff;}.g{fill:#fdf3d8;}.h{fill:#0c5068;}.i{fill:#fee4c5;}.j{fill:#ffd6d3;}.k{fill:#e86c93;}.l{fill:#fed3d3;}.m{fill:#fef4ce;}.n{fill:#fff8ef;}.o{fill:none;}.p{fill:#e57696;}.q{fill:#0c445d;}.r{fill:#e3c3b1;}.s{fill:#020714;}</style></defs><g id="a"/><g id="b"><g id="c"><g><path class="f" d="M493.76,446.57c-.14-8.14,.04-16.27,.54-24.38,.04-48.86-.26-97.72-.88-146.59-.08-6.39-.98-11.1-2.7-14.14-3.02-5.33-8-8.92-14.93-10.8-3.71-1-11.2-1.3-22.49-.91l-68.23,1.39s.03-.08,.05-.13l-27.6-.39,27.6-.16,68.36-1.4-1.03-9.32c-.06-.55,.27-1.08,.81-1.3,.81-.34,1.17-.73,1.1-1.16,1.02,.04,1.97-.12,2.84-.5,.47-.22,.78-.71,.79-1.28,.38-15.83,.34-31.66-.13-47.49-.2-6.98-3.71-10.66-10.51-11.03-2.85-.16-4.4-.24-4.62-.25-1.66-.15-3.32-.19-5-.26,.79-1.79-.11-2.63-2.7-2.52h-.03c.51-21.37,.66-42.75,.45-64.13-.04-3.13-.51-5.37-1.42-6.73h.03c-1.93-6.49-6.55-9.85-13.87-10.09-6-.19-11.99-.21-17.99-.07-20.57,.47-41.1-.15-61.59-1.87-29.24-2.46-57.41,1.41-84.51,11.6-.06,.02-.13,.06-.18,.09-.3,.22-.35,.61-.13,.88l13.65,15.77c.42,.47,1.13,.64,1.76,.42,17.52-6.15,35.4-8.64,53.64-7.45,7.47,.48,14.94,1.03,22.41,1.63-.63-4.5,.66-7.24,3.86-8.23-3.22,1.19-4.48,3.84-3.77,7.97l.33,.41c.29,.34,.47,.64,.46,.79,.65,19.26,.57,38.53-.24,57.79-.03,.51-.5,.93-1.13,1.01-4.25,.62-7.9,.88-10.95,.79-1.48-.04-2.4,.35-2.77,1.2l3.61,.1c-.65,.04-1.43,.08-2.35,.13-6.8,.37-10.3,4.05-10.51,11.03-.47,15.83-.51,31.66-.13,47.49,.01,.57,.32,1.06,.79,1.28,.66,.29,1.37,.45,2.12,.5,.14,.95,1.12,2.01,1.85,2.08-1.38,8.36-.41,.62-2.33,12.1-5.87,.1-11.73,.28-17.6,.55-5.62,.27-9.8,1.28-12.54,3.04-3.99,2.57-6.69,6.29-8.08,11.18,.56,1.22,1.27,1.28,2.12,.17,1.2-1.52,2.31-3.11,3.35-4.74,1.73-2.72,4.28-4.42,7.65-5.1,2.7-.54,6.5-.68,11.4-.42,5.46,.28,9.25,.42,11.39,.42,15.03,.02,30.06,.11,45.08,.28,3.33,.04,6.74-.22,9.8-1.44,.93-.37,1.42-.14,1.47,.67l.9-.29c.77-.21,1.44-.52,2-.91-.56,.42-1.22,.74-1.99,.97,0-.02,0-.04-.01-.07l-.9,.29-.03,.02c-.09-.67-.51-.89-1.31-.61-2.9,1.03-5.91,1.53-9.01,1.5-15.34-.17-30.68-.26-46.01-.29-2.13,0-5.93-.14-11.39-.42-4.9-.26-8.71-.12-11.4,.42-3.37,.67-5.92,2.37-7.65,5.1-1.03,1.64-2.15,3.22-3.35,4.74-.85,1.11-1.56,1.05-2.12-.17l-1.21,5.47c.07,77.77,.19,155.54,.34,233.31,.01,2.67-.11,13.88-.38,33.63-.14,11.21-.03,22.43,.34,33.65,.08,16.39,.11,32.79,.07,49.19-.02,8.52,3.34,16.3,10.09,23.34,9.23,9.64,20.86,14.54,34.88,14.7,5.24,.06,10.49,.15,15.74,.29l.9-.13c.34-30.38,.52-60.77,.54-91.15-.03,30.48-.21,60.96-.54,91.44h23.38c.26-.09,.48-.24,.67-.42l62.63,.41s0,.09,0,.13l17.54,.42v-.29c-1.09-.24-1.1-.42-.02-.55,.21-.03,.36-.18,.36-.37-.37-113.08-.49-179.78-.34-200.1,.56-78.49,.26-141.55-.9-189.18-.08-3.42,.52-7.46,1.8-12.12h.38c.69-.04,1.48-.06,2.36-.06-.81,0-1.54,.02-2.19,.05-1.28,4.66-1.88,8.71-1.8,12.12,1.16,47.64,1.46,110.7,.9,189.18-.14,20.31-.03,87.01,.34,200.1,0,.19-.15,.34-.36,.37-1.08,.13-1.07,.32,.02,.55,12.41-.27,22.46-4.89,30.13-13.87-.06,0-.1-.02-.15-.02,7.17-8.2,10.73-17.36,10.67-27.47-.19-31.53-.13-54.75,.18-69.69v-23.96c.11-25.93-.07-51.86-.54-77.78Zm-84.3-270.11c.14-.1,.28-.2,.41-.31v.32h-.41Zm-60.62,266.3c.27-32.09,.4-60.16,.4-84.2,0,24.11-.13,52.27-.4,84.49-.04,5.43-.06,10.92-.06,16.46,0-5.65,.02-11.23,.06-16.76Zm24.92-130.98c0,2.63,0,5.36,0,8.21,.07,35.19,.1,70.38,.12,105.57-.01-35.05-.05-70.1-.12-105.15,0-3.01,0-5.88,0-8.63Zm1.15,334.53c-.76-38.45-1.12-76.91-1.08-115.37,0-.11,0-.21,0-.32-.05,38.51,.31,77.02,1.08,115.51,0,.06,0,.12,0,.18Zm1.71-382.48h0c-.07-.25-.25-.51-.54-.71l-3.11-2.15c-9.62,8.94-16.35,19.32-20.2,31.14-1.63,5.01-2.68,11-3.15,17.96-.37,5.46-.53,11.46-.49,17.97v-.03c-.05-6.61,.11-12.69,.49-18.23,.47-6.96,1.52-12.95,3.15-17.96,3.85-11.83,10.58-22.21,20.2-31.14l.09-.07,3.02,2.09c.45,.31,.67,.77,.54,1.13Z"/><g><rect class="o" width="750" height="750"/><g><path class="s" d="M434.07,103.09l-23.76,.49-7.2,.42c-3.31-.91-5.11-.09-5.4,2.46-1.28,11.13-1.67,24.39-1.15,39.77,.08,2.34,.12,6.37,.11,12.09,0,3.55,.11,7.6,.32,12.12,.08,1.41,.93,2.68,2.25,3.36,2.53,1.32,2.32,2.25-.63,2.66l-25.18,1.68h-13.49c.05-2.19,.29-2.7,.74-3.07,.32-.27,.85-.39,1.56-.37,4.37,.12,6.32-2.03,5.86-6.46,1.12-2.77,1.6-5.59,1.46-8.46-.25-5.3-.37-8.09-.36-8.36,.83-13.04,1.22-21.41,1.19-25.12-.02-2.7-.98-6.38-2.88-11.03l-.58-8.95c-.03-.48-.46-.88-1.03-.96-2.16-.27-4.31-.33-6.46-.18-.24,.02-2.09,.08-5.54,.17-5.22,.15-7.43,3.03-6.64,8.66-7.47-.61-14.94-1.15-22.41-1.63-18.24-1.19-36.12,1.29-53.64,7.45-.64,.22-1.34,.05-1.76-.42l-13.65-15.77c-.23-.27-.17-.66,.13-.88,.05-.04,.12-.07,.18-.09,27.1-10.19,55.27-14.06,84.51-11.6,20.49,1.72,41.03,2.34,61.59,1.87,6-.15,11.99-.12,17.99,.07,7.32,.24,11.94,3.6,13.87,10.09Z"/><path class="g" d="M434.04,103.09c.91,1.36,1.39,3.6,1.42,6.73,.22,21.42,.07,42.84-.45,64.26-8.38,.72-16.75,.6-25.11-.35l-.14-.42,1.31-70.49,22.97,.28Z"/><path class="d" d="M411.07,103.81l-.81,71.92c-2.19,3.08-11,1.37-14.86-1.21-.59-.38-.92-.93-.92-1.53-.69-28.14-.51-50.38,.53-66.73,.09-1.62,1.72-2.62,4.89-3.01l11.17-.44q0,1,0,1Z"/><path class="q" d="M372.99,168.22c.56,4.45-1.84,6.61-7.21,6.49-.89-.02-1.53,.1-1.93,.37-.55,.37-.85,.88-.91,1.52l-29.87-.84c.37-.84,1.29-1.24,2.77-1.2,3.05,.09,6.71-.17,10.95-.79,.63-.09,1.1-.51,1.13-1.01,.81-19.26,.89-38.53,.24-57.79,0-.16-.17-.45-.46-.79l-.33-.41c-.97-5.65,1.75-8.55,8.17-8.7,4.25-.09,6.52-.15,6.82-.17,2.64-.15,5.29-.08,7.94,.19,.7,.08,1.23,.48,1.26,.96,0,0,.89,59.39,1.44,62.18Z"/><path class="d" d="M409.93,173.59c8.36,.95,16.73,1.07,25.11,.35,2.59-.11,3.49,.73,2.7,2.52h-27.88l.07-2.88Z"/><path class="p" d="M408.25,177.15c-.08-.72-.32-.09-.7,.48-.35,.53-.55,1.05-.56,1.51-.6,18.99-.48,37.99,.36,56.99-26.53,.71-53.06,.75-79.6,.13-1.19,.11-2.28-.05-3.27-.49-.47-.22-.78-.71-.79-1.28-.38-15.83-.34-31.66,.13-47.49,.2-6.98,3.71-10.66,10.51-11.03,2.85-.16,4.4-.24,4.62-.25,1.65-.15,3.32-.19,5-.26h27.88l36.43,1.68Z"/><path class="m" d="M409.86,176.47h27.88c1.68,.07,3.35,.12,5,.26,.23,.01,1.77,.1,4.62,.25,6.8,.37,10.3,4.05,10.51,11.03,.47,15.83,.51,31.66,.13,47.49-.01,.57-.32,1.06-.79,1.28-1,.44-2.09,.6-3.27,.49-26.25,.61-52.49,.57-78.73-.11-.48-.01-.86-.41-.84-.89,.75-17.6,1.61-53.57,1.7-59.6,0-.47,.4-.85,.87-.84l32.92,.64Z"/><path class="h" d="M326.63,235.68c15.55,.96,32.12,1.22,47.7,.77,26.53,.71,53.06,.75,79.6,.13,.78,.73,.55,1.34-.67,1.86-.54,.23-.87,.75-.81,1.3l1.03,9.32-68.36,1.4-59.06,.35c2-12,1-4,2.39-12.45-.9-.09-2.18-1.65-1.83-2.68Z"/><path class="n" d="M453.31,249.75c11.28-.39,18.78-.09,22.49,.91,6.93,1.87,11.91,5.47,14.93,10.8,1.71,3.04,2.61,7.75,2.7,14.14,.62,48.87,.92,97.73,.88,146.59-.5,8.12-.68,16.24-.54,24.38,.47,25.92,.65,51.84,.54,77.78v23.96c-.31,14.93-.37,38.16-.18,69.69,.06,10.12-3.5,19.29-10.69,27.49-2.17-.17-2.93-1.31-2.27-3.43,1.16-3.68,2.15-7.39,2.97-11.15,.73-3.36,1.13-7.16,1.19-11.4,.18-13.64,.22-27.29,.11-40.95-.11-14.57-.14-25.78-.11-33.62,.23-52.83,.1-105.66-.38-158.49-.08-9.02-.03-20.24,.16-33.63,.36-24.41,.15-48.81-.63-73.2-.12-3.79-.56-6.79-1.31-9-1.13-3.26-2.72-5.96-4.78-8.09-3-3.09-7.01-4.81-12.03-5.15-5.44-.37-9.49-.49-12.14-.35l-21.59,.42c-15.88,.1-31.74-.18-47.6-.86-.1-.01-.74,.02-1.92,.1-1.33,.09-2.06-.5-2.19-1.77,2.12-.58,3.47-1.84,4.05-3.78l68.36-1.4Z"/><path class="r" d="M346,250.46l39.12,.55c-.58,1.94-1.92,3.2-4.05,3.78l-.9,.29c-.05-.81-.54-1.04-1.47-.67-3.07,1.21-6.47,1.47-9.8,1.44-15.03-.16-30.06-.25-45.08-.28-2.13,0-5.93-.14-11.39-.42-4.9-.26-8.71-.12-11.4,.42-3.37,.67-5.92,2.37-7.65,5.1-1.03,1.64-2.15,3.22-3.35,4.74-.85,1.11-1.56,1.05-2.12-.17,1.39-4.89,4.08-8.62,8.08-11.18,2.73-1.76,6.91-2.77,12.54-3.04,12.47-.58,24.96-.77,37.47-.55Z"/><path class="k" d="M380.18,255.21l-7.2,5.47c-9.62,8.94-16.35,19.32-20.2,31.14-1.63,5.01-2.68,11-3.15,17.96-.37,5.54-.53,11.61-.49,18.23,.19,29.69,.09,67.94-.31,114.76-.08,10.98-.08,22.2,.02,33.67,.56,60.79,.51,121.58-.16,182.37l-.9,.13c-5.25-.13-10.5-.23-15.74-.29-14.02-.16-25.65-5.06-34.88-14.7-6.75-7.04-10.12-14.82-10.09-23.34,.04-16.4,.01-32.8-.07-49.19-.37-11.22-.49-22.44-.34-33.65,.26-19.75,.39-30.96,.38-33.63-.16-77.77-.27-155.54-.34-233.31l1.21-5.47c.56,1.22,1.27,1.28,2.12,.17,1.2-1.52,2.31-3.11,3.35-4.74,1.73-2.72,4.28-4.42,7.65-5.1,2.7-.54,6.5-.68,11.4-.42,5.46,.28,9.25,.42,11.39,.42,15.34,.02,30.68,.12,46.01,.29,3.11,.03,6.11-.47,9.01-1.5,.84-.29,1.28-.05,1.33,.72Z"/><path class="j" d="M381.08,254.8c.13,1.27,.86,1.86,2.19,1.77,1.19-.08,1.83-.11,1.92-.1,15.85,.67,31.72,.96,47.6,.86,.02,1.7,.44,3.3,1.26,4.78,.29,.53,.43,1.05,.41,1.56-.36,50.93-.2,101.86,.47,152.79,.04,3.4-.04,9.09-.22,17.09-.12,4.81-.16,10.51-.13,17.1,.2,39.7,.08,90.58-.36,152.66,0,.04-.18,7.29-.54,21.74-.22,8.88-.07,17.76,.45,26.65,.05,.91,.39,2.11,1.03,3.6,.5,1.21,.76,2.48,.77,3.8l-63.86-.42c.68-.24,1.13-.77,1.35-1.61,1.06-4.13,1.55-7.77,1.49-10.93-.77-38.53-1.13-77.07-1.08-115.61,.08-70.17,.06-140.34-.07-210.52-.05-23.87,.14-39.74,.56-47.61,.08-1.54,.85-4.39,2.3-8.56,.13-.36-.09-.82-.54-1.13l-3.11-2.15,7.2-5.47,.9-.29Z"/><path class="i" d="M453.83,257.03c-1.28,4.66-1.88,8.71-1.8,12.12,1.16,47.64,1.46,110.7,.9,189.18-.14,20.31-.03,87.01,.34,200.1,0,.19-.15,.34-.36,.37-1.08,.13-1.07,.32,.02,.55v.29l-17.54-.42c-.01-1.32-.27-2.59-.77-3.8-.64-1.49-.98-2.69-1.03-3.6-.52-8.89-.67-17.77-.45-26.65,.36-14.45,.54-21.7,.54-21.74,.44-62.07,.56-112.96,.36-152.66-.04-6.59,0-12.29,.13-17.1,.18-7.99,.25-13.69,.22-17.09-.67-50.93-.83-101.86-.47-152.79,.01-.52-.13-1.04-.41-1.56-.82-1.48-1.24-3.07-1.26-4.78l21.59-.42Z"/><path class="l" d="M454.38,257.03c2.65-.13,6.7-.02,12.14,.35,5.02,.34,9.04,2.05,12.03,5.15,2.06,2.13,3.66,4.83,4.78,8.09,.76,2.21,1.19,5.21,1.31,9,.78,24.4,.99,48.8,.63,73.2-.19,13.4-.25,24.61-.16,33.63,.48,52.84,.61,105.67,.38,158.49-.04,7.84,0,19.04,.11,33.62,.11,13.65,.07,27.3-.11,40.95-.06,4.24-.46,8.04-1.19,11.4-.82,3.76-1.8,7.47-2.97,11.15-.66,2.12,.1,3.26,2.27,3.43-7.67,8.98-17.72,13.6-30.13,13.87-1.09-.24-1.1-.42-.02-.55,.21-.03,.36-.18,.36-.37-.37-113.08-.49-179.78-.34-200.1,.56-78.49,.26-141.55-.9-189.18-.08-3.42,.52-7.46,1.8-12.12Z"/><path class="e" d="M372.98,260.97l3.11,2.15c.45,.31,.67,.77,.54,1.13-1.45,4.17-2.22,7.02-2.3,8.56-.42,7.87-.61,23.74-.56,47.61,.13,70.18,.16,140.36,.07,210.52-.05,38.54,.31,77.08,1.08,115.61,.06,3.16-.44,6.81-1.49,10.93-.22,.84-.67,1.38-1.35,1.61h-23.38c.67-60.8,.73-121.59,.16-182.37-.1-11.47-.1-22.69-.02-33.67,.4-46.82,.5-85.07,.31-114.76-.05-6.61,.11-12.69,.49-18.23,.47-6.96,1.52-12.95,3.15-17.96,3.85-11.83,10.58-22.21,20.2-31.14Z"/></g></g></g></g></g></svg>