<?xml version="1.0" encoding="UTF-8"?><svg xmlns="http://www.w3.org/2000/svg" viewBox="0 0 768 944.65"><defs><style>.g{fill:#a25542;}.h{fill:#fd858b;}.i{fill:#f8988e;}.j{fill:#0c2640;}.k{fill:#2c99ab;}.l{fill:#f46ca2;}.m{fill:#f9c7dd;}.n{fill:#bdfaf4;}.o{fill:#f26994;}.p{fill:#9e154c;}.q{fill:#94f8fa;}.r{fill:#ee928b;}.s{fill:#fec0b6;}.t{fill:#fffac7;}.u{fill:#dbd1ea;}.v{fill:#febb84;}.w{fill:#386e75;}.x{fill:#06a0ca;}.y{fill:#151740;stroke:#000;stroke-miterlimit:10;}.a`{fill:#f5ab94;}.aa{fill:#fb78a8;}.ab{fill:#f5b5b6;}.ac{fill:#bff5e6;}.ad{fill:#4f668f;}.ae{fill:#bfa29d;}.af{fill:#7de2e2;}.ag{fill:#062c3b;}.ah{fill:#10153f;}.ai{fill:#172956;}.aj{fill:#fdbfda;}.ak{fill:#f6619d;}.al{fill:#69edf0;}.am{fill:#fec7af;}.an{fill:#fab796;}.ao{fill:#e3578c;}.ap{fill:#350715;}.aq{fill:#221b3c;}.ar{fill:#fde6cb;}.as{fill:#fec1b7;}.at{fill:#0aa6d4;}.au{fill:#1f528e;}.av{fill:#f25d92;}.aw{fill:#f5777c;}.ax{fill:#19456e;}.ay{fill:#f996a6;}.b`{fill:#1b192f;}.ba{fill:#fd95bf;}.bb{fill:#a67497;}.bc{fill:#122250;}.bd{fill:#c7eee8;}.be{fill:#244574;}.bf{fill:#e18772;}.bg{fill:#fd75ab;}.bh{fill:#fe90ba;}.bi{fill:#fc8370;}.bj{fill:#f99aa0;}.bk{fill:#ffe7c3;}.bl{fill:#065e8c;}.bm{fill:#b91a61;}.bn{fill:#df4290;}.bo{fill:#f9ab91;}.bp{fill:#fcbb9d;}.bq{fill:#f85392;}.br{fill:#feecbe;}.bs{fill:#0e1742;}.bt{fill:#86e8eb;}.bu{fill:#fda09d;}.bv{fill:#132952;}.bw{fill:#17bfd9;}.bx{fill:#020003;}.by{fill:#1b2555;}.c`{fill:#174c70;}.ca{fill:#ffcbb1;}.cb{fill:#1a5578;}.cc{fill:#f57a6b;}.cd{fill:#fa90a7;}.ce{fill:#fb80a4;}.cf{fill:#13163e;}.cg{fill:#89fbfb;}.ch{fill:#133a62;}.ci{fill:#0e424f;}.cj{fill:#fecfd0;}.ck{fill:none;}.cl{fill:#3d9ab7;}.cm{fill:#56d0db;}.cn{fill:#f15490;}.co{fill:#f6b49d;}.cp{fill:#f7beac;}.cq{fill:#0a3c4b;}.cr{fill:#18143c;}.cs{fill:#fd9dc6;}.ct{fill:#dacaae;}.cu{fill:#ffe7e8;}.cv{fill:#fc9c7e;}.cw{fill:#0e1a40;}.cx{fill:#91f9fb;}.cy{fill:#11b2d4;}.d`{fill:#5db3c6;}.da{fill:#fd8bbe;}.db{fill:#3caabd;}.dc{fill:#3d8ca0;}.dd{fill:#f1788d;}.de{fill:#fc6ea9;}.df{fill:#1f1313;}.dg{fill:#0a2b54;}.dh{fill:#d35281;}.di{fill:#1c525a;}.dj{fill:#fc8d8f;}.dk{fill:#999ac0;}.dl{fill:#048bab;}.dm{fill:#fc65a4;}.dn{fill:#cffbf4;}.do{fill:#fa88a6;}.dp{fill:#f66a9b;}.dq{fill:#e02d85;}.dr{fill:#133362;}.ds{fill:#0a0e29;}.dt{fill:#d9f4ff;}</style></defs><g id="a"/><g id="b"><g id="c"><rect class="cu" width="768" height="944.65"/><rect class="af" x="173.13" y="300.97" width="421.6" height="39.58" rx="15" ry="15"/><path class="au" d="M584.71,267.3c-132.91-.27-265.81-.28-398.71-.05-.75,0-1.5-.08-2.25-.24l.52-9.65c.02-.28,.25-.5,.53-.5,53.49-.05,106.97,.01,160.46,.17,.75,0,5.41-.07,13.98-.21,3.11-.05,6.23-.03,9.35,.05,4.19,.11,7.3,.17,9.33,.16,67.73-.27,136.31-.34,205.74-.23,.58,0,1.05,.46,1.05,1.02v9.48Z"/><path class="ds" d="M183.75,267.01c.75,.16,1.5,.24,2.25,.24,132.9-.23,265.8-.22,398.71,.05,.51,2.82,0,5.4-1.5,7.75-3.47,.47-6.95,.71-10.46,.71-128.75,.05-257.5,.05-386.25,0l-1.95-.39c-.29-.06-.53-.3-.61-.61-.61-2.56-.68-5.14-.19-7.75Z"/><path class="am" d="M583.21,275.05l-2.21,3.79c-.75-.19-2.09-.28-4-.29-43.33-.18-86.66-.26-129.99-.25-.84,0-2.51,.06-5.01,.17-1.46,.06-3.13,.09-5,.08-50.86-.25-110.04-.33-177.53-.26-2.21,0-6.02,.08-11.44,.21-3.82,.09-7.64,.11-11.45,.05-8.51-.13-14.23-.17-17.16-.13-10.31,.12-20.61,.18-30.92,.17-.81,.08-1.41-.2-1.79-.84-.18-.31-.4-.53-.65-.68-.95-.57-.81-1,.44-1.31,128.75,.05,257.5,.05,386.25,0,3.51,0,6.99-.24,10.46-.71Z"/><path class="be" d="M580.75,277.34v.67c-4.81,.71-9.64,.98-14.5,.79-1.47-.05-5.09,.04-10.84,.27-3.64,.15-7.25,.17-10.83,.07-27.14-.74-54.28-.7-81.43,.13-.03,0-.63,.05-1.79,.15-1.35,.11-3.05-.01-5.11-.37-3.5-.61-12.5-.94-27-1-1.27,0-2.36,.07-3.26,.24-1.64,.31-2.7,.46-3.17,.46-22.86,.25-45.72,.28-68.58,.09-.04,0-3.36,.08-9.96,.23-2.73,.06-6.24,.05-10.53-.02-27.55-.47-65.3-.38-113.25,.25-9.49,.13-20.24-.3-32.25-1.29,.21-.27,.3-.59,.29-.96l.16,.07c.17,.07,.27,.11,.28,.11,17.28-.56,34.56-.77,51.84-.62,8.88,.08,15.54,.11,19.99,.1,25.46-.07,50.92-.12,76.38-.14,76.43-.05,152.87,.02,229.31,.23,6.08,.01,10.83,.19,14.25,.54Z"/><path class="bc" d="M188.25,278.01c12.01,.99,22.76,1.42,32.25,1.29,47.95-.63,85.7-.72,113.25-.25,4.29,.07,7.8,.08,10.53,.02,6.6-.15,9.92-.23,9.96-.23,22.86,.19,45.72,.16,68.58-.09,.47,0,1.53-.15,3.17-.46,.9-.17,1.99-.25,3.26-.24,14.5,.06,23.5,.39,27,1,2.06,.36,3.76,.48,5.11,.37,1.16-.1,1.76-.15,1.79-.15,27.15-.83,54.29-.87,81.43-.13,3.58,.1,7.19,.08,10.83-.07,5.75-.23,9.37-.32,10.84-.27,4.86,.19,9.69-.08,14.5-.79l7.44,.57c.33,.03,.6,.25,.61,.52l.24,3.46c.03,.33,.08,.65,.16,.95,.15,.54-.09,.96-.7,1.25-7.42-.23-14.84-.3-22.25-.2-12.01,.17-18.68,.25-20,.25-10.09,0-20.17-.02-30.25-.05l11.57-.21c1.06-.02,1.12-.27,.19-.74-1.73-.89-3.57-1.31-5.52-1.26-14.49,.33-28.99,.42-43.49,.25-8.92-.11-17.84-.05-26.75,.18-7.83,.19-15.67,.2-23.5,.01-6.19-.15-12.39-.12-18.58,.09-2.03,.07-5.48,.1-10.33,.08-2.72-.01-6.17,.03-10.34,.14-1.31,.03-4.48-.06-9.51-.28-2.49-.11-5.66-.11-9.49,0-2.91,.09-5.81,.08-8.72-.03-2.29-.08-4.8-.07-7.55,.04-2.53,.09-5.05,.08-7.58-.03-4.92-.23-8.69-.3-11.31-.2-8.78,.33-17.56,.42-26.34,.26-.36,0-.65-.2-.71-.46l-.11-.49c-.07-.32-.26-.55-.49-.59-1.75-.32-3.49-.41-5.24-.26-3.13,.27-4.74,.41-4.82,.41-6.55,.14-13.11,.21-19.66,.2-2.01,0-4.37-.11-7.06-.33-2.34-.19-4.69-.34-7.04-.44-.19-.01-.92-.11-2.21-.28-.77-.11-1.53-.09-2.28,.06-1.84,.35-2.91,.53-3.22,.54-4.67,.14-9.34,.19-14.01,.15-.63,0-1.55-.12-2.77-.33-.93-.17-1.87-.23-2.81-.19-1.69,.07-3.06,.04-4.12-.1-2.31-.3-4.62-.29-6.95,.03-.3,.04-.6,.19-.86,.42-.3,.27-.62,.5-.96,.71-.42,.25-.94,.38-1.57,.4-8.43,.25-16.86,.28-25.29,.11-.31,0-.61,.13-.84,.37-.86,.89-1.94,1.4-3.23,1.52l-12.21,.04-.28-5.69c0-.28,.24-.51,.55-.52l7.69-.33Z"/><path class="b`" d="M516,284.76c-10.25,.11-20.49,.09-30.74-.04-8.11-.11-14.78-.15-20.02-.13-90.91,.39-181.83,.36-272.74-.08,1.29-.12,2.37-.63,3.23-1.52,.23-.24,.53-.38,.84-.37,8.43,.17,16.86,.14,25.29-.11,.63-.02,1.15-.15,1.57-.4,.34-.21,.66-.44,.96-.71,.26-.23,.56-.38,.86-.42,2.33-.32,4.64-.33,6.95-.03,1.06,.14,2.43,.17,4.12,.1,.94-.04,1.88,.02,2.81,.19,1.22,.21,2.14,.32,2.77,.33,4.67,.04,9.34,0,14.01-.15,.31-.01,1.38-.19,3.22-.54,.75-.15,1.51-.17,2.28-.06,1.29,.17,2.02,.27,2.21,.28,2.35,.1,4.7,.25,7.04,.44,2.69,.22,5.05,.33,7.06,.33,6.55,0,13.11-.06,19.66-.2,.08,0,1.69-.14,4.82-.41,1.75-.15,3.49-.06,5.24,.26,.23,.04,.42,.27,.49,.59l.11,.49c.06,.26,.35,.45,.71,.46,8.78,.16,17.56,.07,26.34-.26,2.62-.1,6.39-.03,11.31,.2,2.53,.11,5.05,.12,7.58,.03,2.75-.11,5.26-.12,7.55-.04,2.91,.11,5.81,.12,8.72,.03,3.83-.11,7-.11,9.49,0,5.03,.22,8.2,.31,9.51,.28,4.17-.11,7.62-.15,10.34-.14,4.85,.02,8.3,0,10.33-.08,6.19-.21,12.39-.24,18.58-.09,7.83,.19,15.67,.18,23.5-.01,8.91-.23,17.83-.29,26.75-.18,14.5,.17,29,.08,43.49-.25,1.95-.05,3.79,.37,5.52,1.26,.93,.47,.87,.72-.19,.74l-11.57,.21Z"/><path class="cp" d="M180.29,284.55l12.21-.04c90.91,.44,181.83,.47,272.74,.08,5.24-.02,11.91,.02,20.02,.13,10.25,.13,20.49,.15,30.74,.04,10.08,.03,20.16,.05,30.25,.05,1.32,0,7.99-.08,20-.25,7.41-.1,14.83-.03,22.25,.2,.39,.87-.03,1.3-1.25,1.29-.65,0-2.24,.34-4.75,1.04-4.55-.1-19.21-.11-44-.04-66.17,.19-184.08,.12-353.75-.21-.71-.36-2.11-.73-4.19-1.1-1.07-.19-1.16-.59-.27-1.19Z"/><path class="ap" d="M184.75,286.84c169.67,.33,287.58,.4,353.75,.21,24.79-.07,39.45-.06,44,.04,.42,.65,.32,1.22-.29,1.71-2.93,.03-5.87,0-8.8-.08-3.88-.11-6.82-.17-8.81-.16-44.41,.12-143.45,.2-297.1,.24-35.94,0-63.02-.15-81.25-.46-.88-.13-1.38-.63-1.5-1.5Z"/><path class="cl" d="M186.25,288.34c18.23,.31,45.31,.47,81.25,.46,153.65-.04,252.69-.12,297.1-.24,1.99,0,4.93,.05,8.81,.16,2.93,.09,5.87,.11,8.8,.08,.33,1.69,.42,3.19,.29,4.5-.33,3.25,.34,6.16,2,8.71-3.41-.46-7.57-.7-12.5-.71-44.13-.11-81.96,.05-113.5,.46-36.61,.29-73.22,.4-109.83,.31-1.41,0-6.86-.12-16.33-.36-5.45-.13-10.89-.09-16.34,.13-11.33-.43-22.66-.62-34-.57-32.59,.15-65.17,.07-97.75-.26,.27-.56,.53-1.12,.8-1.67,.25-.55,.39-1.15,.41-1.79,.08-3.09,.34-6.16,.79-9.21Z"/><path class="cf" d="M194,340.59c.53,.95,1.44,1.44,2.75,1.46,18.06,.31,34.64,.42,49.75,.34,8.87-.05,15.54-.07,20-.05,63.58,.22,127.16,.29,190.75,.21,3.48,0,6.43-.09,8.86-.26,4.05-.29,6.99-.4,8.82-.34,15.95,.52,31.91,.7,47.87,.55,7.18-.07,13.85-.07,20-.02,12.21,.1,24.42,.06,36.63-.11,.28,0,.6,.07,.95,.24,.59,.27,1.2,.33,1.83,.19l-.25,19.75-5.96-.46c-33.34,.26-66.68,.27-100.01,.04-7.11-.05-13.78-.07-19.99-.05-107.42,.32-193.75,.39-259,.22-2.1,0-3.6,.09-4.5,.29l-6.21-.04c-.32-5.36-.42-10.11-.29-14.25,.09-2.77-.08-5.25-.5-7.46l8.5-.25Z"/><path class="ds" d="M194,340.59l107-.08c10.63,.21,21.27,.26,31.91,.13,2.13-.03,6.19,0,12.17,.11,2.71,.05,5.41,.03,8.12-.04,3.76-.11,6.46-.16,8.11-.16,35.31,.02,70.63,0,105.94-.04l115,.08-.04,2.21c-.63,.14-1.24,.08-1.83-.19-.35-.17-.67-.25-.95-.24-12.21,.17-24.42,.21-36.63,.11-6.15-.05-12.82-.05-20,.02-15.96,.15-31.92-.03-47.87-.55-1.83-.06-4.77,.05-8.82,.34-2.43,.17-5.38,.25-8.86,.26-63.59,.08-127.17,0-190.75-.21-4.46-.02-11.13,0-20,.05-15.11,.08-31.69-.03-49.75-.34-1.31-.02-2.22-.51-2.75-1.46Z"/><path class="d`" d="M576,362.09c.51,.25,.59,.66,.25,1.21-.05,14.06-.12,28.22-.19,42.47,0,.75-.61,1.36-1.37,1.35-.03,0-.07,0-.1,0-3.91-.32-4.85-.11-2.84,.64-1.08,.25-2.41,.34-4,.29-7.71-.26-16.88-.39-27.5-.38-101.33,.07-202.67,.12-304,.17l-49.25,.17c-.49-.21-.64-.61-.46-1.21l5.31-.21c.5-.02,.9-.49,.9-1.07l-.25-42.93c.9-.2,2.4-.3,4.5-.29,65.25,.17,151.58,.1,259-.22,6.21-.02,12.88,0,19.99,.05,33.33,.23,66.67,.22,100.01-.04Z"/><path class="cb" d="M576,362.09l5.96,.46c.48,15.07,.48,30.14,0,45.21,0,.15-.1,.28-.23,.3l-.22,.03-9.75-.33c-2.01-.75-1.07-.96,2.84-.64,.75,.06,1.4-.5,1.47-1.25,0-.03,0-.07,0-.1,.07-14.25,.14-28.41,.19-42.47,.34-.55,.26-.96-.25-1.21Z"/><path class="cb" d="M192.5,362.59l.25,42.93c0,.58-.4,1.05-.9,1.07l-5.31,.21-.25-44.25,6.21,.04Z"/><path class="a`" d="M236.25,407.84c-.63,.49-.37,.69,.76,.6,.41-.03,.65,.09,.73,.36,.08,.22-.12,.5-.46,.66-.43,.19-.56,.44-.41,.75,.25,.51,.37,.81,.37,.9v.63c.01,.25-.23,.46-.55,.48l-5.69,.29-44.25,.58,.29-3.04c0-.11-.12-.48-.33-.91-.19-.4-.1-.78,.29-1.13l49.25-.17Z"/><path class="co" d="M236.25,407.84c101.33-.05,202.67-.1,304-.17,10.62,0,19.79,.12,27.5,.38,1.59,.05,2.92-.04,4-.29l9.75,.33c.69,.33,.96,.9,.8,1.72-.33,1.72-1.35,2.7-3.05,2.95-2.14-.15-5.39-.22-9.75-.21-54.35,.05-167.19,.03-338.5-.04l5.69-.29c.32-.02,.56-.23,.56-.48v-.63c-.01-.09-.13-.39-.38-.9-.15-.31-.02-.56,.41-.75,.34-.16,.54-.44,.46-.66-.08-.27-.32-.39-.73-.36-1.13,.09-1.39-.11-.76-.6Z"/><path class="bx" d="M231,412.51c171.31,.07,284.15,.09,338.5,.04,4.36,0,7.61,.06,9.75,.21,1.77-.18,2.76,.58,2.96,2.29-1.73-.33-4.22-.5-7.46-.5H189.5c-1.98,0-3.38,.08-4.21,.25,.23-.77,.71-1.34,1.46-1.71l44.25-.58Z"/><path class="af" d="M582.21,415.05c2.7,1.97,4.36,4.24,4.98,6.81,1.1,4.61,1.38,10.09,.85,16.44-.25-.67-.45-.64-.59,.09-.69,3.51-1.99,6.76-3.91,9.75-.13,.21-.08,.28,.15,.21,.3-.08,.45-.04,.44,.11,0,.18-.18,.38-.46,.51-1.35,.63-3.16,.9-5.42,.83-7.55-.25-19.22-.35-35.01-.3-6.37,.02-13.04-.02-19.99-.12-17.83-.27-35.65-.3-53.48-.11-1.15,.01-2.64-.16-4.47-.52-1.49-.3-3.01-.45-4.55-.45h-29.75c-3.83,0-10.49,.13-19.99,.38-6.79,.19-15.46,.31-26.01,.37-40.85,.24-81.69,.33-122.53,.27-2.65,0-8.46-.13-17.43-.36-5.82-.15-11.64-.15-17.46,0-8.53,.23-14.25,.36-17.16,.39-5.72,.07-11.44,.21-17.17,.41-2.45,.05-4.91,.06-7.36,.04-.06,0-.48-.07-1.25-.22-.53-.1-.99,.07-1.39,.51-2.03-2.07-3.28-5.08-3.75-9.04-.59-4.97-.67-10.22-.25-15.75,.35-4.57,2.36-8.07,6.04-10.5,.83-.17,2.23-.25,4.21-.25h385.25c3.24,0,5.73,.17,7.46,.5Z"/><path class="af" d="M588.04,438.3c.15,4.29-1.03,8.13-3.54,11.54-.95-.15-1.82-.02-2.62,.39-.34,.17-.65,.26-.94,.26-26.15-.03-52.29-.05-78.44-.04-51.59,0-103.17-.12-154.75-.35-6.62-.03-13.29-.03-20,0-42.94,.19-85.88,.25-128.83,.2-.61,0-1.55-.12-2.8-.37-.94-.19-1.9-.24-2.87-.17,5.73-.2,11.45-.34,17.17-.41,2.91-.03,8.63-.16,17.16-.39,5.82-.15,11.64-.15,17.46,0,8.97,.23,14.78,.35,17.43,.36,40.84,.06,81.68-.03,122.53-.27,10.55-.06,19.22-.18,26.01-.37,9.5-.25,16.16-.38,19.99-.38h29.75c1.54,0,3.06,.15,4.55,.45,1.83,.36,3.32,.53,4.47,.52,17.83-.19,35.65-.16,53.48,.11,6.95,.1,13.62,.14,19.99,.12,15.79-.05,27.46,.05,35.01,.3,2.26,.07,4.07-.2,5.42-.83,.28-.13,.46-.33,.46-.51,0-.15-.14-.19-.44-.11-.23,.07-.28,0-.15-.21,1.92-2.99,3.22-6.24,3.91-9.75,.14-.73,.34-.76,.59-.09Z"/><path class="ct" d="M193.25,449.76c.97-.07,1.93-.02,2.87,.17,1.25,.25,2.19,.37,2.8,.37,42.95,.05,85.89-.01,128.83-.2,6.71-.03,13.38-.03,20,0,51.58,.23,103.16,.35,154.75,.35,26.15,0,52.29,0,78.44,.04,.29,0,.6-.09,.94-.26,.8-.41,1.67-.54,2.62-.39l-2.54,2.96c-4.65-.31-9.3-.46-13.96-.46-123.67-.03-247.33-.02-371,.03-4.01,0-8.01,.13-12,.39l-1.75-2.67c.4-.44,.86-.61,1.39-.51,.77,.15,1.19,.22,1.25,.22,2.45,.02,4.91,0,7.36-.04Z"/><path class="df" d="M581.96,452.8c.82,.35,1.17,.95,1.04,1.79-.82-.25-1.65-.37-2.5-.36-51.25,.2-102.51,.23-153.76,.1-6.05-.02-12.71,0-19.99,.07-23.5,.21-47,.21-70.49,0-7.27-.07-13.93-.09-20-.06-34.67,.13-69.34,.2-104.01,.21-11.57,0-20.4-.15-26.5-.46-1.72-.01-1.97-.46-.75-1.33,3.99-.26,7.99-.39,12-.39,123.67-.05,247.33-.06,371-.03,4.66,0,9.31,.15,13.96,.46Z"/><path class="af" d="M185.75,454.09c6.1,.31,14.93,.47,26.5,.46,34.67-.01,69.34-.08,104.01-.21,6.07-.03,12.73,0,20,.06,23.49,.21,46.99,.21,70.49,0,7.28-.07,13.94-.09,19.99-.07,51.25,.13,102.51,.1,153.76-.1,.85,0,1.68,.11,2.5,.36,3.57,3.16,6.21,6.75,7.94,10.77,.67,1.56,.76,3.29,.27,5.19-.15-.36-.47-.53-.96-.5-5.55,.27-12.22,.4-20,.39-43.33-.09-86.67-.14-130-.14-4.78,0-8.89,.03-12.33,.09-5.78,.09-9.89,.13-12.33,.12-61.11-.35-122.22-.35-183.33-.02-4.99,.03-11.66,0-20.02-.07-11.58-.1-23.16-.04-34.74,.17-.51-2.38-.43-4.48,.25-6.29,1.19-3.15,3.18-6.15,5.98-8.98,.03-.03,.18-.23,.46-.61,.33-.43,.85-.64,1.56-.62Z"/><path class="db" d="M591.21,470.55c-.11,3.45-.23,6.89-.34,10.34-.11,3.16-.62,5.51-1.54,7.04-1.31,2.18-3.26,3.82-5.83,4.91h-5l-51.96,.21c-2.59-.49-5.18-.56-7.79-.21l-14.5,.25c-1.91-.42-4.41-.6-7.5-.54-11.19,.21-22.37,.44-33.56,.69-9.77,.21-17.78,.24-24.02,.11-4.77-.1-9.89-.19-15.34-.26-5.12-.07-10.23-.33-15.33-.79-.85-.07-1.94,.19-3.25,.79-.55-.25-1.3-.35-2.25-.29-4.02,.26-9.09,.34-15.21,.25l-8.04-.21c-.83-.27-1.49-.1-2,.5-3.21-.19-10.96-.28-23.25-.29-39.09-.02-78.17,0-117.25,.04h-19.25c-8.31-.49-16.63-.52-24.94-.1-.51-.27-.94-.16-1.31,.35-1.9-.46-3.8-.47-5.71-.04-2.17-.88-4.09-2.13-5.78-3.76-1.67-1.62-2.53-3.62-2.58-5.99-.08-4.32-.14-8.64-.18-12.96,11.58-.21,23.16-.27,34.74-.17,8.36,.07,15.03,.1,20.02,.07,61.11-.33,122.22-.33,183.33,.02,2.44,.01,6.55-.03,12.33-.12,3.44-.06,7.55-.09,12.33-.09,43.33,0,86.67,.05,130,.14,7.78,.01,14.45-.12,20-.39,.49-.03,.81,.14,.96,.5Z"/><path class="ab" d="M504.25,493.09l.04,15.96-51.79,.21,6.44-.28c.36-.01,.41-.12,.15-.33-.42-.33-.95-.53-1.59-.6-3.76-.39-7.09-.59-10-.6-14.01-.06-28.03,.06-42.04,.35l-.21-14.71c1.31-.6,97.09-.42,99,0Z"/><path class="ab" d="M218,493.09l.25,206.67c0,.54-.44,.98-.98,.99l-24.98,.24c-.15,0-.28-.09-.3-.22l-.03-.22-.21-207.21c.37-.51,.8-.62,1.31-.35,8.31-.42,16.63-.39,24.94,.1Z"/><path class="ah" d="M405.25,493.09l.21,14.71c-.13,1.07,.39,1.56,1.54,1.46-1.13-.19-1.61,0-1.46,.58,.07,.28,.35,.49,.7,.56,1.56,.29,3.56,.42,6.01,.4,16.76-.15,39.34-.07,67.75,.26,7.72,.09,15.44,0,23.15-.24,.5-.01,.86-.15,1.07-.4,.32-.38,.34-.84,.07-1.37l-.04-15.96,14.5-.25c-.03,26.49-.16,52.97-.4,79.46-.07,6.79-.08,13.46-.05,19.99,.27,52.59,.35,105.17,.23,157.76,0,.41,.07,.82,.22,1.21l-67.25,.25c-.49-.21-.56-.37-.23-.48,.13-.05,.24-.09,.32-.14,.52-.33,1.04-.67,1.56-1.01,.28-.18,.6-.28,.91-.28l44.62,.17c1.55,0,2.32-.75,2.32-2.26,0-11.73,0-23.21-.01-34.46,0-4.27-.24-8.48-.73-12.64-.02-.23-.22-.41-.45-.41l-44.85-.2-44.15-.18c-.28,0-.52,.21-.54,.49-.37,4.31-.37,8.62,.02,12.94l-.04,1.46c-.39,18.28-.41,36.56-.06,54.85,.47,.47,.33,.77-.44,.9l-20.75-.25-.54-27.96,.03-8.79c0-.4-.32-.74-.74-.75-11.02-.3-21.77-.46-32.25-.47-54.73-.07-109.45,0-164.18,.2-.32,0-.58-.21-.6-.49-.03-.41,.06-.79,.28-1.16,68-.05,136-.06,204-.04,6.97,0,9.74-3.33,8.29-10-1.21-2.01-2.58-3.65-4.1-4.94-1.19-1.01-2.67-1.37-4.44-1.1,.11-.69,.25-1.36,.42-2.02,.18-.73,.27-1.41,.27-2.04-.11-46.91-.1-93.83,.05-140.74,0-.05-.06-2.99-.19-8.8-.07-3.21,0-6.92,.2-11.11,.1-2.11-.14-4.68-.72-7.7-.05-.28-.3-.48-.59-.48h-2.88c-.3,0-.6,.11-.86,.32-.71,.57-1.21,.5-1.52-.23-.07-.17-.12-.16-.15,.03-.02,.17-.06,.29-.12,.34-.2,.2-.31,.03-.34-.5l-.28-4.78-.08-6.75-.17-37c6.12,.09,11.19,.01,15.21-.25,.95-.06,1.7,.04,2.25,.29Zm94.25,37.14c0-.27-.22-.48-.48-.48l-91.8,.16c-.27,0-.48,.22-.48,.48h0l.04,21.76c0,.27,.22,.48,.48,.48l91.8-.16c.27,0,.48-.22,.48-.48l-.04-21.76Zm-92.71,71.82l-.04,95.71c0,.29,.23,.53,.51,.53l4.49-.03h84.5c1.27,.17,2.52,.09,3.75-.25,.4,.98,.83,.95,1.3-.08,.31-.67,.46-1.37,.45-2.11-.1-37.1-.1-73.69-.01-109.77,.02-8.5-.14-17.01-.49-25.52-.05-1.31-.74-1.97-2.06-1.98-19.16-.15-38.5,0-58.01,.45-.68,.02-1.97,0-3.87-.09-1.29-.05-2.58-.02-3.87,.08-3.31,.27-5.24,.42-5.77,.44-2.62,.08-5.24,.21-7.86,.4-1.74,.12-3.59-.03-5.54-.46-2.23-.49-4.42-.82-6.57-.98-.55-.04-1.12,.37-1.42,1.03l-1.79,3.92c-.2,.43-.3,.73-.29,.9l.61,35.51c0,.26,.22,.47,.51,.51,1.05,.11,1.54,.7,1.47,1.79Z"/><path class="ab" d="M578.5,492.84l-.04,70.71c-13.7,.58-24.94,.75-33.71,.5-8-.23-14.08-.3-18.25-.21-.16-.03-.24-.13-.24-.29,.15-23.5,.24-47,.28-70.5l51.96-.21Z"/><path class="cr" d="M578.5,492.84h5c.21,.29,.31,.51,.31,.65-.07,73.19-.01,146.37,.18,219.56,0,.57,.09,1.14,.26,1.71l-5.44,.02c-.27,0-.49-.24-.49-.54l.14-150.69,.04-70.71Z"/><path class="by" d="M191.75,493.34l.21,221.17s-4.31,.72-4.67-.23c.13-28.59-.55-95.57-.54-169.98,0-2.58-.03-4.75-.08-6.5-.09-2.91-.12-5.08-.09-6.49,.27-12.67,.09-25.34-.54-38.01,1.91-.43,3.81-.42,5.71,.04Z"/><path class="dr" d="M218,493.09h9.5c-.19,.71-.06,1.32,.39,1.85,.23,.28,.36,.58,.36,.86-.25,49.34-.27,98.68-.05,148.01,.03,5.46-.05,12.12-.22,19.99-.33,14.75-.32,29.5,.02,44.25,.03,1.57-.05,3.73-.25,6.46h-35.79c.15-.45,0-13.96,0-13.96l.03,.22c.02,.13,.15,.22,.3,.22l24.98-.24c.54,0,.98-.45,.98-.99l-.25-206.67Z"/><path class="cw" d="M227.5,493.09h9.75l.75,221.42h-10.25c.03-3.14-.44-220.71-.25-221.42Z"/><path class="cw" d="M378.77,493.32h9.75l.75,221.42h-10.25c.03-3.14-.44-220.71-.25-221.42Z"/><path class="as" d="M452.5,509.26h-45.5c-1.15,.1-1.67-.39-1.54-1.46,14.01-.29,28.03-.41,42.04-.35,2.91,.01,11.17,.87,11.59,1.2,.26,.21,.21,.32-.15,.33l-6.44,.28Z"/><path class="bx" d="M504.29,509.05c.27,.53,.25,.99-.07,1.37-.21,.25-.57,.39-1.07,.4-7.71,.25-15.43,.33-23.15,.24-28.41-.33-50.99-.41-67.75-.26-2.45,.02-4.45-.11-6.01-.4-.35-.07-.63-.28-.7-.56-.15-.58,.33-.77,1.46-.58h45.5l51.79-.21Z"/><rect class="cj" x="406.76" y="529.83" width="92.76" height="22.72" rx=".48" ry=".48" transform="translate(-.94 .79) rotate(-.1)"/><path class="ai" d="M388.04,536.8l.28,4.78c.03,.53,.14,.7,.34,.5,.06-.05,.1-.17,.12-.34,.03-.19,.08-.2,.15-.03,.31,.73,.81,.8,1.52,.23,.26-.21,.56-.32,.86-.32h2.88c.29,0,.54,.2,.59,.48,.58,3.02,.82,5.59,.72,7.7-.2,4.19-.27,7.9-.2,11.11,.13,5.81,.19,8.75,.19,8.8-.15,46.91-.16,93.83-.05,140.74,0,.63-.09,1.31-.27,2.04-.17,.66-.31,1.33-.42,2.02-30.25-.25-60.5-.27-90.75-.04-6.2,.05-12.87,.03-20-.05-14-.15-28.91-.24-42.91-.14v-5.76c4.72-.11,131.41-.68,131.41-.68l.96,4.16c.07,.29,.31,.5,.6,.52,3.85,.21,7.69,.16,11.52-.16,.21-.02,.64,.02,1.3,.12,.72,.11,1.08-.29,1.08-1.18l.08-174.5Z"/><path class="ds" d="M500,698.01c-.54-28.32-.71-56.64-.5-84.96,.07-9.09,.05-26.07-.06-50.94,0-.28-.23-.5-.51-.5h0l-91.02,.19c-.51,0-.92,.42-.92,.93h0l-.2,39.32c.07-1.09-.42-1.68-1.47-1.79-.29-.04-.51-.25-.51-.51l-.61-35.51c0-.17,.09-.47,.29-.9l1.79-3.92c.3-.66,.87-1.07,1.42-1.03,2.15,.16,4.34,.49,6.57,.98,1.95,.43,3.8,.58,5.54,.46,2.62-.19,5.24-.32,7.86-.4,.53-.02,2.46-.17,5.77-.44,1.29-.1,2.58-.13,3.87-.08,1.9,.08,3.19,.11,3.87,.09,19.51-.45,38.85-.6,58.01-.45,1.32,0,2.01,.67,2.06,1.98,.35,8.51,.51,17.02,.49,25.52-.09,36.08-.09,72.67,.01,109.77,0,.74-.14,1.44-.45,2.11-.47,1.03-.9,1.06-1.3,.08Z"/><path id="d" class="t" d="M500,698.01c-1.23,.34-2.48,.42-3.75,.25,.83-3.69,1.07-7.42,.71-11.21,.13-5.6-.12-11.18-.75-16.75-2.65-6.86-7.47-10.28-14.46-10.25-8.68,.04-15.08,4.06-19.19,12.06-1.33,2.6-1.94,5.65-1.81,9.15-.37,5.03-.41,10.07-.1,15.1,.01,.2,.18,.48,.45,.76,.21,.21,.26,.51,.15,.89l-3.94,.04c-.33,0-.6-.27-.61-.6,0-.03,0-.06,0-.09,.73-5.65,.56-11.17-.5-16.56-.35-4.23-1.19-7.3-2.52-9.19-3.47-4.93-7.85-8.38-13.14-10.35-1.31-.49-2.65-.65-4.03-.46-4.24,.56-8.18,1.81-11.83,3.74-3.95,2.09-6.98,4.75-9.11,7.97-1.88,2.85-3.07,6.01-3.56,9.48-.27,1.85-.48,4.55-.65,8.12-.13,2.72,0,5.44,.38,8.15l-4.49,.03c-.28,0-.51-.24-.51-.53l.04-95.71,.2-39.32c0-.51,.41-.93,.92-.93h0l91.02-.19c.28,0,.51,.22,.51,.5h0c.11,24.87,.13,41.85,.06,50.94-.21,28.32-.04,56.64,.5,84.96Zm-77.25-98l6.75,.03c.28,0,.51-.23,.51-.51h0l-.3-12.73c.23-2.88,.13-5.74-.32-8.57-.04-.28-.28-.5-.57-.51l-8.85-.33c-.91-.03-1.68,.69-1.71,1.61v.03l-.34,20.04c-.01,.52,.4,.96,.91,.97h.02l3.9-.03Zm21.75-13.5c-2.99-.33-5.99-.33-8.98-.02-.45,.05-.76,.18-.92,.41-.2,.3-.22,.68-.06,1.15v1l-.23,9.69c0,.27,.21,.49,.48,.5h.01l23.26,.1c.28,0,.51-.2,.52-.45,0,0,0-.02,0-.03l-.37-10.31c.17-.53,.16-.97-.05-1.32-.16-.28-.5-.44-1.01-.49-2.28-.22-4.57-.37-6.86-.44l-.02-5.64c0-1.47-.77-2.37-2.29-2.72-2.68-.61-4.25-.33-4.71,.84-.17,.43-.2,1.62-.11,3.57,.07,1.49,.52,2.87,1.34,4.16Zm26-2.17c-2.52,.07-4.34,.96-5.46,2.65-.68,1.03-1.05,2.8-1.11,5.33-.05,1.99-.1,3.99-.14,5.98l.25,9.75-.24,9.12c-.02,.83,.62,1.52,1.43,1.54,.03,0,.07,0,.1,0,4.97-.19,10.19-.25,15.67-.19,1.34,.01,2.01,.69,2,2.03-.29,.27-.62,.42-1,.44-5.85,.32-11.71,.41-17.57,.26-.31,0-.57,.18-.64,.45-.1,.44-.1,.89,0,1.35v14.5l-.11,4.04c-.02,.63,.42,1.17,.98,1.19,.01,0,.03,0,.04,0l17.85-.15c.3,0,.54-.23,.54-.52h0l.12-10.81-.21-10.75c.24-6.94,.34-13.88,.29-20.83-.03-4.59-.12-7.19-.26-7.82-.62-2.79-2.3-5.01-5.03-6.64-.95-.83-1.29-1.9-1.01-3.21,.56-2.63-.28-3.6-2.52-2.91-.32,.1-.64,.13-.95,.08-2.69-.37-3.7,.83-3.02,3.58,.18,.74,.18,1.25,0,1.54Zm-36.21,18.96c-.43,1.35-.44,2.69-.04,4.04l.04,.21-.25,9.25c-.48,1.86,.04,2.73,1.55,2.6,.83-.07,1.27-.1,1.33-.1h21.52c.29,0,.53-.22,.53-.5h0l-.26-11.5c.32-.89,.4-1.8,.25-2.75,.27-.95,.19-1.79-.24-2.54-.15-.25-.45-.39-.79-.38-7.53,.29-15.05,.27-22.57-.05-.51-.03-.88,.08-1.1,.31-.35,.37-.34,.84,.03,1.41Zm-3.97,.36c0-.35-.28-.63-.63-.63h0l-11.3,.02c-.35,0-.63,.28-.63,.63h0l.03,15.14c0,.35,.28,.63,.63,.63h0l11.3-.02c.35,0,.63-.28,.63-.63h0l-.03-15.14Zm-12.78,33.89l.14,4.57c0,.29,.24,.52,.52,.52l11.33,.13c.52,0,.95-.42,.96-.95,0,0,0-.01,0-.02l-.03-5,.04-14.05c0-.39-.33-.7-.75-.7h-.01l-11.43,.22c-.45,0-.82,.36-.81,.8l.04,14.48Zm17.71-4.54l15.5,.5,7.9,.03c.29,0,.53-.22,.54-.51h0v-9.16c.01-.28-.22-.5-.5-.5h0l-23.67,.18c-.29,0-.52,.21-.52,.48l-.03,6.53c0,.31-.06,.63-.18,.95-.35,.93-.03,1.43,.96,1.5Zm24.12,4.26c0-.17-.13-.3-.3-.3h0l-24.82-.04c-.17,0-.3,.13-.3,.3h0v5.5c0,.17,.12,.3,.29,.3l24.82,.04c.17,0,.3-.13,.3-.3h0v-5.5Z"/><path id="e" class="cj" d="M578.46,563.55l-.14,150.69c0,.3,.22,.54,.49,.54l5.44-.02c.35,.11,1.43,.2,3.25,.29,4.11,.19,6.77,2.35,7.96,6.5-3.3-.5-6.62-.67-9.96-.5-1.1,.05-3.93-.35-8.5-1.21-3.61-.11-7.22-.37-10.81-.77-.16-.02-.28,0-.36,.07-.11,.09-.15,.23-.12,.41-.2-.1-.28-.27-.25-.5-.03-1.05,.22-2.15,.73-3.31,2.2-5.03,3.46-10.3,3.78-15.83,.15-2.7,.15-6.11-.01-10.22-.13-3.42-.49-6.82-1.06-10.21-.04-.25-.26-.43-.48-.4-.03,0-.06,.01-.09,.03-.37,.16-.62,.48-.75,.96-.13,.5-.33,.78-.6,.83-.22,.04-.45-.2-.5-.55,0-.02,0-.04,0-.06l-1.79-18.7c-.15-1.6-.76-1.78-1.81-.53-1.31,1.56-2.19,3.38-2.62,5.45l-1.25,2.25c.42-5.38-.26-10.56-2.05-15.55-.38-1.07-.92-1.82-1.63-2.27-1.51-.97-2.54-.27-3.07,2.11-.35,1.56-.43,5.46-.25,11.71-.42,.27-.65,.12-.7-.46-.2-2.51-1.11-4.47-2.73-5.86-1.23-1.05-2.1-.81-2.61,.72-1.07,3.24-1.46,6.54-1.17,9.89-.29,.71-.58,.51-.88-.59-.09-.34-.42-.56-.73-.49-.09,.02-.18,.07-.25,.13l-2.64,2.54c-.18,.18-.29,.51-.32,.91-.39,7.19-.13,14.36,.78,21.51,.11,.88-.09,.96-.61,.24-1.88-2.61-2.78-2.38-2.7,.7,.03,.99,.04,1.69,.03,2.1-.07,3.91,.26,8.08,.97,12.51,.63,3.91,1.91,7.39,3.85,10.44-.53,1-1.41,.88-2.63-.35-.75-.77-1.16-.63-1.21,.42l-.24,5.43c-4.87-2.27-8.46-5.75-10.77-10.46-.43-.87-.7-1.94-.82-3.21-.1-1.11-.24-2.22-.41-3.33l.29-143.71c4.17-.09,10.25-.02,18.25,.21,8.77,.25,20.01,.08,33.71-.5Zm-23.5,8.6c0-.29-.22-.54-.52-.54h-.56c-.29-.02-.54,.21-.54,.5h0l-.15,6.12c0,.29,.22,.54,.52,.54h.56c.29,.02,.54-.21,.54-.5h0l.15-6.12Zm3.85-.08c0-.23-.17-.43-.41-.43h0l-.64-.02c-.23,0-.43,.17-.43,.41h0l-.2,6.3c0,.23,.17,.43,.41,.43h0l.64,.02c.23,0,.43-.17,.43-.41h0l.2-6.3Zm-15.47,1.15c.41,.25,.51,.08,.3-.52-.09-.27-.28-.49-.53-.61-1.11-.54-2.03-.34-2.77,.61-.17,.21-.26,.53-.26,.92v4.62c0,.35,.17,.64,.42,.71,.73,.2,.99-.54,.79-2.23-.05-.36,.21-.69,.57-.74,.1-.01,.2,0,.29,.03,.79,.25,1.21,1.01,1.28,2.28,.04,.71,.29,.1,.74-1.84,.11-.45,.03-.93-.22-1.33-.55-.85-1.01-.94-1.4-.26-.55,.97-.96,1.01-1.25,.13-.48-1.49,.08-2.12,1.68-1.91,.11,.01,.23,.06,.36,.14Zm3.12-.91c0-.24-.2-.44-.44-.44h-.4c-.24,0-.44,.2-.44,.44l.03,6.02c0,.24,.2,.44,.44,.44h.4c.24,0,.44-.2,.44-.44l-.03-6.02Zm2.57,.74l-.58,2.5c-1.02,2.67-.17,3.71,2.55,3.12,.27-.06,.45-.32,.41-.6-.44-2.55-.66-4.22-.67-5.02,0-1.21-.51-1.6-1.51-1.16-.2,.09-.3,.37-.26,.68l.06,.48Zm15.24-.85c0-.15-.12-.27-.27-.27l-1.5-.02c-.15,0-.27,.12-.27,.27h0l-.1,6.32c0,.15,.12,.27,.27,.27l1.5,.02c.15,0,.27-.12,.27-.27h0l.1-6.32Zm3.48,.38c0-.15-.12-.27-.27-.27h-.66c-.15,0-.27,.13-.27,.28h0l.04,6.06c0,.15,.12,.27,.27,.27h.66c.15,0,.27-.13,.27-.28h0l-.04-6.06Zm-7.98,3.73c-.16,.75-.12,1.48,.11,2.21,.07,.24,.3,.39,.5,.34,.05-.01,.09-.03,.12-.06,.29-.24,.37-.66,.24-1.25-.19-.81-.35-2.06-.49-3.73-.05-.62-.19-.68-.44-.18-.05,.1-.07,.21-.06,.33,.02,.39,.05,.79,.1,1.19,.04,.33,.01,.71-.08,1.15Zm-16.34,12.8c.16,.28,.6,.43,1.31,.44,5.52,.09,11.04,.04,16.56-.17,.2,0,.37-.17,.36-.37,0-.04,0-.08-.02-.12-.5-1.27-1.47-1.96-2.91-2.07-.28-.03-.55-.19-.74-.45-.33-.46-.76-.63-1.28-.5-.59,.14-.91,.21-.98,.22-2.33,.14-4.47,0-6.44-.42-1.12-.24-2.15-.03-3.09,.63-.98,.68-1.97,1.02-2.97,1.03-.36,0-.67,.11-.85,.31-.63,.72-.28,1.21,1.05,1.47Zm23.35,41.19c-.99,.82-2.16,1.07-3.5,.75-.23-.33-.74-.5-1.54-.5-6.83,0-13.67-.05-20.5-.16-1.97-.03-2.36,.59-1.17,1.86,.18,.2,.27,.51,.25,.85l-.07,1.39c-.02,.27,.23,.51,.55,.53,7.13,.45,14.26,.46,21.4,.03,1.09,.65,2.27,.94,3.52,.88,.15-.01,.82-.01,2.03,0,1.31,.01,1.8-.78,1.45-2.38l-.2-41.75c0-.36-.11-.68-.31-.91-.4-.45-.78-.48-1.13-.07-.21,.23-.32,.59-.35,1.07-.55,12.8-.7,25.6-.43,38.41Zm-28.69,.37c-.41-1.85-.58-3.68-.5-5.49,.1-2.15,.15-3.24,.15-3.27,.03-9.35,0-18.7-.06-28.05,0-.35-.06-.68-.17-.98-.65-1.81-.99-1.34-1.01,1.42-.06,11.67,.23,23.34,.86,34.99,.03,.61,.2,1.11,.5,1.49,.24,.3,.32,.26,.23-.11Zm2.62-31.72c-.32,1.72-.07,2.22,.74,1.51,.22-.2,.34-.51,.33-.85-.02-.95,0-1.91,.07-2.87,.06-.83-.07-1.21-.38-1.14-.24,.06-.42,.37-.44,.76-.06,.87-.17,1.74-.32,2.59Zm3.24,1.7c.39-.02,.64-1.09,.56-2.38-.07-1.29-.45-2.32-.83-2.3-.39,.02-.64,1.09-.56,2.38s.45,2.32,.83,2.3Zm5.74-.04c.34,0,.6-1.06,.6-2.35h0c0-1.3-.29-2.35-.62-2.35-.34,0-.6,1.06-.6,2.35h0c0,1.3,.29,2.35,.62,2.35h0Zm11.25,.26c.35,.18,.79,.05,.97-.29,.05-.09,.07-.18,.08-.28,.09-1.15,.03-2.28-.18-3.4-.05-.27-.14-.48-.28-.63-.27-.3-.52-.34-.76-.12-.18,.16-.22,.5-.11,.86,.21,.69,.27,1.39,.16,2.1,0,.05-.11,.33-.31,.82-.16,.39-.02,.7,.43,.94Zm-14.55-3.89c-.29,1.11-.29,2.21,.01,3.28,.07,.25,.31,.41,.54,.36,.03,0,.06-.02,.09-.04,.41-.23,.5-.68,.27-1.34-.21-.62-.2-1.36,.03-2.21,.09-.31-.02-.63-.24-.7-.01,0-.03,0-.04,0-.31-.06-.53,.16-.66,.66Zm9.91,.63c.46-1.04,.32-1.4-.42-1.07-.6,.26-.95,.89-.87,1.54,.27,2.01,.66,2.8,1.17,2.37,.2-.17,.26-.52,.16-.88-.23-.84-.25-1.49-.04-1.96Zm-3.19,.99c-.39-2.55-.67-2.32-.84,.69-.02,.35,.07,.68,.24,.93,.73,1.05,.93,.51,.6-1.62Zm5.52,2.1c.24-.26,.37-.81,.38-1.65,0-.63,.12-1.23,.34-1.82,.15-.41,.02-.57-.39-.49-.3,.06-.52,.28-.54,.54l-.3,3.08c-.07,.68,.1,.79,.51,.34Zm-17.58,6.42c5.66,.19,11.68,.34,18.06,.45,.75,.01,1.48-.2,2.11-.61,1.13-.74,.81-1.04-.98-.89-6.33,.51-12.66,.54-18.99,.07-1.65-.12-1.95,.14-.9,.78,.21,.13,.44,.19,.7,.2Zm2.07,7.99c3.56-.01,7.12-.01,10.68,0,.32,0,.59-.2,.64-.47,.19-.89-.3-1.25-1.45-1.09-3.21,.45-6.78,.34-10.7-.35-.32-.05-.64,.07-.8,.31-.43,.65-.34,1.11,.27,1.4,.29,.13,.75,.2,1.36,.2Zm6.81,5c1.28,.31,1.89,.06,1.84-.76-.02-.27-.28-.47-.59-.46-2.94,.14-5.84-.1-8.69-.73-.32-.06-.63,.07-.76,.32-.37,.74-.41,1.51-.12,2.3,.08,.24,.36,.36,.61,.28,.01,0,.03,0,.04-.02,2.81-1.19,5.36-1.5,7.67-.93Zm-8.18,4.71c-.95-.18-1.35,.32-1.22,1.5,.04,.29,.29,.51,.59,.5l12.56-.1c.38,0,.7-.15,.81-.38,.11-.23,.07-.43-.1-.61-.15-.15-.4-.25-.75-.29-3.45-.35-6.9-.49-10.36-.41-.25,0-.76-.06-1.53-.21Z"/><rect class="ad" x="525.5" y="591.35" width=".26" height="31.4" rx=".12" ry=".12"/><g><rect class="bx" x="550.49" y="574.38" width="7.18" height="1.62" rx=".53" ry=".53" transform="translate(-34.47 1115.05) rotate(-88.6)"/><rect class="bx" x="554.41" y="574.46" width="7.14" height="1.48" rx=".42" ry=".42" transform="translate(-34.46 1114.83) rotate(-88.2)"/><path class="bx" d="M542.99,573.08c-1.6-.21-2.16,.42-1.68,1.91,.29,.88,.7,.84,1.25-.13,.39-.68,.85-.59,1.4,.26,.25,.4,.33,.88,.22,1.33-.45,1.94-.7,2.55-.74,1.84-.07-1.27-.49-2.03-1.28-2.28-.35-.11-.72,.08-.83,.42-.03,.09-.04,.19-.03,.29,.2,1.69-.06,2.43-.79,2.23-.25-.07-.42-.36-.42-.71v-4.62c0-.39,.09-.71,.26-.92,.74-.95,1.66-1.15,2.77-.61,.25,.12,.44,.34,.53,.61,.21,.6,.11,.77-.3,.52-.13-.08-.25-.13-.36-.14Z"/><rect class="bx" x="545.21" y="571.87" width="1.28" height="6.9" rx=".44" ry=".44" transform="translate(-3 2.87) rotate(-.3)"/><path class="bx" d="M548.46,575.55c.15,.75,.46,1.38,.93,1.9,.25,.27,.4,.23,.46-.14,.25-1.49-.02-2.91-.81-4.26l-.06-.48c-.04-.31,.06-.59,.26-.68,1-.44,1.5-.05,1.51,1.16,0,.8,.23,2.47,.67,5.02,.04,.28-.14,.54-.41,.6-2.72,.59-3.57-.45-2.55-3.12Z"/><rect class="bx" x="559.78" y="574.32" width="6.86" height="2.04" rx=".27" ry=".27" transform="translate(-20.9 1129.44) rotate(-89.1)"/><rect class="bx" x="566.58" y="572.31" width="1.2" height="6.6" rx=".27" ry=".27" transform="translate(-4 3.97) rotate(-.4)"/><path class="ae" d="M549.04,573.05c.79,1.35,1.06,2.77,.81,4.26-.06,.37-.21,.41-.46,.14-.47-.52-.78-1.15-.93-1.9l.58-2.5Z"/><path class="df" d="M559.86,575.16c-.05-.4-.08-.8-.1-1.19,0-.12,.01-.23,.06-.33,.25-.5,.39-.44,.44,.18,.14,1.67,.3,2.92,.49,3.73,.13,.59,.05,1.01-.24,1.25-.16,.13-.4,.07-.55-.13-.03-.05-.06-.1-.07-.15-.23-.73-.27-1.46-.11-2.21,.09-.44,.12-.82,.08-1.15Z"/><path class="an" d="M543.44,589.11c-1.33-.26-1.68-.75-1.05-1.47,.18-.2,.49-.31,.85-.31,1,0,1.99-.35,2.97-1.03,.94-.66,1.97-.87,3.09-.63,1.97,.42,4.11,.56,6.44,.42,.07,0,.39-.08,.98-.22,.52-.13,.95,.04,1.28,.5,.19,.26,.46,.42,.74,.45,1.44,.11,2.41,.8,2.91,2.07,.07,.19-.03,.39-.22,.47-.04,.01-.08,.02-.12,.02-5.52,.21-11.04,.26-16.56,.17-.71-.01-1.15-.16-1.31-.44Z"/><path class="bf" d="M569.21,633.55c-.48,.28-.78,.23-.9-.15-.15-.44-.22-.67-.22-.68-.41-.81-.85-1.62-1.3-2.42-.27-12.81-.12-25.61,.43-38.41,.03-.48,.14-.84,.35-1.07,.35-.41,.73-.38,1.13,.07,.2,.23,.31,.55,.31,.91l.2,41.75Z"/><path class="bf" d="M538.1,630.67c.09,.37,.01,.41-.23,.11-.3-.38-.47-.88-.5-1.49-.63-11.65-.92-23.32-.86-34.99,.02-2.76,.36-3.23,1.01-1.42,.11,.3,.17,.63,.17,.98,.07,9.35,.09,18.7,.06,28.05,0,.03-.05,1.12-.15,3.27-.08,1.81,.09,3.64,.5,5.49Z"/><path class="dh" d="M540.72,598.95c.15-.85,.26-1.72,.32-2.59,.02-.39,.2-.7,.44-.76,.31-.07,.44,.31,.38,1.14-.07,.96-.09,1.92-.07,2.87,.01,.34-.11,.65-.33,.85-.81,.71-1.06,.21-.74-1.51Z"/><ellipse class="bb" cx="543.83" cy="598.31" rx=".7" ry="2.34" transform="translate(-33.54 32.3) rotate(-3.3)"/><ellipse class="bb" cx="549.69" cy="598.26" rx=".61" ry="2.35" transform="translate(-3.12 2.89) rotate(-.3)"/><path class="bb" d="M560.95,600.87c-.45-.24-.59-.55-.43-.94,.2-.49,.3-.77,.31-.82,.11-.71,.05-1.41-.16-2.1-.11-.36-.07-.7,.11-.86,.24-.22,.49-.18,.76,.12,.14,.15,.23,.36,.28,.63,.21,1.12,.27,2.25,.18,3.4-.03,.39-.37,.68-.77,.65-.1,0-.19-.04-.28-.08Z"/><path class="bb" d="M546.4,596.98c.13-.5,.35-.72,.66-.66,.23,.05,.36,.34,.29,.66,0,.02,0,.03-.01,.05-.23,.85-.24,1.59-.03,2.21,.23,.66,.14,1.11-.27,1.34-.2,.11-.47,.02-.59-.22-.02-.03-.03-.07-.04-.1-.3-1.07-.3-2.17-.01-3.28Z"/><path class="bb" d="M556.31,597.61c-.21,.47-.19,1.12,.04,1.96,.1,.36,.04,.71-.16,.88-.51,.43-.9-.36-1.17-2.37-.08-.65,.27-1.28,.87-1.54,.74-.33,.88,.03,.42,1.07Z"/><path class="bb" d="M553.12,598.6c.33,2.13,.13,2.67-.6,1.62-.17-.25-.26-.58-.24-.93,.17-3.01,.45-3.24,.84-.69Z"/><path class="bb" d="M558.13,600.36l.3-3.08c.02-.26,.24-.48,.54-.54,.41-.08,.54,.08,.39,.49-.22,.59-.33,1.19-.34,1.82-.01,.84-.14,1.39-.38,1.65-.41,.45-.58,.34-.51-.34Z"/><path class="a`" d="M540.36,606.92c-1.05-.64-.75-.9,.9-.78,6.33,.47,12.66,.44,18.99-.07,1.79-.15,2.11,.15,.98,.89-.63,.41-1.36,.62-2.11,.61-6.38-.11-12.4-.26-18.06-.45-.26,0-.49-.07-.7-.2Z"/><path class="i" d="M541.77,614.91c-.61-.29-.7-.75-.27-1.4,.16-.24,.48-.36,.8-.31,3.92,.69,7.49,.8,10.7,.35,1.15-.16,1.64,.2,1.45,1.09-.05,.27-.32,.47-.64,.47-3.56-.01-7.12-.01-10.68,0-.61,0-1.07-.07-1.36-.2Z"/><path class="i" d="M549.94,620.11c-2.31-.57-4.86-.26-7.67,.93-.25,.11-.53,0-.64-.22,0-.01-.01-.02-.01-.04-.29-.79-.25-1.56,.12-2.3,.13-.25,.44-.38,.76-.32,2.85,.63,5.75,.87,8.69,.73,.31-.01,.57,.19,.59,.46,.05,.82-.56,1.07-1.84,.76Z"/><path class="i" d="M543.29,625.03c3.46-.08,6.91,.06,10.36,.41,.35,.04,.6,.14,.75,.29,.17,.18,.21,.38,.1,.61-.11,.23-.43,.38-.81,.38l-12.56,.1c-.3,0-.55-.21-.59-.5-.13-1.18,.27-1.68,1.22-1.5,.77,.15,1.28,.22,1.53,.21Z"/><path class="r" d="M566.79,630.3c.45,.8,.89,1.61,1.3,2.42,0,.01,.07,.24,.22,.68,.12,.38,.42,.43,.9,.15,.35,1.6-.14,2.39-1.45,2.38-1.21-.01-1.88-.01-2.03,0-1.25,.06-2.43-.23-3.52-.88l1.08-4c1.34,.32,2.51,.07,3.5-.75Z"/><path class="b`" d="M563.29,631.05l-1.08,4c-7.14,.43-14.27,.42-21.4-.03-.32-.02-.57-.26-.55-.53l.07-1.39c.02-.34-.07-.65-.25-.85-1.19-1.27-.8-1.89,1.17-1.86,6.83,.11,13.67,.16,20.5,.16,.8,0,1.31,.17,1.54,.5Zm-10.57,2.02c0-.18-2.01-.41-4.5-.52-2.49-.1-4.52-.04-4.53,.14s2.01,.41,4.5,.52h0c2.49,.1,4.52,.04,4.53-.14h0Z"/><ellipse class="aq" cx="548.2" cy="632.88" rx=".33" ry="4.52" transform="translate(-107.08 1154.09) rotate(-87.6)"/></g><path class="ag" d="M559,668.76c-1.33,1.17-2.06,2.29-2.19,3.35-1.44,12.29-2.29,27-2.55,44.12,0,.07,.07,.6,.22,1.6,.11,.74-.13,1.38-.73,1.93h-3.25c.65-1.17,.98-2.24,1-3.21,.15-8.43,.49-16.85,1.01-25.26,.39-6.24,.56-12.49,.51-18.74-.02-2.64-.36-5.24-1.02-7.79-.18-6.25-.1-10.15,.25-11.71,.53-2.38,1.56-3.08,3.07-2.11,.71,.45,1.25,1.2,1.63,2.27,1.79,4.99,2.47,10.17,2.05,15.55Z"/><path class="cq" d="M552,664.76c.66,2.55,1,5.15,1.02,7.79,.05,6.25-.12,12.5-.51,18.74-.52,8.41-.86,16.83-1.01,25.26-.02,.97-.35,2.04-1,3.21l-5.71,.54-.29-.46c.9-2.63,1.36-5.33,1.39-8.09,.03-2.95,.04-4.46,.05-4.53,.27-5.49,.2-9.47-.19-11.92-.3-1.87-.72-6.87-1.25-15-.17-2.63-.16-4.69,.05-6.18,0-.03,.24-.71,.71-2.04,.35-.99,.2-2-.47-3.03-.29-3.35,.1-6.65,1.17-9.89,.51-1.53,1.38-1.77,2.61-.72,1.62,1.39,2.53,3.35,2.73,5.86,.05,.58,.28,.73,.7,.46Z"/><path class="j" d="M565.46,719.05l-5.46,.46c-.82-.21-1.15-.87-1-1.96,1.07-7.59,2.15-15.17,3.25-22.75,.38-2.61,.59-5,.62-7.16,.07-4.27,.12-6.65,.15-7.16,.27-4.01,.44-8.21,.49-12.59,0-.54-.42-.98-.95-.99-.16,0-.31,.03-.46,.11-.58,.29-1.2,.13-1.85-.5,.43-2.07,1.31-3.89,2.62-5.45,1.05-1.25,1.66-1.07,1.81,.53l1.79,18.7c.03,.35,.25,.63,.47,.61,.01,0,.03,0,.04,0,.27-.05,.47-.33,.6-.83,.13-.48,.38-.8,.75-.96,.2-.09,.44,.03,.54,.26,.01,.03,.02,.07,.03,.11,.57,3.39,.93,6.79,1.06,10.21,.16,4.11,.16,7.52,.01,10.22-.32,5.53-1.58,10.8-3.78,15.83-.51,1.16-.76,2.26-.73,3.31Z"/><path class="ci" d="M560.25,666.51c.65,.63,1.27,.79,1.85,.5,.48-.24,1.06-.05,1.3,.42,.07,.14,.11,.3,.11,.46-.05,4.38-.22,8.58-.49,12.59-.03,.51-.08,2.89-.15,7.16-.03,2.16-.24,4.55-.62,7.16-1.1,7.58-2.18,15.16-3.25,22.75-.15,1.09,.18,1.75,1,1.96l-6.25,.25c.6-.55,.84-1.19,.73-1.93-.15-1-.22-1.53-.22-1.6,.26-17.12,1.11-31.83,2.55-44.12,.13-1.06,.86-2.18,2.19-3.35l1.25-2.25Z"/><path class="di" d="M544.79,669.05c.67,1.03,.82,2.04,.47,3.03-.47,1.33-.71,2.01-.71,2.04-.21,1.49-.22,3.55-.05,6.18,.53,8.13,.95,13.13,1.25,15,.39,2.45,.46,6.43,.19,11.92,0,.07-.02,1.58-.05,4.53-.03,2.76-.49,5.46-1.39,8.09l-2.21-.79c-1.94-3.05-3.22-6.53-3.85-10.44-.71-4.43-1.04-8.6-.97-12.51,0-.41,0-1.11-.03-2.1-.08-3.08,.82-3.31,2.7-.7,.52,.72,.72,.64,.61-.24-.91-7.15-1.17-14.32-.78-21.51,.03-.4,.14-.73,.32-.91l2.64-2.54c.23-.22,.6-.19,.83,.08,.07,.08,.12,.18,.15,.28,.3,1.1,.59,1.3,.88,.59Z"/><path class="bv" d="M469.26,757.15c-1.45,.1-7.81,.24-7.61,1.54-.6,5.75-.66,11.5-.18,17.25,.02,.28-.08,.46-.31,.54-11.46-.55-22.92-.75-34.4-.58-.07-.51,.05-.92,.37-1.24,.38-.39,.59-.61,.62-.65,12.4-17.6,24.81-35.3,37.23-53.1,.31-.45,.18-.66-.39-.65-14.04,.36-28.25,.32-42.62-.11l.04-1.46c1.3-.27,2.62-.38,3.96-.33,12.17,.51,24.72,.7,37.63,.57,1.02-.01,2.01-.28,2.88-.78,.52-.3,.75-.71,.68-1.23-.03-.28-.3-.5-.65-.52-3.38-.22-6.76-.29-10.14-.2-4.43,.11-7.81,.14-10.13,.09-7.35-.16-14.71-.06-22.06,.31-.28,.01-.53-.16-.55-.38,0-.03,0-.06,0-.1,.11-.59,.64-.88,1.6-.87,11.26,.1,25.19,0,41.79-.3,.35,0,.68-.14,.9-.38-3.78-1.99-3.24-2.89,1.74-9.13l47.84,.2c.25,0,.46,.18,.48,.41,.52,4.16,.78,8.37,.78,12.64,0,11.25,.01,22.73,.01,34.46,0,1.51-.82,2.27-2.47,2.26,0,0-42.18,.11-45.37,.11-.55,.34-1.39,1.68-1.65,1.63Zm32.07-26.16c-.46,.84-.06,1.24,1.17,1.19,.48-.02,.85-.4,.83-.84,0-.12-.04-.24-.1-.34-.66-1.15-1.29-1.16-1.9-.01Z"/><path class="br" d="M242,714.34c14-.1,28-.07,42,.08,7.13,.08,13.8,.1,20,.05,30.25-.23,60.5-.21,90.75,.04,1.77-.27,3.25,.09,4.44,1.1,1.52,1.29,2.89,2.93,4.1,4.94-.33,.57-.66,.7-.99,.4-.26-.23-.55-.34-.78-.3-2.91,.6-6.25,.9-10.02,.9H194.5c-8.31,0-14.31-.15-18-.46-.35-.39-.42-.8-.19-1.23,2.05-3.79,5.37-5.58,9.94-5.35h51.75l4-.17Z"/><path class="c`" d="M447.5,751.83c13.48,.43,26.8,.47,39.96,.11,.54-.01,.66,.2,.37,.65-11.64,17.8-23.27,35.5-34.9,53.1-.03,.04-.22,.26-.58,.65-.3,.32-.42,.73-.35,1.24-1.66,.37-3.33,.37-5,0,.77-.13,.91-.43,.44-.9-.35-18.29-.33-36.57,.06-54.85Z"/><path class="cv" d="M542.29,719.05l2.21,.79,.29,.46,.21,6.71c-2.71,.39-4.97-.43-6.79-2.46l.24-5.43c.05-1.05,.46-1.19,1.21-.42,1.22,1.23,2.1,1.35,2.63,.35Z"/><path class="g" d="M565.46,719.05c-.03,.23,.05,.4,.25,.5,.09,2.81-.25,5.56-1,8.25-5.99,.08-11.97,0-17.96-.25-.86-.03-1.44-.21-1.75-.54l-.21-6.71,5.71-.54h3.25l6.25-.25,5.46-.46Z"/><path class="v" d="M577,719.84c-1.83,3.02-3.64,5.28-5.44,6.77-1.18,.99-2.78,1.54-4.81,1.67-.19,.01-.5,.1-.95,.26-.55,.19-.91-.05-1.09-.74,.75-2.69,1.09-5.44,1-8.25-.03-.18,.01-.32,.12-.41,.08-.07,.2-.09,.36-.07,3.59,.4,7.2,.66,10.81,.77Z"/><path class="cc" d="M403.29,720.55c1.45,6.67-1.32,10-8.29,10-68-.02-136,0-204,.04l-4.25,.25-5.92-.29c-1.63-.09-2.76-.73-3.38-1.92-1.27-2.42-1.59-4.93-.95-7.54,3.69,.31,9.69,.46,18,.46h197c3.77,0,7.11-.3,10.02-.9,.23-.04,1.44,.47,1.77-.1Z"/><path class="bs" d="M582.41,731.3c-.39,13.06-.43,26.12-.11,39.18,0,.27-.21,.49-.47,.5,0,0-.01,0-.02,0-9.64-.13-19.27-.03-28.91,.31-.22,0-.38,.06-.46,.15-.12,.11-.13,.24-.03,.38,.09,.14,.3,.24,.55,.25,2.77,.18,9.05,.26,18.83,.23,7.98-.02,16.31-.2,24.97-.54,.54-.02,1,.42,1.02,.98h0l.37,17.09c-.57,.21-26.07-.37-43.68-.1-.36,0-.67-.15-.8-.39l-.27-.5c.5-4.94,.43-9.87-.21-14.79-.83-.96-2.4-1.33-4.69-1.12-.72,.07-1.36-.46-1.43-1.17,0-.02,0-.04,0-.07-.07-1.59-.93-2.35-2.6-2.28-1.47,.05-2.23,.08-2.31,.07-2.22-.13-4.44-.2-6.65-.22-.47-.63-.71-1.37-.72-2.21l4.5,.04,8.48,1.54c.6,.11,1.23-.08,1.68-.52,5.71-5.49,10.85-11.62,15.44-18.41,.89-1.31,1.51-2.73,1.88-4.25,.56-2.35,.81-3.9,.75-4.65-.15-1.97-1.17-2.55-3.03-1.74-1.21,.51-2.44,.73-3.7,.66l-19.73-1.21c-.77-.05-1.44,.52-1.49,1.28-.07,.99-.49,1.66-1.24,2.01l.21-5.54c5.89,.97,11.81,1.44,17.77,1.4,5.53-.04,8.3-.06,8.31-.06,2.91-.36,5.5-1.6,7.76-3.73,2.15-2.01,4.61-3.45,7.38-4.32,.71-.22,1.27-.2,1.7,.07,.55,.34,.87,.9,.97,1.68Zm5.22,57.18c0-.38-.31-.68-.69-.68h-12.56c-.38,0-.69,.3-.69,.68v.1c0,.38,.31,.68,.69,.68h12.56c.38,0,.69-.3,.69-.68v-.1Z"/><path class="cb" d="M187.21,734.55c.05,1.17,.48,2.06,1.31,2.66,.53,.37,1.39,.6,2.6,.68,7.27,.47,13.64,.61,19.13,.41,2.23-.08,4.06,.07,5.5,.46-.89-.11-1.16,.09-.81,.6-.32,4.15-.29,8.29,.09,12.44,.06,.68,.4,1.18,1.01,1.5l.58,3.32c.15,.83,.85,1.43,1.66,1.43h161.06c.6,0,1.09-.49,1.1-1.09,0-.9,.08-1.8,.23-2.69,.07-.4,.04-.71-.08-.92-.17-.31-.45-.51-.84-.59,.78-1.25,.93-2.57,.46-3.96,.16-3.53-.16-7.02-.96-10.46h9.22l.53,31.67c-2.05,.2-4.1,.27-6.16,.2-3.4-.11-5.13-.17-5.19-.17-47.72-.25-95.44-.33-143.15-.26-5.85,.01-12.51,.11-19.99,.29-9.07,.23-18.15,.39-27.22,.48-.44-12-.47-24-.08-36Z"/><path class="k" d="M355.25,738.59c.74-.04,25.74-.38,25.46-.25-.21,14.42-.21,12.66-.21,14.42-54.57,.83-109.89,1.01-164.46,.54-.61-.32-1.41-.62-1.47-1.3l.15-12.55c.04-.58,0-.67,1.03-.69,50.82,.06,90.07-.01,117.75-.21,10.31-.07,17.56-.06,21.75,.04Z"/><path class="ch" d="M539.75,767.09c.48-.07,.2-26.31,.27-27.3,.05-.76,.71-1.33,1.48-1.28l19.57,1.21c9.78-2.39,9.78-3.18,9.01-1.42-4.93,11.4-4.05,10.09-4.93,11.4-4.55,6.79-12.35,20.26-12.95,20.15l-12.45-2.76Z"/><path class="dg" d="M379.75,752.76c.39,.08,.67,.28,.84,.59,.12,.21,.15,.52,.08,.92-.15,.89-.22,1.79-.23,2.69,0,.6-.5,1.09-1.1,1.09H218.28c-.81,0-1.51-.6-1.66-1.43l-.58-3.32c54.57,.47,109.14,.29,163.71-.54Z"/><path class="ad" d="M389,770.01l20.75,.25c1.67,.37,3.34,.37,5,0,10.76-.17,21.51,.03,32.25,.58,.2,.2,.27,.44,.21,.71-.46,.06-.88,.23-1.25,.5-99.9-.31-184.39-.4-253.46-.25-2.26,0-4.01-.09-5.25-.29l.04-.96c9.07-.09,18.15-.25,27.22-.48,7.48-.18,14.14-.28,19.99-.29,47.71-.07,95.43,.01,143.15,.26,.06,0,1.79,.06,5.19,.17,2.06,.07,4.11,0,6.16-.2Z"/><path class="bs" d="M187.25,771.51c1.24,.2,2.99,.3,5.25,.29,69.07-.15,153.56-.06,253.46,.25l.52,13c.01,.34-.09,.66-.29,.9-1.07,1.3-2.41,1.9-4.04,1.8-1.25-.08-1.9-.12-1.93-.12-13.25,.25-26.49,.28-39.73,.09-5.43-.08-11.43-.02-17.98,.18-6.75,.21-12.75,.26-18.01,.15-9.18-.18-17.43-.24-24.75-.18-12,.11-18.67,.16-20,.15-46.23-.12-92.46-.07-138.69,.15-3.71,.02-7.42-.07-11.12-.28-.31-.02-.56-.24-.58-.52l-1.04-12.76c-.02-.26,.18-.51,.48-.6,1.02-.31,1.5-1.03,1.45-2.17l17-.33Z"/><path class="bx" d="M447.21,771.55l1.33,3.75-.04,14.03c0,.26-.2,.47-.46,.47-.02,0-.03,0-.05,0-2.57-.25-5.15-.38-7.74-.37-90.67,.08-272.54,1.78-272.54,.82,.1-17.26,.39-11.12,.1-17.26-.06-1.31,.75-1.7,2.44-1.15,.05,1.14-.43,1.86-1.45,2.17-.3,.09-.5,.34-.48,.6l1.04,12.76c.02,.28,.27,.5,.58,.52,3.7,.21,7.41,.3,11.12,.28,46.23-.22,92.46-.27,138.69-.15,1.33,0,8-.04,20-.15,7.32-.06,15.57,0,24.75,.18,5.26,.11,11.26,.06,18.01-.15,6.55-.2,12.55-.26,17.98-.18,13.24,.19,26.48,.16,39.73-.09,.03,0,.68,.04,1.93,.12,1.63,.1,2.97-.5,4.04-1.8,.2-.24,.3-.56,.29-.9l-.52-13c.37-.27,.79-.44,1.25-.5Z"/><path id="f" class="dk" d="M604.61,789.8c.05,0,4.73,.17,14.02,.51,6.68,.25,21.05,.36,21.58,.35,26.21-.56,46.56-.69,61.04-.37,1.9,.04,43.79,.45,60.75-.51,2.5-.14,4.5,.08,6,.64v154.22H0v-153.96c19.86-.21,39.72-.51,59.57-.91,.08,.34,.35,.51,.81,.51,136,0,504.69-.43,544.23-.49Z"/><rect class="bx" x="573.9" y="787.8" width="13.82" height="1.46" rx=".68" ry=".68"/><rect class="dt" x="406.13" y="561.21" width="93.27" height="138.03"/><rect class="u" x="433.29" y="599.92" width="38.99" height="23.22"/><line class="ck" x1="452.56" y1="589.59" x2="472.87" y2="599.92"/><g><line class="y" x1="453.14" y1="589.59" x2="443.99" y2="598.35"/><line class="y" x1="453.14" y1="589.59" x2="461.59" y2="598.35"/></g><path class="ci" d="M458.14,606.83c-.17-.83-.53-1.53-1.06-2.09-.7-.73-1.47-1.11-2.33-1.12-2.26-.05-4.58-.06-6.95-.04-.19,0-.35,.15-.35,.34l-.12,8.53h7.98s.05-.07,.1-.1c2.29-1.37,3.2-3.21,2.73-5.52Zm-3.31,1.89c-.61,.81-1.81,1.06-3.6,.75-.23-.04-.41-.22-.44-.43l-.25-2.27c-.02-.19,.11-.36,.3-.4,1.29-.3,2.44-.2,3.46,.31,1,.49,1.17,1.17,.53,2.04Z"/><path class="ci" d="M455.41,609.9s-.08-.06-.1-.1h-7.98l.12,8.53c0,.19,.16,.34,.35,.34,2.37,.03,4.69,.01,6.95-.04,.86-.01,1.64-.39,2.33-1.12,.54-.56,.89-1.26,1.06-2.09,.47-2.31-.44-4.15-2.73-5.52Zm-1.11,5.67c-1.02,.51-2.17,.61-3.46,.31-.19-.04-.32-.22-.3-.4l.25-2.27c.03-.22,.2-.4,.44-.43,1.79-.31,2.99-.06,3.6,.75,.65,.87,.48,1.54-.53,2.04Z"/><rect class="dg" x="187.29" y="735.32" width="4.67" height="35.23"/><path class="ch" d="M191,730.59c-.22,.37-.31,.75-.28,1.16,.02,.28,.28,.49,.6,.49,54.73-.21,109.45-.27,164.18-.2,10.48,.01,21.23,.17,32.25,.47,.42,.01,.75,.35,.74,.75l-.02,5.08h-9.22l-24,.25c-4.19-.1-11.44-.11-21.75-.04-27.68,.2-66.93,.27-117.75,.21-1.44-.39-3.27-.54-5.5-.46-5.49,.2-11.86,.06-19.13-.41-1.21-.08-2.07-.31-2.6-.68-.83-.6-1.26-1.49-1.31-2.66l-.46-3.71,4.25-.25Z"/><path class="dc" d="M526.54,493.05c-.04,23.5-.13,47-.28,70.5,0,.16,.08,.26,.24,.29l-.29,143.71c-1.33,1.07-2.07,2.15-2.21,3.25-.99,7.91,1.32,14.43,6.94,19.56,1.99,1.82,5.97,4.48,9.36,6.59l-.26,16.1c.07,5.51,.08,11.7,.26,17.21-5.01,.6-5.88-2.11-5.88-2.11,.21-3.5,.68-8-.34-11.31-.09-.3-.33-.53-.63-.61-3.34-.89-6.73-1.04-10.17-.43,.17-3.29-1.34-4.8-4.54-4.54-.15-.39-.23-.8-.22-1.21,.12-52.59,.04-105.17-.23-157.76-.03-6.53-.02-13.2,.05-19.99,.24-26.49,.37-52.97,.4-79.46,2.61-.35,5.2-.28,7.79,.21Zm-.78,98.42c0-.07-.05-.12-.12-.12h-.02c-.07,0-.12,.05-.12,.12h0v31.16c0,.07,.05,.12,.12,.12h.02c.07,0,.12-.05,.12-.12v-31.16Z"/><path class="bi" d="M526.21,707.55c.17,1.11,.31,2.22,.41,3.33,.12,1.27,.39,2.34,.82,3.21,2.31,4.71,5.9,8.19,10.77,10.46,1.82,2.03,4.08,2.85,6.79,2.46,.31,.33,.89,.51,1.75,.54,5.99,.25,11.97,.33,17.96,.25,.18,.69,.54,.93,1.09,.74,.45-.16,.76-.25,.95-.26,2.03-.13,3.63-.68,4.81-1.67,1.8-1.49,3.61-3.75,5.44-6.77,9.8-.33,8.7-.03,9.8-.08,8.03,.08,4.73-.42,8.03,.08,1.13,3.48,1.15,7.67-1.21,9.14-.85,.54-2.68,.95-5.47,1.24-1.89,.2-3.76,.56-5.61,1.08-.09-.78-.41-1.34-.96-1.68-.43-.27-.99-.29-1.69-.07-2.75,.87-5.19,2.31-7.32,4.32-2.25,2.13-4.81,3.37-7.7,3.73,0,0-2.75,.02-8.24,.06-5.91,.04-11.79-.43-17.63-1.4-3.39-2.11-6.07-4.08-8.06-5.9-5.62-5.13-7.93-11.65-6.94-19.56,.14-1.1,.88-2.18,2.21-3.25Z"/><rect class="bv" x="406.13" y="699.79" width="94.92" height="49.61"/><polygon class="ax" points="410.32 720.07 440.87 720.07 421.96 749.4 409.96 749.4 410.32 720.07"/><polygon class="ax" points="444.28 714.78 442.18 718.03 410.35 718.03 410.39 714.78 444.28 714.78"/><polygon class="ax" points="450.5 705.13 445.59 712.74 410.42 712.74 410.51 705.13 450.5 705.13"/><path class="ar" d="M518.75,751.26l-67.25,.25h0c-1.26,.08-2.01,.09-2.25,.04-.58-.13-1.02-.1-1.32,.06l-55.9-.21c-3.2-.26-4.71,1.25-4.54,4.54,1.63,.17,5.81,.25,12.54,.25h59.7c.09,0,.61,.04,1.58,.13,.71-.06,1.31-.15,1.84-.27h47.6c6.55,0,10.68-.08,12.4-.24,.08,0,.14-.08,.14-.16,.12-3.18-1.4-4.65-4.55-4.39Z"/><path class="cv" d="M535.29,767.05c.22-3.67-.23-7.23-1.35-10.69-3.49-1.01-7.04-1.2-10.65-.56-1.63,.17-5.81,.25-12.54,.25h-59.7c-.07,0-.42,.03-1.04,.08-24.9-.23-70.13-1.06-73.16-.18-1.12,3.46-1.5,10.55-1.5,14.31,2.05,.37,3.98-.31,6.93-.32,13.08-.06,34.74-.05,64.99,.02,0,.11,.01,.23,.02,.34,.36-.15,.64-.26,.85-.34,4.51,.01,9.2,.02,14.08,.04,.07,0,1.03-.09,2.18-.18,29.78-.07,51.15-.08,64.1-.02,2.95,.01,4.85,.83,6.9,.46,0-6.61-.1-2.37-.11-3.21Z"/><path class="bk" d="M553.54,774.05c-.83-.96-2.38-1.33-4.65-1.12-.02,0-.04,0-.07,0-.72,.03-1.32-.53-1.35-1.24-.07-1.59-.93-2.35-2.58-2.28-1.45,.05-2.22,.08-2.29,.07-2.2-.13-4.4-.2-6.6-.22-2.05,.37-4.55,.55-7.5,.54-15.14-.07-41.79-.05-79.94,.06-.06,0-.79,.04-1.72,.1-34.4-.1-70.28-.23-72.05-.56-2.2,.02-4.4,.09-6.6,.22-.07,0-.84-.02-2.29-.07-1.65-.07-2.51,.69-2.58,2.28-.03,.72-.64,1.27-1.35,1.24-.02,0-.04,0-.07,0-2.27-.21-3.82,.16-4.65,1.12-.07,1.01,.38,1.34,1.35,.99,.46-.17,.94-.26,1.45-.26l100.99,.56,1.21-.04,.06-.17,88.44-.49c.51,0,.99,.09,1.45,.26,.97,.35,1.42,.02,1.35-.99Z"/><path class="cv" d="M553.54,774.05c.07,1.03-.38,1.37-1.35,1.01-.46-.18-.94-.26-1.45-.26l-100.99,.57s0,.05,.01,.08l-89.72-.51c-.51,0-.99,.09-1.45,.26-.52,.19-.88,.19-1.11-.02-.13-.12-.36-.02-.38,.16-.5,4.56-.84,10.18-.4,14.75,.01,.11,75.73-.27,102.1-.14,.23,0,.44-.06,.63-.17,29.6-.06,85.46,.15,94.27-.04,.05,0,.05-.7,.06-.75,.49-4.99,.42-9.98-.22-14.95Z"/><rect class="dc" x="387.79" y="493.05" width="6.96" height="221.46"/><rect class="cw" x="237.25" y="707.09" width="150.54" height="7.42"/><rect class="cw" x="236.25" y="640.39" width="150.54" height="7.42"/><rect class="cw" x="233.81" y="581.29" width="150.54" height="7.42"/><g><path class="cd" d="M252.01,524.21c-2.22,.37-5.19,.55-8.9,.56-1.47,0-1.92,.44-1.36,1.3,.14,.22,.44,.37,.8,.4,1.25,.11,1.98,.77,2.2,2,.35,1.95,.42,3.9,.2,5.85,0,.07-.14,.51-.39,1.34-.19,.65-.03,1.23,.49,1.76l-3.9,.03c-.51,0-.93-.42-.93-.95v-.02l.34-20.04c.02-.92,.77-1.66,1.68-1.64h.03l8.85,.33c.29,.01,.53,.23,.57,.51,.45,2.83,.55,5.69,.32,8.57Z"/><path class="ce" d="M252.01,524.21l.3,12.72c0,.28-.22,.51-.5,.52h-.01l-6.75-.03c-.52-.53-.68-1.11-.49-1.76,.25-.83,.38-1.27,.39-1.34,.22-1.95,.15-3.9-.2-5.85-.22-1.23-.95-1.89-2.2-2-.36-.03-.66-.18-.8-.4-.56-.86-.11-1.29,1.36-1.3,3.71,0,6.68-.19,8.9-.56Z"/></g><g><path class="cd" d="M323.82,626.88c-2.22,.37-5.19,.55-8.9,.56-1.47,0-1.92,.44-1.36,1.3,.14,.22,.44,.37,.8,.4,1.25,.11,1.98,.77,2.2,2,.35,1.95,.42,3.9,.2,5.85,0,.07-.14,.51-.39,1.34-.19,.65-.03,1.23,.49,1.76l-3.9,.03c-.51,0-.93-.42-.93-.95v-.02l.34-20.04c.02-.92,.77-1.66,1.68-1.64h.03l8.85,.33c.29,.01,.53,.23,.57,.51,.45,2.83,.55,5.69,.32,8.57Z"/><path class="ce" d="M323.82,626.88l.3,12.72c0,.28-.22,.51-.5,.52h-.01l-6.75-.03c-.52-.53-.68-1.11-.49-1.76,.25-.83,.38-1.27,.39-1.34,.22-1.95,.15-3.9-.2-5.85-.22-1.23-.95-1.89-2.2-2-.36-.03-.66-.18-.8-.4-.56-.86-.11-1.29,1.36-1.3,3.71,0,6.68-.19,8.9-.56Z"/></g><g><path class="l" d="M252.65,556.21c0,.35-.28,.63-.63,.63h0l-11.3,.02c-.35,0-.63-.28-.63-.63h0l-.03-15.14c0-.35,.28-.63,.63-.63h0l11.3-.02c.35,0,.63,.28,.63,.63h0l.03,15.14Zm-6.78-11.31c-.39-.15-1.39-.33-3-.56-.3-.04-.58,.13-.67,.41-.93,2.73,.19,3.46,3.36,2.2,1.86-.74,1.96-1.42,.31-2.05Zm-.04,7.97c.41-.31,.54-.88,.29-1.33-.71-1.29-1.68-1.97-2.91-2.04-1.68-.1-2.21,.64-1.6,2.21,.87,2.23,2.28,2.61,4.22,1.16Z"/><path class="ba" d="M245.86,544.9c1.65,.63,1.55,1.31-.31,2.05-3.17,1.26-4.29,.53-3.36-2.2,.09-.28,.37-.45,.67-.41,1.61,.23,2.61,.41,3,.56Z"/><path class="ba" d="M245.82,552.87c-1.94,1.45-3.35,1.07-4.22-1.16-.61-1.57-.08-2.31,1.6-2.21,1.23,.07,2.2,.75,2.91,2.04,.25,.45,.12,1.02-.29,1.33Z"/></g><g><path class="l" d="M252.76,574.21l-.71-.04c.39-1.23,.08-1.85-.94-1.84-.74,0-1.15,0-1.23,0-1.93-.19-3.86-.2-5.79-.01-.06,0-.54,.01-1.45,.02-1.21,0-1.74,.7-1.59,2.08l-1.21,.54-.04-14.48c0-.44,.36-.79,.81-.8l11.43-.22c.41,0,.75,.3,.76,.69h0l-.04,14.06Zm-8.78-6.5l.82,.24c.26,.07,.58-.07,.83-.37,1.89-2.33,1.11-3.37-2.33-3.12-1.62,.12-2.18,.97-1.67,2.54,.11,.34,.34,.6,.62,.69,.29,.09,.57,.09,.86-.01,.23-.08,.53-.07,.87,.03Zm4.07-1.37c1.89,.69,2.11,.28,.67-1.23-.34-.36-.89-.42-1.3-.15-.75,.49-.54,.95,.63,1.38Z"/><path class="ba" d="M243.11,567.68c-.29,.1-.57,.1-.86,.01-.28-.09-.51-.35-.62-.69-.51-1.57,.05-2.42,1.67-2.54,3.44-.25,4.22,.79,2.33,3.12-.25,.3-.57,.44-.83,.37l-.82-.24c-.34-.1-.64-.11-.87-.03Z"/><path class="ba" d="M248.05,566.34c-1.17-.43-1.38-.89-.63-1.38,.41-.27,.96-.21,1.3,.15,1.44,1.51,1.22,1.92-.67,1.23Z"/><path class="as" d="M252.05,574.17c-3.66,.61-7.33,.69-11,.25-.15-1.38,.38-2.07,1.59-2.08,.91,0,1.39-.01,1.45-.02,1.93-.19,3.86-.18,5.79,.01,.08,0,.49,0,1.23,0,1.02,0,1.33,.61,.94,1.84Z"/><path class="ao" d="M252.05,574.17l.71,.04,.03,5c0,.53-.42,.96-.94,.97,0,0-.01,0-.02,0l-11.33-.13c-.28,0-.51-.23-.52-.52l-.14-4.57,1.21-.54c3.67,.44,7.34,.36,11-.25Z"/></g><g><path class="l" d="M339.81,633.18l-.71-.04c.39-1.23,.08-1.85-.94-1.84-.74,0-1.15,0-1.23,0-1.93-.19-3.86-.2-5.79-.01-.06,0-.54,.01-1.45,.02-1.21,0-1.74,.7-1.59,2.08l-1.21,.54-.04-14.48c0-.44,.36-.79,.81-.8l11.43-.22c.41,0,.75,.3,.76,.69h0l-.04,14.06Zm-8.78-6.5l.82,.24c.26,.07,.58-.07,.83-.37,1.89-2.33,1.11-3.37-2.33-3.12-1.62,.12-2.18,.97-1.67,2.54,.11,.34,.34,.6,.62,.69,.29,.09,.57,.09,.86-.01,.23-.08,.53-.07,.87,.03Zm4.07-1.37c1.89,.69,2.11,.28,.67-1.23-.34-.36-.89-.42-1.3-.15-.75,.49-.54,.95,.63,1.38Z"/><path class="ba" d="M330.16,626.65c-.29,.1-.57,.1-.86,.01-.28-.09-.51-.35-.62-.69-.51-1.57,.05-2.42,1.67-2.54,3.44-.25,4.22,.79,2.33,3.12-.25,.3-.57,.44-.83,.37l-.82-.24c-.34-.1-.64-.11-.87-.03Z"/><path class="ba" d="M335.1,625.31c-1.17-.43-1.38-.89-.63-1.38,.41-.27,.96-.21,1.3,.15,1.44,1.51,1.22,1.92-.67,1.23Z"/><path class="as" d="M339.1,633.14c-3.66,.61-7.33,.69-11,.25-.15-1.38,.38-2.07,1.59-2.08,.91,0,1.39-.01,1.45-.02,1.93-.19,3.86-.18,5.79,.01,.08,0,.49,0,1.23,0,1.02,0,1.33,.61,.94,1.84Z"/><path class="ao" d="M339.1,633.14l.71,.04,.03,5c0,.53-.42,.96-.94,.97,0,0-.01,0-.02,0l-11.33-.13c-.28,0-.51-.23-.52-.52l-.14-4.57,1.21-.54c3.67,.44,7.34,.36,11-.25Z"/></g><g><path class="r" d="M289.8,671.59l-1.27,.15c-.38,.05-.71,.03-.93-.07-1.33-.57-2.71-.84-4.16-.81-.24,0-.48,.11-.68,.28-.91,.77-1.07,.61-.46-.47,.18-.29,.15-1.29-.03-2.03-.68-2.75,7.08-2.89,6.52-.26-.28,1.31,.06,2.38,1.01,3.21Z"/><path class="ce" d="M282.3,670.67l1.14,.19c1.45-.03,3.5-.14,3.88-.19h1.73c6.05,.51,5.16,4.77,5.78,7.56,.14,.63,.23,3.23,.26,7.82,.05,6.95-.18,12.01-.42,18.95,0-1.34,0,0-1.87-.15-5.48-.06-10.7,0-15.67,.19-.81,.03-1.5-.61-1.53-1.44,0-.03,0-.07,0-.1l.24-9.12,1.46-.29h14.25l1.45,.13c.28,.03,.53-.15,.56-.41,.42-3.14,.4-6.28-.05-9.43,.11-.43,.06-.81-.13-1.13-.14-.23-.46-.37-.83-.37h-12.25c-1.75,0-3,.26-3.75,.79-.63-.08-.95,.24-.96,.96,.04-1.99,.09-3.99,.14-5.98,.06-2.53,.43-4.3,1.11-5.33,1.12-1.69,2.94-2.58,5.46-2.65Z"/><path class="as" d="M293.51,684.38c-4.9,.34-9.8,.51-14.71,.5-1.29,0-2.04-.4-2.25-1.21,.75-.53,2-.79,3.75-.79h12.25c.37,0,.69,.14,.83,.37,.19,.32,.24,.7,.13,1.13Z"/><path class="cd" d="M276.55,683.67c.21,.81,.96,1.21,2.25,1.21,4.91,0,9.81-.16,14.71-.5,.45,3.15,.47,6.29,.05,9.43-.03,.26-.28,.44-.56,.41l-1.45-.13c.38-.42,.3-.66-.25-.71-3.87-.39-8.37-.48-13.5-.25-.66,.03-.83,.35-.5,.96l-1.46,.29-.25-9.75c.01-.72,.33-1.04,.96-.96Z"/><path class="ba" d="M291.55,694.09h-14.25c-.33-.61-.16-.93,.5-.96,5.13-.23,9.63-.14,13.5,.25,.55,.05,.63,.29,.25,.71Z"/></g><g><path class="r" d="M376.56,615.27l.21,10.75c-.26-.46-.66-.64-1.21-.54,.95-2.42,.74-4.71-.65-6.86-.17-.26-.46-.43-.78-.46-2.58-.25-5.16-.44-7.75-.57-.08,0-1.12-.09-3.12-.28-1.99-.19-3.96-.03-5.91,.46-.1-.46-.1-.91,0-1.35,.07-.27,.33-.46,.64-.45,5.86,.15,11.72,.06,17.57-.26,.38-.02,.71-.17,1-.44Z"/><path class="i" d="M375.56,625.48l-18.21,.29v-8c1.95-.49,3.92-.65,5.91-.46,2,.19,3.04,.28,3.12,.28,2.59,.13,5.17,.32,7.75,.57,.32,.03,.61,.2,.78,.46,1.39,2.15,1.6,4.44,.65,6.86Z"/><path class="ao" d="M375.56,625.48c.55-.1,.95,.08,1.21,.54l-.12,10.81c0,.29-.24,.52-.54,.52h0l-17.85,.15c-.56,0-1.02-.51-1.02-1.15,0-.01,0-.03,0-.04l.11-4.04c.51-.03,.96,.11,1.35,.4,.28,.22,.59,.34,.87,.33,5.07-.21,10.14-.08,15.19,.41,.3,.03,.57-.15,.65-.42,.38-1.22,.38-2.45,0-3.68-.09-.29-.36-.48-.66-.49-6.29-.12-11.36,.11-15.19,.7-1.03,.16-1.77,0-2.21-.5v-3.25l18.21-.29Z"/><path class="ce" d="M357.35,632.27v-3.25c.44,.49,1.18,.66,2.21,.5,3.83-.59,8.9-.82,15.19-.7,.3,0,.57,.2,.66,.49,.38,1.23,.38,2.46,0,3.68-.08,.27-.35,.45-.65,.42-5.05-.49-10.12-.62-15.19-.41-.28,.01-.59-.11-.87-.33-.39-.29-.84-.43-1.35-.4Z"/></g><path class="h" d="M277.78,577.17c.48-11.08-.96-22.13-.8-33.21-.59-3.92-2.71-7.12-4.95-10.22-1.05-1.45-1.46-2.96-1.37-4.7,.08-1.6,.11-3.2,.06-4.8-.05-1.36-.51-1.98-1.57-2.25v-.09s-.05,.01-.08,.01c-.04,0-.08,.02-.13,.03-.04,0-.08-.02-.13-.03-.03,0-.06-.01-.08-.01v.09c-1.06,.27-1.52,.89-1.57,2.25-.05,1.6-.02,3.2,.06,4.8,.09,1.74-.32,3.25-1.37,4.7-2.24,3.1-4.36,6.3-4.95,10.22,.16,11.08-1.28,22.13-.8,33.21,.05,1.19-.3,2.63,.9,3.59,.38-.08,.77-.24,1.16-.24,2.04-.02,4.08-.06,6.12-.09h1.31c2.04,.03,4.08,.07,6.12,.09,.39,0,.78,.16,1.16,.24,1.2-.96,.85-2.4,.9-3.59Z"/><g><path class="bu" d="M349.59,705.07c-3.47,.01-6.93,.02-10.4,0-1.81-.01-1.85-.04-1.86-1.88-.02-6.31-.02-12.62,0-18.93,0-1.53,.04-1.43,1.67-1.36,2.77,.11,5.54,.05,8.32,.1,1.1,.02,6.51-.64,4.07,2.71,0,4.57-.03,9.14,.01,13.71,.02,2.2,.51,2.58,2.58,2.36,1.26-.13,1.61-.69,1.4-1.94-.45-2.66,.3-3.4,3-3.15,2.27,.21,4.54,.25,6.81-.12-1.46-.42-2.96-.25-4.44-.29-1.11-.03-2.22,.05-3.32-.06-.97-.1-2.08-.17-2.12-1.49-.04-1.33,1.06-1.45,2.04-1.56,1.03-.11,2.08-.05,3.11-.06,1.45,0,2.91,0,4.36-.04-1.8-.19-3.61-.09-5.41-.12-.83-.01-1.66,.02-2.48-.17-1.06-.24-1.77-.83-1.77-1.98,0-1.23,.86-1.66,1.91-1.77,1.86-.19,3.74-.06,5.6-.09,.62-.01,1.36,.21,1.83-.1,.42-.28-.34-.2-.41-.44-1.84-1.84-5.34-1.93-8.13-.2-1.07-1.38-.92-2.65,.47-2.73,3.55-.22,7.12-.86,10.66,.13,.9,.67,.91,1.68,.9,2.63-.05,4.22,.28,8.45-.23,12.66-.15,1.23,.2,2.02,1.44,2.34,.69,.18,1.22,.63,1.78,1.04,.07,.36,.18,.69,.56,.85-.51,.64-20.96-.04-21.96-.04Z"/><path class="ca" d="M363.93,687.99c.69,.02,1.39,.03,2.08,.07,.47,.03,.77,.28,.78,.78,.01,.5-.27,.78-.74,.82-.48,.04-.97,.04-1.45,.04-2.57,0-5.13,0-7.7,0-.7,0-1.24,.17-1.26,1.01-.01,.81,.3,1.39,1.16,1.42,1.45,.05,2.91,.04,4.37,.04,1.32,0,2.64,0,3.95,0,.35,0,.7,0,1.03,.07,.74,.16,.73,.75,.64,1.31-.09,.56-.5,.5-.95,.45-2.83-.3-5.68-.08-8.52-.14-.34,0-.69,.02-1.03,.07-.4,.06-.58,.34-.6,.73-.02,.39,.15,.7,.53,.77,.47,.08,.96,.09,1.45,.09,2.29,0,4.58,0,6.87,0,.42,0,.83,0,1.25,.01,.67,0,1.04,.31,1.05,1,0,.67-.31,1.06-.99,1.04-2.56-.06-5.13,.2-7.68-.17-.27-.04-.54-.15-.81-.17-1.5-.11-2.05,.66-1.49,2.06,.08,.19,.19,.37,.28,.56,.67,1.36,.17,2.56-1.28,2.68-1.29,.1-2.8,.55-3.84-.25-.89-.69-.36-2.09-.37-3.17-.03-9.02-.02-18.04-.04-27.06,0-.81,0,0,.74-2.68,.85-2.3,1.47-2.94,3.44-3.82,3.98-.45,7.81,.38,11.61,1.41,1.75,.48,2.46,1.61,2.44,3.36-.02,1.18-.21,2.34-.35,3.51-.33,2.87-.71,3.21-3.68,3.26-1.94,.03-3.88-.01-5.82,.02-.71,.01-1.48-.14-2.14,.47,.68,.73,1.49,.5,2.2,.51,2.22,.03,4.43,.04,6.65-.02,1.11-.03,2.43-.19,2.39,1.48-.04,1.51-1.27,1.38-2.32,1.35-2.35-.08-4.71-.04-7.06-.04-.78,0-1.46,.03-1.69,1.08-.38,1.67-.18,2.08,1.54,1.87,2.42-.31,4.84-.41,7.25-.17,1.26,.13,2.44,.59,1.44,2.28-3.43,.01-6.85,.02-10.28,.04-.54,0-1.16-.06-1.3,.68-.12,.64-.11,1.27,.78,1.35,2.49-1.18,4.97-1.18,7.46,0Z"/><path class="dj" d="M367.26,685.92c-.19-1.61-.19-1.67-1.64-1.64-2.35,.05-4.71-.23-7.04,.33-.53,.13-1.11,.07-1.66,.04-1.29-.07-1.77-.91-.91-1.88,.66-.74,.55-1.01-.08-1.61-.47-.44-.17-.93,.46-.99,.76-.07,1.52-.05,2.28-.05,2.63,.02,5.26,.01,7.89,.13,.7,.03,1.07,.03,1.07-.75,0-.73-.28-.87-1.03-.79-3.17,.32-6.37,.08-9.55,.13-.63,.01-1.26,0-1.41-.85-.17-1.03,.18-1.56,1.29-1.58,2.42-.04,4.85,0,7.28,0,.35,0,.69,0,1.04,0,2.23-.02,2.46,.08,2.47-2.41,0-1.44,.41-2.86,.42-4.32,0-1.11-.44-1.62-1.44-1.91-3.39-.99-6.83-1.73-10.38-1.77-.55,0-1.12,.08-1.53-.43,.26-.16,.53-.32,.79-.48,2.76-.1,0,0,10.54,.81,4.49,.37,5.35,3.24,5.32,6.85-.08,8.51-.02,17.02-.07,25.53-.01,2-.25,4-.38,5.99-1.24,.07-2.36-.41-3.49-.79-.82-.28-.72-1.15-.61-1.81,.8-5.23,.22-10.49,.38-15.73Z"/><path class="bp" d="M364.49,666.27c-.82-.22-5.84-.31-8.03-.45,.44-7.92,.42-9.54,.43-10.09,.03-1.79,.05-1.81,1.9-1.86,1.25-.03,2.49-.05,3.74-.02,1.56,.04,1.82,.27,1.85,1.83,.05,2.77,0,5.54,.02,8.31,0,.76,.06,1.52,.09,2.28Z"/><path class="dj" d="M363.93,687.99c-2.49,0-4.97,0-7.46,0-.07-1.6-.07-1.62,1.34-1.63,1.51-.01,3.02,.01,4.53,0,1.11-.01,1.67,.49,1.59,1.62Z"/></g><g><path class="dl" d="M300.43,579.95c-.37,.25-.79,.25-1.21,.25-2.92,.03-5.85,.08-8.77,.09-1.57,0-1.64-.06-1.68-1.58-.03-1.01,0-2.02,0-3.03h-.36c0,1.03,0,2.05,0,3.08-.5-1.08-.25-2.24-.28-3.35-.17-6.08-.27-12.17-.07-18.26,.16-.14,.33-.15,.51-.03,.65,1.28,2.33,1.93,2.25,3.65,.21,1.06,1.09,.74,1.73,.8,1.49,.13,2.97-.19,4.46-.31,2.56-.2,5.11-.35,7.68-.36,.17,0,.34-.03,.49-.12-.16-.22-.42-.13-.63-.22-.63-.13-1.21-.35-1.15-1.13,.06-.76,.68-.91,1.3-.98,.43-.04,.83-.14,1.17-.4,.42-.36,.45-.9,.62-1.38,1.32-1.82,2.94-3.43,3.65-5.65,.11-.35,.4-.61,.8-.23,.76,9.02,.56,18.03,0,27.05-.04,.72,.27,1.76-.82,2.16l-2.54-.16c-1.01-2.55-.33-5.21-.53-7.81-.06-.75,.23-1.58-.51-2.17-.75-.28-1.54-.32-2.31-.26-4.16,.29-8.32,.49-12.49,.6,3.57-.16,7.15-.08,10.71-.56,1-.13,2.04-.19,3.04,.13,.72,.23,1.34,.6,1.31,1.49-.03,.82-.65,1.09-1.31,1.27-1.22,.32-2.48,.43-3.74,.43-3.66,0-7.32-.01-10.97,.02-.32,.07-.79-.12-.86,.39-.05,.37,.27,.5,.58,.54,1.14,.12,2.27,.06,3.37-.3,1.3-.19,2.61-.15,3.92-.12,1.33,.15,2.65,.21,3.96-.19,.72-.13,1.44-.18,2.17-.15,.83,.25,1.96-.27,2.41,.94,0,.22-.08,.41-.23,.56-.64,.38-1.39,.47-2.08,.7-2.16,.26-4.33,.15-6.5,.12-2.03-.23-4.07-.09-6.1-.09-1.05,0-1.73,.56-1.65,1.68,.08,1.07,.1,2.19,1.72,2.16,2.15-.04,4.31-.04,6.47,.02,.88,.02,1.83-.13,2.49,.7Z"/><path class="ay" d="M303.85,541.28c-.08-.09-8-.25-8.31,0,.02-3.83,.03-7.66,.07-11.49,0-.47,.15-.94,.21-1.41,.11-.79,.58-1.12,1.36-1.13,1.74-.02,3.47-.04,5.21-.08,.72-.02,1.12,.27,1.19,1.01,.05,.59,.22,1.18,.23,1.77,.04,3.29,.04,8.03,.05,11.32Z"/><path class="o" d="M303.9,539.91c0-.42,.05-1.44,.03-1.86-.67-.57-7.15-1.12-8.4-.06-.02,.42-.06,.84-.05,1.26,.04,3.1-1.12,5.72-3.2,7.96,.46,.89,1.32,.66,2.05,.67,.07,0,.15,0,.22,0,.42,.46,1.16,.35,1.68,.63,.21,.03,.42,.04,.64,.04,2.73,.02,5.46,.03,8.18,0,.73,0,1.59,.21,2.05-.67-2.08-2.24-3.24-4.86-3.2-7.96Z"/><path class="w" d="M302.26,547.95c.44-.4,1.1-.14,1.56-.5,1.99-.49,3.79,.01,5.51,.99,1.11,.64,1.78,1.56,1.91,2.82,.11,1,.25,1.99,.26,2.99,.12,8.07,.31,16.15-.28,24.22-.04,.59-.05,1.18-.32,1.73-.28,.02-.56,.01-.78-.18,.54-.89,.62-1.91,.65-2.88,.11-3.81,.56-7.61,.44-11.44-.09-2.88,0-5.77-.06-8.65-.04-1.76-.22-3.51-.37-5.26-.02-.21-.21-.41-.32-.61-.42-.11-.73-.38-1-.69-1.29-1.49-2.95-2.04-4.9-1.94-.79,.04-1.68,.17-2.29-.6Z"/><path class="w" d="M291.02,547.26c2.54,.37,5.09,.12,7.63,.16,1.01,.01,2.01,.01,3.02,.02-.18,1.24-1.22,.92-1.93,.96-2.46,.11-4.92,0-7.38,.06-2.17,.05-2.52,.4-2.94,2.57-.24,1.24-.3,2.5-.32,3.76-.02,.83,.08,1.71-.65,2.34l-.39,.03c-.15-2.07-.05-4.14,.07-6.21,.11-1.91,.84-3.31,2.89-3.68Z"/><path class="x" d="M300.43,579.95c-3.17-.02-6.35-.03-9.52-.05-1.68-.01-1.73-.04-1.73-1.7,0-3.89-.48-3.31,3.3-3.34,1.68-.02,3.35,.04,5.03,.06-.31,.99-1.18,.87-1.92,.92-1.49,.11-2.99-.05-4.49,.12,.04,.42,.33,.35,.5,.33,4.24-.52,8.51-.18,12.76-.28,2.13-.05,2.25-.27,2.36-2.43,.08-1.5-.31-3.08,.53-4.5,.48,.5,.32,1.13,.33,1.71,.02,1.62,0,3.24,.02,4.86,0,.89-.11,1.8,.24,2.67,.22,.55,.03,1.06-.25,1.55-2.38,.03-4.77,.06-7.15,.08Z"/><path class="at" d="M288.44,557.13c0-2.16,0-4.31,.33-6.46,.36-2.3,.87-2.84,3.27-2.88,2.64-.05,5.28-.02,7.92-.06,.57,0,1.21,.22,1.71-.29,.19-.02,.39-.05,.58-.07,1.18,0,2.37-.07,3.55,.04,2.15,.19,3.82,1.13,4.65,3.25,.07,2.36-1.46,3.88-2.91,5.42-.24,.25-.55,.44-.71,.77-.74,.68-1.66,.6-2.55,.59-3.47-.04-6.93,.08-10.4,.09-.71,0-1.43,0-2.23,.61,2.25,.3,4.31,.25,6.37,0,2.39-.29,4.78-.17,7.17-.15,.61,0,1.19,.13,1.65,.58-.55,.72-1.33,.29-2,.4-.43,.07-1.1-.15-1.08,.58,.01,.56,.62,.42,.99,.54-.15,.77-.77,.87-1.37,.85-3.52-.12-7,.58-10.52,.52-.89-.01-1.81,.06-2.55-.6-.04-.69,.01-1.44-.83-1.74-.98-.34-1.01-1.16-1.02-1.99Z"/><path class="al" d="M307.24,569.07c0,2.04,.03,4.08,.01,6.11-.01,1.38-.05,1.42-1.43,1.43-3.72,.04-7.43,.04-11.15,.1-1.31,.02-2.62,.18-3.94,.25-.4,.02-.85,.06-1.09-.42-.33-.64,.05-1.27,.89-1.3,1.62-.07,3.24-.04,4.85-.08,.71-.02,1.45,.12,2.12-.25,2.29,0,4.59,.04,6.88-.16,.56-.22,1.2,.1,1.75-.23l.04-.03c.25-.46,.16-.84-.38-.88-.63-.04-1.27-.14-1.89,.11l-2.12,.12c-1.32,.31-2.69-.12-4.01,.24-1.43,.04-2.86,.08-4.29,.12-.87,.23-1.76,.07-2.65,.1-.47,.02-1,.07-1.18-.52-.2-.65-.03-1.17,.67-1.42,4.86-.04,9.73,.01,14.58-.31,.3-.02,.6-.02,.9-.07,.33-.05,.53-.27,.57-.6,.05-.38-.04-.72-.44-.89-.63-.26-1.29-.3-1.95-.26-4.13,.25-8.26,.51-12.4,.77-.3,.02-.59,.11-.89,.12-.39,.02-.73-.09-.79-.54-.05-.39,.08-.7,.47-.87,.57-.24,1.18-.21,1.77-.23,4.38-.14,8.76-.29,13.14-.39,.64-.01,1.29-.35,1.93-.03Z"/><path class="n" d="M306.84,558.56c-.95,.23-1.92,.04-2.87,0-3.72-.14-7.41,.47-11.12,.41-.48,0-.96,0-1.44,.01-.67,.03-1.01-.26-1.01-.94,0-.65,.28-1,.96-1.01,1.68-.03,3.35-.09,5.03-.1,3.48-.04,6.95-.06,10.43-.08v1.71Z"/><path class="al" d="M297.96,566.25c2.87-.14,5.52-.02,8.14-.34,.86-.11,1.12,.18,1.06,.97-.03,.41-.17,.64-.67,.59-4.86-.48-9.68,.18-14.52,.49-.36,.02-.72,.04-1.08,.02-.44-.02-.62-.3-.63-.71,0-.43,0-.89,.55-.97,.41-.06,.84-.05,1.25-.05,2.04,0,4.08,0,5.88,0Z"/><path class="cx" d="M290.3,560.86c4.11-.17,8.23-.33,12.34-.51,.71-.03,1.44,.11,2.11-.26,.36,0,.72,.02,1.08,.03,.52,0,.99,.06,.91,.77-.06,.58-.46,.58-.91,.59-1.32,.01-2.63,.02-3.95,.1-2.98,.2-5.96,.44-8.94,.66-.42,.03-.84,.07-1.25,.07-1.22,0-1.22,0-1.38-1.44Z"/><path class="q" d="M298.55,564.52c-2.46,0-4.92,0-7.37,0-.37,0-.75,.08-.82-.42-.08-.54,.21-.76,.72-.76,.24,0,.48,0,.72,0,4.74,.18,9.46-.42,14.18-.57,.46-.02,.85-.13,.9,.48,.04,.56,.04,1.1-.78,1.1-2.52-.01-5.04,0-7.56,0v.18Z"/><path class="x" d="M290.33,572.36c-.65,1.55-.52,1.77,1.04,1.8,.71,.01,1.42,.02,2.12,.03-1.01,.56-2.11,.2-3.16,.29-.7,.06-1.13-.21-1.15-1-.02-.83,.27-1.26,1.15-1.12Z"/><path class="x" d="M297.77,574.08c1.32-.44,2.67-.28,4.01-.24-1.31,.54-2.67,.21-4.01,.24Z"/><path class="x" d="M303.9,573.71c.64-.42,1.37-.34,2.04-.23,.62,.1,.66,.55,.23,1.01-.09-.47-.36-.72-.85-.72-.47,0-.94-.03-1.42-.05Z"/><path class="x" d="M306.13,574.52c-.53,.45-1.15,.26-1.75,.23,.54-.42,1.16-.21,1.75-.23Z"/></g><g><path class="dm" d="M314.69,668c-.05,1.84-.37,3.4,2.2,4.35,1.17,.68,2.13,1.81,3.01,2.88,.77,.94,1.66,1.16,2.79,1.16,3.35,0,6.71,.05,10.06,.11,.49,0,1.02-.14,1.44,.26,.11,1.68,.09,3.35,.08,5.03,0,.55,.12,1.14-.33,1.6-.8,.54-1.71,.43-2.6,.44-2.29,.03-4.56-.28-6.82-.54-.94-.79-2.15-1.32-2.61-2.41-.02,.07,.17,.45-.15,.7-1.26-.48-.62-1.56-.83-2.38-.78,.44-1.53,1.07-2.46,1.39-3.69,.42-7.39,.09-11.09,.2-.17,0-.34,0-.5,0q-3.33,0-4.26,3.21c-.05,.16-.15,.3-.24,.44-.62,.38-.87-.13-.91-.52-.21-2.5-1.04-4.97-.3-7.51,1.36-1.7,2.94-3.17,4.77-4.32,.82-.51,.72-.27,.94-1.92-.08-.25,.25-1.34,.2-1.61-.17-.86,1.98-.73,3.23-.6,.98,.1-1.91,.26,4.37,.03Z"/><path class="dq" d="M333.86,683.17c0-1.87,.03-3.75,.01-5.62,0-.34-.12-.66,.32-.8,.06,.26,.11,.52,.17,.79,.18,1.89,.03,3.78,.08,5.67,.05,3.69-.11,7.37,.08,11.06,.09,2.65,.1,5.31,0,7.96-.25,.6,.17,1.3-.27,1.87-.41,1.69-.41,1.67-2.16,1.67-3.47,0-6.94,.05-10.41,.06-.61,0-1.23-.04-1.84-.07,.21-.92,.98-.57,1.5-.57,3.15-.04,6.29-.02,9.44-.02-3.47,0-6.94-.07-10.4,.04-1.07,.04-1.41-.44-1.62-1.27-.44-1.77-.3-3.57-.26-5.37,.06-2.69,.36-5.39-.26-8.05-.28-2.88-.12-5.76-.12-8.64,0-.62,.13-1.22,.59-1.68,.65-.78,1.41-1.35,2.51-1.48,.51,.91-.11,1.99,.5,2.84,.43,.26,.57,.69,.54,1.15-.09,1.51,.2,2.98,.36,4.47,0,.3,.01,.61,.01,.91-.04,3.68,.1,7.37,0,11.06-.02,.62,.12,1.22,.16,1.84,.06,.88,.53,1.11,1.36,1.02,2.79-.31,5.59-.09,8.38-.17,1.23-.04,.88-.81,.68-1.51-.04-.16-.06-.32-.07-.48-.29-1.93,.13-3.84,.12-5.76-.1-.12-.2-.23-.32-.34-1.09-.57-2.13-.08-3.19,.1-1.75,.02-3.49,.05-5.23,0-1.54-.04-1.85-.52-1.55-2.16,.94-.88,2.1-.67,3.18-.52,1.89,.27,3.79,.15,5.69,.22,1.07,.04,1.43-.4,1.52-1.46,.13-1.52-.09-3.01-.03-4.52,.03-.78,0-1.57,.54-2.23Z"/><path class="ay" d="M314.69,669.36c-.07-.09-7.49-.23-7.78,0,.02-3.59,.03-7.17,.06-10.76,0-.44,.14-.88,.2-1.32,.1-.74,.55-1.05,1.27-1.05,1.62-.01,3.25-.03,4.87-.07,.68-.02,1.05,.25,1.11,.95,.05,.56,.21,1.11,.21,1.66,.03,3.08,.04,7.52,.05,10.6Z"/><path class="bn" d="M301.17,676.42c.34,2.28,.63,4.58,.68,6.89,0,.44-.05,.9,.32,1.25,.65,.52,.64,1.28,.65,1.99,.05,4.97,.13,9.94-.45,14.88-.45,1.72-.74,3.4,1.21,4.47-3.69-.11,.3-.04-3.69-.11-.3-1.37-.38-2.19-.4-3.59-.12-6.67,0-13.33,.06-20,.01-1.06,.11-2.13,.26-3.18,.14-1.01,.51-1.95,1.36-2.61Z"/><path class="de" d="M303.59,705.9c-2.07-.18-2.08-.18-2.04-2.36,0-.59-.18-1.24,.32-1.75,1-.14,1.03-.92,1.04-1.66,.02-1.35,.19-2.69,.37-4.03,.15-1.18,.66-1.74,1.96-1.78,2.75-.09,5.5-.16,7.62-.14-2.1,.01-4.83-.06-7.55,.16-1,.08-1.85-.1-1.83-1.37,.02-1.14,.76-1.34,1.72-1.33,2.87,.02,5.72-.33,7.24-.22-1.5-.1-4.34,.2-7.19,.23-.92,0-1.73-.09-1.78-1.26-.04-1.11,.62-1.4,1.6-1.49,3.09-.29,6.18,0,7.81-.08-1.69,.09-4.85-.24-8,.1-.28,.03-.6,.05-.82-.14-1.12-.96-.76-2.26-.69-3.46,.06-.96,.61-1.63,1.62-1.59,3.65,.14,7.28-.54,10.93-.38,1.33,.06,1.96,.65,2.05,1.93,.06,.9,.14,1.81,.01,2.7-.4,2.68-.21,5.34,.11,7.83,.38-1.59-.57-3.54,.68-5.19,.44,.54,.28,1.18,.29,1.78,.03,2.86,.05,5.72,.04,8.58,0,1.29,.07,2.56,.46,3.88,4.59-.06,9.19-.06,13.8,.15-.38,.64-.96,.47-1.46,.47-3.48,.02-6.96,.02-10.43,.04-.55,0-1.13-.16-1.63,.23-5.41,.17-10.83,.15-16.25,.14Z"/><path class="aj" d="M318.77,690.62c-.01,2.14-.03,4.27-.05,6.41,0,.32,.08,.76-.36,.83-.39,.06-.56-.32-.69-.62-.11-.26-.24-.54-.23-.8,.06-2.46-.62-4.89-.16-7.39,.25-1.36,.06-2.81,.07-4.21,0-.62-.27-.95-.91-.93-2.08,.07-4.16-.15-6.23,.16-1.4,.21-2.81,.09-4.21,.1-2.16,.02-2.16,0-2.16,2.08,0,2.24,0,2.19,2.21,2.08,1.97-.09,3.94-.06,5.91-.09,.9-.01,1.8,.04,2.68-.21,.43-.12,.9-.14,1.32,.09,.26,.15,.37,.42,.32,.72-.04,.24-.21,.41-.45,.43-.45,.03-.9,.05-1.35,.05-3.15,0-6.3-.03-9.45-.02-1.01,0-1.26,.3-1.19,1.15,.04,.54,.31,.83,.85,.83,.9,0,1.82,.1,2.7-.05,2.63-.44,5.28-.14,7.91-.24,.17,0,.34,.02,.5,.04,.25,.03,.43,.18,.44,.42,.02,.25-.15,.43-.39,.45-.45,.04-.9,.06-1.35,.06-3.09,0-6.19,0-9.28,0-.61,0-1.28-.09-1.36,.83-.07,.82,.15,1.11,.99,1.18,.96,.08,1.9-.22,2.84-.25,2.42-.08,4.84-.07,7.26-.08,.22,0,.45,0,.67,.07,.23,.06,.38,.26,.32,.51-.03,.14-.17,.35-.28,.37-.44,.07-.89,.1-1.34,.1-2.93,0-5.85-.01-8.78-.01-1.6,0-1.53,.02-1.72,1.52-.21,1.68-.33,3.35-.32,5.04,0,.46-.05,.93-.57,1.11-.54,.19-.84-.15-1.08-.56,.31-5.74,.44-11.49,.31-17.24,.11-1.11,.06-2.23,.27-3.34,.14-.74,.35-1.09,1.15-1.08,5.04,.04,10.08,.04,15.12,.06,.02,3.48,.04,6.95,.06,10.43Z"/><path class="bq" d="M333.86,683.17c.02,2.7,.03,5.39,.05,8.09,0,.72-.22,1.09-1,.8-.1-.04-.22-.05-.33-.04-3.15,.21-6.26-.39-9.4-.33-.8-.76-.56-1.66-.35-2.55,.52-.78,1.35-.7,2.12-.73,2.18-.07,4.36-.3,6.56-.07-.83-.21-1.68-.16-2.5-.33-2.04-.56-4.15,.02-6.2-.38-.2-.09-.35-.22-.46-.4-.09-.99-.21-1.98-.32-2.97-.2-1.77,.37-2.14,2.09-1.4,3.25-.06,6.48,.6,9.74,.33Z"/><path class="da" d="M324.12,682.85c-.17,0-.34,0-.5,0-1.54,.07-1.5,.07-1.3,1.52,.13,.94,.11,1.89,.16,2.84-.09,.13-.2,.15-.32,.06-.46-1.88-.35-3.81-.44-5.72,.04-.44,.08-.89,.12-1.33,.26,.66,.73,1.05,1.34,1.34,.52,.24,.93,.63,.94,1.29Z"/><path class="da" d="M323.15,688.97c.01,.9,.02,1.81,.03,2.71-.02,1.62-.02,1.64,1.47,1.64,1.86,0,3.71-.02,5.57-.03,1.13-.17,2.25-.27,3.37,.06h0c.51,1.28-.06,1.82-1.3,1.72-1.91-.15-3.82-.11-5.73-.12-.34,0-.68-.05-1.01,.02-.54,.11-1.5-.24-1.45,.64,.04,.67,.93,.47,1.44,.39,1.5-.23,3.03-.18,4.53-.42,.44-.07,.9-.12,1.34-.05,.5,.07,1.11,.11,1.19,.72,.06,.48-.41,.76-.82,.97-1.59,.83-3.34,.94-5.07,1.09-.62,.05-1.24,0-1.85,.07-.38,.05-.88,.05-.82,.61,.04,.4,.47,.44,.8,.46,1.74,.11,3.47,0,5.21-.16,1.23-.12,2.62-.56,3.54,.82v.34c.22,.73,.46,1.46-.35,2.01-3.25,.08-6.52-.15-9.76,.29-1.11,.15-1.33-.05-1.33-1.13-.02-4.55,0-9.11,0-13.66,1.28,.56,.08,1.58,.45,2.28,.23-.36-.39-1.15,.54-1.25Z"/><path class="bq" d="M333.6,700.1c-1.24-.56-2.56-.42-3.81-.2-1.91,.33-3.81,.1-5.72,.17-.75,.03-.95-.42-.94-1.08,0-.66,.03-1.25,.93-1.27,1.68-.03,3.36-.04,5.04-.24,1.21-.14,2.1-.8,3.46-1.12-.72-.42-1.26-.39-1.69-.28-1.65,.43-3.36,.15-5.02,.52-.43,.1-.9,.05-1.34,.08-1.18,.08-1.41-.08-1.34-1.49,.03-.55,.29-.83,.84-.82,2.75,.04,5.51-.22,8.25,.17,1.16,.17,1.16,.2,1.34-1.18,.41,.34,.39,.83,.29,1.24-.42,1.82-.2,3.67-.28,5.51Z"/><path class="m" d="M323.15,688.97c-.58,.38-.21,1.05-.5,1.62-.44-.88,.11-1.88-.49-2.64,0-.22,0-.45,0-.67,.11,0,.22-.02,.32-.06,.1,.03,.21,.04,.32,.06,2.13,.43,4.3-.07,6.43,.27,.95,.03,1.9,.05,2.84,.09,.44,.02,1.01,.01,1.02,.6,.01,.72-.63,.65-1.11,.66-.72,.01-1.45,.03-2.18-.01-2.22-.13-4.44,.04-6.66,.09Z"/><path class="bq" d="M333.6,693.36c-1.12-.02-2.25-.04-3.37-.06,1.13-.42,2.26-.53,3.37,.06Z"/><path class="aa" d="M310.77,681.49c1.68,0,3.37,0,5.05,0,.39,0,.79,.01,1.17,.11,.3,.08,.36,.39,.34,.69-.02,.24-.13,.44-.36,.52-.21,.06-.44,.09-.66,.09-3.7,0-7.39,.46-11.09,.3-.38-.02-.81,.09-1.12-.22-.26-.26-.25-.62-.16-.95,.12-.5,.55-.5,.94-.51,1.96,0,3.93,0,5.89,0v-.03Z"/><path class="da" d="M329.23,687.54c-1.84,0-3.67,.02-5.51,.03-.34,0-.67-.04-.92-.3,1.72,0,3.44,0,5.16,0,.44,0,.89-.03,1.27,.27Z"/></g><line class="ck" x1="517.23" y1="883.47" x2="517.19" y2="885.99"/><path class="cy" d="M289.96,638.51c.13,1.08-.51,1.24-1.39,1.23-2.85-.02-5.71,0-8.56,0-1.46,0-2.92,.04-4.38,.04-.63,0-1.27,.1-1.86-.22-.56-.75-.69-1.62-.71-2.53-.12-5.42,.6-10.81,.42-16.23-.02-.57,.11-1.14,.42-1.64,1.19-.76,1.11,.39,1.15,.9,.08,1.13,.62,1.41,1.62,1.2,.79,.11,1.57,.3,2.36,0,.18-.04,.36-.05,.54-.06,1.46,.05,2.95,.94,4.36-.16,.15-.21,.28-.42,.25-.86-.85,.5-1.44,2.34-2.68,.67-.55-.99,.38-2.34-.76-3.19-.18-.03-.36-.04-.54-.02-.87,.19-1.75,.39-2.64,.27-.94-.12-1.52-.63-1.54-1.62-.02-.97,.41-1.49,1.43-1.66,1.71-.28,3.43-.02,5.13-.34-1.44,.07-2.87,.18-4.31,.22-2.06,.06-2.1,.08-2.34-1.95-.04-.32-.13-.62-.19-.93,.28-1.54-1.3-.87-1.78-1.52-.24-1.1,.3-1.57,1.33-1.58,4.22-.03,8.43-.01,12.65-.01,1.14,0,1.79,.67,2.16,1.59,.38,.94,.65,1.92,.63,2.97-.11,6.07,.32,12.15-.27,18.2-.23,2.41-.13,4.82-.48,7.21Z"/><path class="bo" d="M290.76,630.01c6.68,.13,4.53,.29,6.68,.13,2.98-.22,5.98-.09,8.97-.11,.02,2.86,.04,5.73,.06,8.59,0,.46-.07,.89-.42,1.23-2.88-.27-5.75-.02-8.63,0-1.86,.01-3.71,.02-5.57,.1-.95,.04-1.22-.37-1.19-1.26,.06-1.85,.05-3.71,.07-5.56-.54-.68-.55-2.66,.03-3.11Z"/><path class="bo" d="M258.79,696.02c6.68,.13,4.53,.29,6.68,.13,2.98-.22,5.98-.09,8.97-.11,.02,2.86,.04,5.73,.06,8.59,0,.46-.07,.89-.42,1.23-2.88-.27-5.75-.02-8.63,0-1.86,.01-3.71,.02-5.57,.1-.95,.04-1.22-.37-1.19-1.26,.06-1.85,.05-3.71,.07-5.56-.54-.68-.55-2.66,.03-3.11Z"/><path class="bo" d="M241.52,696.02c6.68,.13,4.53,.29,6.68,.13,2.98-.22,5.98-.09,8.97-.11,.02,2.86,.04,5.73,.06,8.59,0,.46-.07,.89-.42,1.23-2.88-.27-5.75-.02-8.63,0-1.86,.01-3.71,.02-5.57,.1-.95,.04-1.22-.37-1.19-1.26,.06-1.85,.05-3.71,.07-5.56-.54-.68-.55-2.66,.03-3.11Z"/><path class="bl" d="M291.08,631.47c-.11,.55-.23,1.1-.34,1.65-.65,.88-.28,1.91-.41,2.87-.12,.84,.23,1.74-.36,2.51-.13-3.07-.21-6.13,.23-9.19,.06-.44,.07-.89,.08-1.34,.03-4.61,.05-9.22,.09-13.82,.01-1.23-.11-2.43-.55-3.58-.39-1.04-1.04-1.67-2.28-1.66-3.97,.02-7.93-.05-11.9-.05-1.37,0-1.38,.08-1.1,1.61,1.41,1.72,.6,3.75,.76,5.64,.08,.98,.14,2.05-.77,2.79-.3,.38-.27,.84-.28,1.28-.15,6.45-.3,12.91-.45,19.36-.85-.36-1.72-.36-2.6-.2-.1-.08-.19-.15-.29-.23-.35-.48-.45-1.05-.46-1.62-.13-5.25,.12-10.51-.3-15.76-.1-.94-.14-1.89,.04-2.82,.32-2.47,.25-4.96,.25-7.44,0-1.28-.53-1.84-1.83-1.85-2.16-.02-4.34,.12-6.48-.35-.73-.16-1.56-.14-1.89-1.04,.71-.04,1.43-.08,2.14-.12,.96-.79,1.94-.77,2.94-.06,4.34,.25,8.68,.09,13.03,.09,3.07,0,6.13-.06,9.2-.07,1.96,0,2.78,.64,3.25,2.53,.27,1.06,.32,2.15,.32,3.24,0,5.88,0,11.76-.01,17.63Z"/><path class="bw" d="M271.09,639.25c-.43,.14-.86,.14-1.3,.03-3.35-.55-6.73-.37-10.09-.39-2.3-.02-4.59,0-6.89-.01-.68,0-1.42,.16-1.98-.43-.48-.53-.38-1.2-.4-1.83-.21-7.87-.21-15.75-.07-23.62,.01-.83,.08-1.67,.22-2.48,.27-1.64,.8-2.16,2.56-2.29,2.36-.17,4.72-.25,7.08,.01,2.68,.72,5.43,.65,8.17,.69,2.65,.04,2.7,.04,2.66,2.62-.04,2.48,.32,4.99-.33,7.45-1.75,.98-3.72,.62-5.59,.86-1.69,.22-3.42,.34-5.14,.13-.19-.02-.39-.04-.57,0-.53,.09-1.33-.05-1.26,.78,.06,.68,.8,.59,1.25,.51,2.27-.38,4.57,0,6.85-.22,1.48-.15,3.05-.49,4.45,.46,.65,5.9,.29,11.82,.39,17.74Z"/><path class="aw" d="M265.29,609.05c-.98,.21-5.46-.18-6.72-.28-1.44-.11-1.68-.28-1.56-1.75,.19-2.42,.49-4.83,.74-7.24,.09-.84,.92-6.59,2.71-7.11,.37-.11,.75-.18,1.12-.25,1.43-.24,1.86,0,2.23,1.38,.76,2.84,1.15,5.75,1.51,8.66,.16,1.27,.28,2.54,.31,3.82,.02,.92,.4,1.92-.34,2.76Z"/><path class="dd" d="M277.97,605.4c.17-1.79,1.2-9.56,1.5-10.24,.4-.92,1.03-1.39,2.06-1.38,2.9,.02,3.38-.24,3.71,3.21,.3,3.11,.54,6.22,.87,9.33,.04,.38,.03,.77,.04,1.15,.02,.67-.34,.94-.96,.82-1.84-.34-3.69-.16-5.54-.24-1.67-.08-1.67-.07-1.68-1.77,0-.26,0-.51,0-.88Z"/><path class="bd" d="M250.82,638.45c4.77,.01,9.54-.01,14.3,.06,1.58,.02,3.15,.3,4.67,.78-6.31,.16-12.61,.14-18.92-.01-.02-.27-.03-.55-.05-.82Z"/><path class="cg" d="M274.51,618.91c0-2.81,.01-5.62,.02-8.44,.18-.48,.03-1.24,.92-1.14,.72,.08,.62,.66,.67,1.15,.01,.13,0,.25,.01,.38s0,.25,.01,.38c.29,1.62,.21,3.24,.17,4.87-.04,1.96,.38,2.4,2.27,2.35,.92-.02,1.28,.44,1.3,1.24,.02,.7-.15,1.38-.67,1.92h-.02c-.78,.27-1.56,.27-2.34,0q-2.22,1.03-2.24-1.41c0-.43-.06-.86-.09-1.3Z"/><path class="cm" d="M279.2,621.61c.02-.7,0-1.4,.2-2.08,.08-.26,0-.52-.23-.67-.27-.18-.47,.04-.66,.2-.15,.12-.27,.28-.44,.36-1.11,.55-1.89,.14-1.92-1.12-.06-2.36-.02-4.71-.02-7.07,.46,.47,.3,1.07,.34,1.63,.09,1.41,.09,1.37,1.41,1.18,1.5-.21,3.02-.35,4.54-.49,.44-.04,.9-.02,1.33,.07,.46,.09,.85,.38,.75,.92-.08,.45-.5,.53-.9,.53-1.97,0-3.94,.02-5.92,0-.92-.02-1.25,.39-1.21,1.27,.03,.72,.38,.96,1.08,1.02,1.1,.09,2.11-.53,3.21-.33,.5,.79,.61,1.69,.48,2.56-.25,1.66,.5,2.05,1.94,1.68,.53-.14,1-.14,1.37,.32-1.78,.7-3.56,.44-5.35,.02Z"/><path class="dn" d="M284.55,621.59c-1.14,0-2.27,0-3.41-.02-.41,0-.86-.15-.7-.63,.41-1.29,.14-2.62,.32-3.91,.11,0,.22,0,.32-.02,.84,.39,.54,1.16,.6,1.81,.07,.67-.16,1.37,.16,2.03,.27,.39,.64,.42,.98,.15,.18-.14,.3-.41,.38-.64,.22-.66,.05-1.8,1.24-1.41,.96,.31,.56,1.28,.48,2-.02,.23-.24,.43-.36,.65Z"/><path class="cm" d="M281.84,620.84c-.49-.54-.3-1.21-.34-1.83-.05-.69,.09-1.42-.42-2.01,.69,.02,.78,.5,.78,1.03,0,.93-.01,1.87-.02,2.8Z"/><path class="cm" d="M276.84,621.62c.78,0,1.56,0,2.34,0-.78,.57-1.56,.49-2.34,0Z"/><path class="bt" d="M270.69,621.52c-3.02,.09-6.03,.39-9.07,.16-.98-.07-2.07,.34-3.13,.32-.71-.01-1.43,.07-1.37-1.06,.07-1.4,.2-1.7,1.45-1.68,2.27,.04,4.54,.13,6.8-.06,1.78-.15,3.55-.33,5.34-.21,0,.84,0,1.68,0,2.52Z"/><path class="ac" d="M253.79,620.29c0-.22,0-.35,0-.47,.07-1.31,.55-1.56,1.64-.87,.69,.44,.94,2.11,.4,2.72-.39,.44-.94,.43-1.41,.3-.96-.27-.51-1.14-.63-1.68Z"/><path class="ac" d="M253.98,617.91c-.28-1.42-.15-2.62-.06-3.82,.04-.47,.29-.89,.83-.87,.63,.02,.89,.45,.84,1.04-.1,1.32-.14,2.67-1.62,3.65Z"/><g><path class="bh" d="M353.2,544.38c1.06,.23,2.07-.06,3.09-.28,.05,.04,.13,.08,.14,.13,.58,3.07,2.8,3.17,5.29,3.05,2.65-.12,5.32-.08,7.98,0,2.67,.07,3.56,.9,3.6,3.51,.08,4.93,.07,9.86,0,14.79-.03,2.26-.34,2.47-2.63,2.45-3.05-.02-6.1,0-9.15,0,2.94,.01,5.87,0,8.81,0,.52,0,1.03,.02,1.54,.15,.83,.21,1.21,.71,1.15,1.54-.06,.88-.61,1.24-1.45,1.21-2.53-.09-5.04,.31-7.57,.22-.77-.03-1.56-.08-1.94,.02,2.83,.12,6.03-.25,9.25-.22,.84,0,1.6,.12,1.81,1.08,.2,.95-.25,1.78-1.07,2.09-2.96,1.09-5.67,2.94-8.98,2.99-.76,.01-1.55-.09-2.44,.33,1.23,.87,3.09,.31,3.89,2-1.59,.65-3.24-.03-4.77,.42-1.22,.03-2.44,.01-3.65,.09-.95,.06-1.02-.5-1-1.19-.52-2.66-.27-5.37-.33-8.04-.14-6.39-.06-12.79-.04-19.19,0-1.62-.14-3.22-.41-4.82-.1-.6-.22-1.14-.82-1.43-.28-.24-.55-.49-.33-.91Z"/><path class="bg" d="M354.32,579.5c-.17,.34-.49,.38-.82,.38-4.65-.02-9.31-.05-13.96-.07-.57-.68-.74-1.48-.77-2.34-.28-8.66,.55-17.31,.41-25.97,0-.58,.09-1.16,.38-1.68,1.26-.73,1.28,.41,1.24,1.01-.1,1.65,.78,1.95,2.14,1.92,1.49-.04,2.98,.03,4.47-.02,2.28-.07,4.52,0,6.59,1.13,.67,.74,.65,1.67,.66,2.58,.05,6.55-.1,13.11,.23,19.66,.06,1.18-.12,2.33-.58,3.42Z"/><path class="ak" d="M359.77,579.86c1.33-.72,2.81-.07,4.27-.46-.28-.57-.77-.58-1.26-.65-.96-.14-1.91-.28-2.87-.44-.47-.08-.91-.32-1-.81-.11-.65,.51-.61,.9-.78,.74-.33,1.51-.34,2.29-.32,2.32,.08,4.49-.38,6.47-1.66,.59-.38,1.25-.7,2-.69,.47,0,.89-.18,1.29-.4,.6-.35,1.03-.85,.86-1.57-.16-.73-.8-.7-1.4-.74-2.4-.15-4.75,.52-7.16,.41-1.6-.07-3.19-.09-4.91-.61,3.71-.82,7.28-.52,10.82-.58,.58,0,1.17,0,1.75-.03,.56-.03,.78-.4,.78-.92,0-.51-.18-.9-.74-.95-.45-.04-.91-.02-1.36-.02-3.31,0-6.62,0-9.92-.03-.53,0-1.41,.23-1.41-.58,0-.81,.87-.59,1.4-.58,3.76,.06,7.52-.22,11.27,.15,.52,.05,.72-.17,.76-.61,.03-.39,.02-.78,.02-1.17,0-5.06,0-10.12,0-15.18,0-1.48-1.22-2.71-2.7-2.71-3.5-.02-7.01-.12-10.51,.03-2.18,.09-3.44-.95-3.15-3.28,.02-.19,.02-.39,.03-.58,1.78-.91,2.98-2.23,3.1-4.33,.6-1.08,1.68-1.03,2.76-.97,.47,.02,1.22,.12,1.68,.21,1.66,.32,2.81,.2,2.77-1.73-.01-.57,0-1.37,.95-1.39l.05,1.52c.46,1.54-.19,3.16,.35,4.69,1.03,.96,2.42,1.21,3.63,1.8,5.79,2.84,4.74,3.04,5.06,9.75,.13,2.86,.21,7.53,.11,10.39-.15,4.58-.09,9.17-.18,13.75-.03,1.71,.22-.69-.08,2.16,.02-.19-7.39-.08-15.78,0-.32,0-.64-.06-.96-.09Z"/><path class="bm" d="M337.93,579.74c-.03-2.58-.06-5.15-.11-7.73-.01-.64,.11-1.29-.2-1.9-.66-.47-.77-1.2-.77-1.91-.06-7.06-.12-14.12,.03-21.18,0-.26,.09-.51,.17-.76,1.08-1.65,2.09-.81,3.1,.09,.49,1.09,.68,2.16-.22,3.15-.02,1.55-.04,3.11-.06,4.66-.12,7.51-.25,15.01-.36,22.52-.02,1.04,.03,2.07,.04,3.11-.53-.15-1.07-.21-1.61-.06Z"/><path class="p" d="M354.32,579.5c-.32-7.82-.43-15.65-.5-23.47,0-.76,.15-1.56-.25-2.28-.51-.37-.72-.93-.65-1.51,.19-1.78-.23-3.55-.06-5.33,.19-.7-.05-1.54,.68-2.06,1.01-.13,1.41,.47,1.52,1.34,.14,1.16,.29,2.32,.32,3.48,.19,8.87,.16,17.74,.02,26.61-.01,.84-.03,1.68-.27,2.5-.27,.24-.54,.49-.8,.73Z"/><path class="dp" d="M353.54,544.84l-.03,1.95c-1.02,.56-2.14,.33-3.22,.34-2.57,.02-5.14,.02-7.71,0-.97,0-1.94-.01-2.72-.74-.48-.17-.97-.33-1.44-.52-.33-.14-.61-.15-.85,.14-.25,.07,.08,.06-.18,.08-5.78,.4-11.56,.47-17.33-.04-.39,.11-.81,.27-.78-.41,1.47-1.62,3.43-2.41,5.41-3.15,.59-1.05,8.2-.86,8.54-.38,1.2,.44,2.43,.68,3.47,1.61,.94,.86,2.87,.3,3.58-.82,.2-.32,.36-.7,.43-1.07,.57-3.04,1.58-6,1.51-9.15-.03-1.42,.03-1.47,1.36-1.5,1.55-.03,3.1,.03,4.65,.02,.9,0,1.3,.44,1.33,1.29,.02,.71,.11,1.43,.03,2.13-.34,3.16,.87,5.82,2.57,8.34,.33,.48,.68,.94,1.03,1.41,.11,.16,.23,.31,.34,.47Z"/><path class="do" d="M332.7,532.83l.17,9.32c-8.17,.35,0,0-8.17,.35-.01-3.49,.86-6.9,.85-10.39,0-.76,.35-1.24,1.15-1.24,1.74,0,3.43-.39,5.16-.07,.86,.16,.99,1.26,.84,2.02Z"/><path class="bj" d="M367.55,535.89c.19,4.05,.26,3.05,.19,4.05-.05,.78-.06,.5-8.4,.34,.49-1.51,.42-3.57,.43-5.11,0-.97,0-1.94,0-2.91,0-.57,.17-.99,.84-1.08,1.73-.21,3.45-.5,5.2-.33,1.49,.14,1.72,.38,1.76,1.94,.03,1.03-.02,2.06-.03,3.1Z"/><path class="cn" d="M363.25,553.77c2.17,.1,4.4-.51,6.67-.31,1.25,.11,1.47,.3,1.52,1.5,.05,1.33-.12,1.54-1.53,1.57-1.68,.03-3.37,.06-5.05,0-1.18-.04-2.3,.27-3.46,.36-1.35,.11-1.57-.1-1.64-1.25-.09-1.54,.1-1.8,1.45-1.86,.65-.03,1.29,0,2.04,0Z"/><path class="cs" d="M339.86,546.4c3.93,0,7.86,0,11.79-.01,.65,0,1.29,.02,1.85,.41,.02,2.31,.04,4.63,.07,6.94-.12,.35,.02,.84-.41,1-.37,.14-.61-.19-.69-.5-.25-.95-1-.84-1.7-.84-2.9,0-5.79,.01-8.69,0-1.79,0-1.78-.02-1.81-1.85-.01-.69,.21-1.43-.35-2.03-.02-1.04-.04-2.08-.06-3.12Z"/><path class="s" d="M320.06,546.06c.6-.5,1.33-.45,2.04-.45,4.47,0,8.94,0,13.41,0,.72,0,1.43-.01,2.06,.42,.2,8.03,.04,16.06,.05,24.1-.02,2.4-.05,4.8-.06,7.2-.01,2.2,0,2.2-2.28,2.2-.52,0-1.04,0-1.56,0-.46,0-.93,0-1.17-.51-.49-.99-1.39-1.07-2.32-1.03-2.52,.09-5.06-.3-7.55,.36-.18,.05-.39,.02-.58,.02-2.24,.06-2.43-.11-2.44-2.38,0-1.75-.03-3.51,0-5.26,.05-2.01,.56-2.53,2.58-2.48,2.84,.06,5.69-.25,8.53,.33,.91,.18,1.94,.27,2.86-.21,.29-.15,.57-.41,.52-.76-.06-.35-.4-.5-.74-.5-1.49-.02-2.99-.06-4.48-.02-2.19,.06-4.41-.25-6.58,.33-.42,.11-.9,.03-1.36,.02-.64-.01-.94-.36-.95-.98,0-1.23,0-2.47-.02-3.7-.01-.82,.38-1.17,1.19-1.16,1.82,.02,3.63,0,5.45,0,2.32,0,4.65,0,6.99,0-.03-.86-.58-.76-.98-.77-1.69-.03-3.37,0-5.06-.02-1.42-.02-2.85,.14-4.25-.32-.36-.12-.78-.01-1.16-.06-.64-.08-1.33,.63-1.86,.13-.61-.58-.29-1.48-.3-2.24-.01-4.09,0-8.18,.02-12.27Z"/><path class="av" d="M346.33,551.82c-1.43,0-2.85,.02-4.28,0-.54,0-1.26,.16-1.26-.77,0-1.05,.48-1.77,1.24-1.89,.13-.02,.26-.02,.39-.02,2.85,0,5.71-.04,8.56-.02,1.2,.01,1.37,.23,1.37,1.35,0,1.13-.15,1.32-1.35,1.35-1.56,.03-3.11,0-4.67,0Z"/></g></g></g></svg>